<svg width="152" height="131" viewBox="0 0 152 131" fill="none" xmlns="http://www.w3.org/2000/svg">
<path d="M71.9949 79.0465L60.1899 76.6973L60.3757 75.8774L70.8122 77.9523L71.9949 79.0465Z" fill="white"/>
<path d="M128.249 97.6818C130.216 97.6818 131.811 96.0868 131.811 94.1194C131.811 92.1519 130.216 90.5569 128.249 90.5569C126.281 90.5569 124.686 92.1519 124.686 94.1194C124.686 96.0868 126.281 97.6818 128.249 97.6818Z" fill="#FFE9A1"/>
<path d="M82.4457 6.07557C83.8511 6.07557 84.9904 4.9363 84.9904 3.53095C84.9904 2.12559 83.8511 0.986328 82.4457 0.986328C81.0404 0.986328 79.9011 2.12559 79.9011 3.53095C79.9011 4.9363 81.0404 6.07557 82.4457 6.07557Z" fill="#FF6584"/>
<path d="M26.973 84.9586C28.3783 84.9586 29.5176 83.8194 29.5176 82.414C29.5176 81.0086 28.3783 79.8694 26.973 79.8694C25.5676 79.8694 24.4283 81.0086 24.4283 82.414C24.4283 83.8194 25.5676 84.9586 26.973 84.9586Z" fill="#FF6584"/>
<path d="M116.035 76.307C117.44 76.307 118.579 75.1677 118.579 73.7624C118.579 72.357 117.44 71.2178 116.035 71.2178C114.629 71.2178 113.49 72.357 113.49 73.7624C113.49 75.1677 114.629 76.307 116.035 76.307Z" fill="#FFE9A1"/>
<path d="M38.6783 110.914C40.0836 110.914 41.2229 109.775 41.2229 108.369C41.2229 106.964 40.0836 105.825 38.6783 105.825C37.2729 105.825 36.1337 106.964 36.1337 108.369C36.1337 109.775 37.2729 110.914 38.6783 110.914Z" fill="#FFE9A1"/>
<path d="M119.088 118.039C120.494 118.039 121.633 116.899 121.633 115.494C121.633 114.089 120.494 112.949 119.088 112.949C117.683 112.949 116.544 114.089 116.544 115.494C116.544 116.899 117.683 118.039 119.088 118.039Z" fill="#E6E6E6"/>
<path d="M96.6955 27.4503C98.1009 27.4503 99.2401 26.3111 99.2401 24.9057C99.2401 23.5003 98.1009 22.3611 96.6955 22.3611C95.2901 22.3611 94.1509 23.5003 94.1509 24.9057C94.1509 26.3111 95.2901 27.4503 96.6955 27.4503Z" fill="#CCCCCC"/>
<path d="M0.517447 55.4294C3.18192 55.5972 5.76869 56.3941 8.06571 57.7548C10.3627 59.1154 12.3046 61.001 13.7322 63.257C14.1322 63.8966 14.6545 64.5994 14.3775 65.3866C14.2811 65.6885 14.085 65.9487 13.8215 66.1247C13.558 66.3007 13.2426 66.3821 12.9268 66.3556C12.5331 66.2708 12.1782 66.0589 11.9168 65.7524C11.6555 65.446 11.5023 65.0621 11.4807 64.66C11.4592 64.2578 11.5705 63.8597 11.7976 63.5271C12.0247 63.1945 12.3549 62.9459 12.7373 62.8196C14.5853 62.0313 16.4498 63.2495 17.9551 64.2218C21.385 66.4371 25.1576 68.4406 29.3137 68.6931C33.1591 68.9266 37.2827 67.4189 39.4215 64.0842C39.7957 63.5008 38.8667 62.9617 38.4943 63.5422C36.3731 66.8494 32.0849 68.0372 28.3563 67.526C26.1344 67.1754 23.9889 66.447 22.0127 65.3723C20.9879 64.8405 19.994 64.2509 19.0201 63.6311C18.0934 62.9845 17.1112 62.4214 16.0849 61.9485C14.3734 61.2454 12.1076 61.3004 10.9121 62.9191C9.79679 64.4292 10.6588 66.9434 12.5242 67.3679C12.9334 67.4486 13.3563 67.4264 13.7549 67.3035C14.1534 67.1805 14.5152 66.9606 14.8079 66.6634C15.1005 66.3662 15.3149 66.001 15.4316 65.6006C15.5484 65.2002 15.564 64.777 15.477 64.3691C15.2909 63.4798 14.6213 62.6096 14.103 61.8827C12.5456 59.6918 10.5166 57.8783 8.16536 56.5756C5.81416 55.2729 3.20066 54.5143 0.517385 54.3555C-0.173362 54.3214 -0.171561 55.3953 0.517385 55.4294L0.517447 55.4294Z" fill="#CCCCCC"/>
<path d="M151.012 87.9347C149.227 86.7853 147.739 85.2291 146.671 83.3938C145.603 81.5585 144.986 79.4962 144.869 77.376C144.839 76.7768 144.749 76.0862 145.246 75.6469C145.43 75.4746 145.667 75.3699 145.918 75.3498C146.17 75.3297 146.42 75.3955 146.629 75.5363C146.87 75.7478 147.034 76.0325 147.097 76.3466C147.16 76.6607 147.117 76.9868 146.976 77.2744C146.835 77.5621 146.604 77.7953 146.317 77.9383C146.03 78.0813 145.705 78.1259 145.39 78.0655C143.801 77.8966 142.979 76.3278 142.31 75.0691C140.787 72.201 138.943 69.3472 136.155 67.5609C133.575 65.9081 130.126 65.3568 127.348 66.8437C126.862 67.1038 127.299 67.8383 127.782 67.5795C130.537 66.1049 133.976 66.9422 136.367 68.7425C137.774 69.8473 138.982 71.1848 139.938 72.6972C140.443 73.4638 140.905 74.2585 141.341 75.0664C141.734 75.8747 142.198 76.6465 142.728 77.3728C143.644 78.5245 145.239 79.3646 146.696 78.7038C147.021 78.5357 147.302 78.294 147.517 77.9979C147.731 77.7018 147.874 77.3596 147.933 76.9986C147.991 76.6376 147.965 76.2679 147.855 75.919C147.746 75.5701 147.556 75.2517 147.301 74.9892C147.048 74.7746 146.746 74.626 146.422 74.5569C146.097 74.4878 145.761 74.5003 145.442 74.5933C145.124 74.6863 144.833 74.8568 144.597 75.0896C144.361 75.3224 144.186 75.6103 144.088 75.9273C143.938 76.6727 143.935 77.4401 144.079 78.1868C144.311 80.312 145.017 82.358 146.145 84.1741C147.273 85.9902 148.794 87.5301 150.596 88.6805C151.062 88.9719 151.477 88.2254 151.012 87.9347L151.012 87.9347Z" fill="#CCCCCC"/>
<path d="M63.204 17.4783C61.0848 17.3448 59.0275 16.711 57.2005 15.6288C55.3736 14.5467 53.8291 13.0469 52.6937 11.2526C52.3755 10.7439 51.9602 10.1849 52.1804 9.55883C52.2572 9.31876 52.4131 9.11182 52.6227 8.97184C52.8323 8.83186 53.0831 8.76712 53.3343 8.7882C53.6474 8.85561 53.9297 9.02417 54.1375 9.26789C54.3454 9.51161 54.4673 9.81694 54.4844 10.1368C54.5015 10.4566 54.413 10.7733 54.2323 11.0378C54.0517 11.3023 53.7891 11.5001 53.4849 11.6005C52.0152 12.2275 50.5323 11.2586 49.335 10.4853C46.607 8.72333 43.6065 7.12987 40.3009 6.92907C37.2425 6.74331 33.9628 7.94248 32.2617 10.5947C31.9641 11.0587 32.703 11.4875 32.9992 11.0258C34.6863 8.39542 38.0969 7.45071 41.0624 7.85727C42.8296 8.13614 44.5361 8.71548 46.1078 9.5702C46.9229 9.99321 47.7134 10.4621 48.4879 10.9551C49.2249 11.4693 50.0062 11.9172 50.8224 12.2933C52.1837 12.8525 53.9857 12.8088 54.9366 11.5214C55.1383 11.2163 55.2658 10.8683 55.3089 10.5051C55.3521 10.1419 55.3096 9.77371 55.185 9.42986C55.0605 9.08602 54.8571 8.77609 54.5914 8.52487C54.3256 8.27364 54.0047 8.08808 53.6544 7.98302C53.329 7.91885 52.9926 7.93646 52.6756 8.03425C52.3586 8.13205 52.0708 8.30698 51.8381 8.54336C51.6053 8.77973 51.4349 9.07017 51.342 9.38864C51.2491 9.70711 51.2367 10.0437 51.3059 10.3681C51.5382 11.0921 51.9094 11.7638 52.3988 12.3457C53.6374 14.0882 55.2512 15.5306 57.1213 16.5667C58.9913 17.6028 61.0699 18.2062 63.204 18.3324C63.7534 18.3596 63.752 17.5054 63.204 17.4783L63.204 17.4783Z" fill="#CCCCCC"/>
<path d="M65.1423 44.5356H62.5977V52.8965H65.1423V44.5356Z" fill="#CCCCCC"/>
<path d="M23.9993 38.7011L25.7677 36.9326L19.9571 31.122L18.1886 32.8905L23.9993 38.7011Z" fill="#B3B3B3"/>
<path d="M95.545 56.2716L97.3135 58.04L103.124 52.2294L101.356 50.461L95.545 56.2716Z" fill="#B3B3B3"/>
<path d="M23.2779 128.539L25.0464 130.307L30.857 124.497L29.0885 122.728L23.2779 128.539Z" fill="#FF6584"/>
<path d="M75.7584 125.046C49.1254 125.046 27.4578 103.378 27.4578 76.745C27.4578 50.112 49.1254 28.4443 75.7584 28.4443C102.391 28.4443 124.059 50.112 124.059 76.745C124.059 103.378 102.391 125.046 75.7584 125.046ZM75.7584 29.3991C49.6518 29.3991 28.4125 50.6384 28.4125 76.745C28.4125 102.852 49.6518 124.091 75.7584 124.091C101.865 124.091 123.104 102.852 123.104 76.745C123.104 50.6384 101.865 29.3991 75.7584 29.3991Z" fill="#58BD7D"/>
<path d="M69.2346 101.635C68.4087 101.635 67.5943 101.442 66.8556 101.073C66.117 100.704 65.4746 100.167 64.9793 99.5064L51.9323 82.1102C51.5132 81.5513 51.2083 80.9154 51.0349 80.2386C50.8616 79.5619 50.8232 78.8577 50.922 78.1661C51.0208 77.4746 51.2549 76.8093 51.6108 76.2082C51.9668 75.6071 52.4376 75.082 52.9965 74.6628C53.5554 74.2437 54.1913 73.9388 54.8681 73.7654C55.5448 73.5921 56.249 73.5537 56.9406 73.6525C57.6321 73.7513 58.2974 73.9854 58.8985 74.3413C59.4996 74.6973 60.0247 75.1681 60.4438 75.727L68.9796 87.1071L90.9025 54.2231C91.6856 53.0501 92.9023 52.2361 94.2854 51.9599C95.6684 51.6838 97.1045 51.9681 98.2779 52.7504C99.4514 53.5327 100.266 54.749 100.543 56.1318C100.82 57.5147 100.537 58.9509 99.7552 60.1249L73.6613 99.2657C73.1893 99.9735 72.5544 100.558 71.81 100.97C71.0655 101.382 70.2331 101.609 69.3826 101.633C69.3333 101.634 69.2839 101.635 69.2346 101.635Z" fill="#58BD7D"/>
</svg>
