<svg width="330" height="334" viewBox="0 0 330 334" fill="none" xmlns="http://www.w3.org/2000/svg">
<path d="M165 333.343C256.127 333.343 330 290.693 330 238.082C330 185.47 256.127 142.821 165 142.821C73.873 142.821 0 185.47 0 238.082C0 290.693 73.873 333.343 165 333.343Z" fill="#F5F5F5"/>
<path d="M190.893 304.794C210.601 304.794 226.577 295.572 226.577 284.195C226.577 272.818 210.601 263.596 190.893 263.596C171.186 263.596 155.21 272.818 155.21 284.195C155.21 295.572 171.186 304.794 190.893 304.794Z" fill="#E0E0E0"/>
<path d="M172.348 214.44L76.9058 269.553C74.2193 271.134 69.5337 270.912 66.4284 269.119L32.5465 249.554C29.4491 247.769 29.1094 245.058 31.7564 243.51L127.199 188.397C129.886 186.816 134.571 187.037 137.677 188.831L171.558 208.395C174.695 210.181 175.035 212.891 172.348 214.44Z" fill="#E0E0E0"/>
<path d="M44.5885 63.8763C44.5894 61.5756 45.195 59.3155 46.3446 57.3226C47.4943 55.3298 49.1476 53.6742 51.1389 52.5217L134.516 4.38555C135.072 4.06484 135.693 3.87282 136.333 3.8236C136.974 3.77439 137.617 3.86922 138.216 4.10114C138.814 4.33306 139.353 4.69617 139.793 5.16379C140.233 5.63142 140.563 6.19168 140.758 6.80342C140.534 5.82334 140.115 4.89842 139.526 4.08387C138.937 3.26932 138.19 2.58185 137.329 2.06249L137.029 1.88866C134.954 0.654239 132.584 0.00187244 130.17 0.000191428C129.399 -0.00711686 128.639 0.194961 127.973 0.584907L44.5964 48.7448C42.6021 49.8944 40.9458 51.5492 39.7945 53.5425C38.6432 55.5359 38.0374 57.7974 38.0381 60.0993V240.405C38.0391 241.158 38.238 241.898 38.6149 242.55C38.9919 243.202 39.5336 243.744 40.1858 244.121C40.838 244.498 41.5778 244.697 42.3311 244.698C43.0844 244.699 43.8247 244.501 44.4779 244.126L44.5885 244.063V63.8763Z" fill="#37474F"/>
<path d="M134.405 199.767L51.0284 247.903C50.3762 248.281 49.6361 248.48 48.8825 248.48C48.1289 248.481 47.3885 248.283 46.7357 247.906C46.083 247.53 45.5408 246.988 45.1639 246.336C44.787 245.683 44.5886 244.943 44.5886 244.189V63.8763C44.5895 61.5756 45.1951 59.3155 46.3447 57.3226C47.4944 55.3298 49.1477 53.6742 51.139 52.5217L134.516 4.38554C135.169 4.01028 135.91 3.81325 136.663 3.81421C137.416 3.81517 138.156 4.01408 138.808 4.391C139.46 4.76792 140.002 5.30963 140.379 5.96184C140.756 6.61406 140.955 7.35387 140.956 8.10717V188.412C140.957 190.713 140.352 192.974 139.202 194.967C138.052 196.96 136.398 198.616 134.405 199.767Z" fill="#455A64"/>
<path d="M44.5886 244.189V63.8763C44.5895 61.9119 45.0324 59.9729 45.8844 58.203L39.4368 54.2522C38.5185 56.0787 38.0396 58.0945 38.0382 60.1388V241.953C38.0384 242.668 38.2241 243.371 38.5773 243.993C38.9305 244.615 39.439 245.135 40.0531 245.501L43.3797 247.476C44.531 248.164 45.8471 248.527 47.1882 248.527H48.8475C48.283 248.522 47.7251 248.406 47.2056 248.185C46.686 247.964 46.2151 247.643 45.8196 247.241C45.4241 246.838 45.1118 246.361 44.9006 245.837C44.6894 245.314 44.5834 244.754 44.5886 244.189Z" fill="#263238"/>
<path d="M131.537 21.7214V173.313C131.535 175.345 131 177.341 129.983 179.101C128.966 180.861 127.505 182.323 125.745 183.34L52.1187 225.842C51.5637 226.164 50.9352 226.338 50.2935 226.348C50.5059 226.839 50.8199 227.28 51.2148 227.641C51.6098 228.002 52.0767 228.276 52.585 228.444C53.0933 228.612 53.6313 228.67 54.1638 228.615C54.6963 228.561 55.2111 228.394 55.6744 228.126L129.301 185.615C131.06 184.599 132.521 183.137 133.536 181.377C134.552 179.616 135.086 177.62 135.085 175.588V25.4984C135.087 24.5351 134.72 23.6076 134.061 22.9055C133.401 22.2035 132.499 21.7799 131.537 21.7214Z" fill="#37474F"/>
<path d="M50.2933 226.308C50.935 226.299 51.5635 226.125 52.1186 225.802L125.745 183.3C127.499 182.287 128.957 180.831 129.973 179.079C130.989 177.326 131.528 175.338 131.537 173.313V21.7214C130.798 21.7277 130.069 21.8977 129.404 22.2192L55.777 64.7216C54.0162 65.7373 52.5539 67.1987 51.5372 68.9589C50.5205 70.7191 49.9852 72.716 49.9852 74.7487V224.799C49.9844 225.326 50.092 225.848 50.3012 226.332L50.2933 226.308Z" fill="#256BFD"/>
<g opacity="0.5">
<path d="M50.2933 226.308C50.935 226.299 51.5635 226.125 52.1186 225.802L125.745 183.3C127.499 182.287 128.957 180.831 129.973 179.079C130.989 177.326 131.528 175.338 131.537 173.313V21.7214C130.798 21.7277 130.069 21.8977 129.404 22.2192L55.777 64.7216C54.0162 65.7373 52.5539 67.1987 51.5372 68.9589C50.5205 70.7191 49.9852 72.716 49.9852 74.7487V224.799C49.9844 225.326 50.092 225.848 50.3012 226.332L50.2933 226.308Z" fill="white"/>
</g>
<path d="M81.1014 42.5105C81.0763 42.9702 80.9439 43.4176 80.7148 43.8169C80.4856 44.2162 80.1661 44.5563 79.7819 44.8099C79.047 45.2287 78.4544 44.8889 78.4544 44.0197C78.4798 43.5592 78.6131 43.1111 78.8437 42.7116C79.0743 42.3122 79.3957 41.9726 79.7819 41.7204C80.5088 41.3569 81.1014 41.6651 81.1014 42.5105Z" fill="#263238"/>
<path d="M86.04 39.6659C86.0134 40.1261 85.8795 40.5738 85.649 40.973C85.4185 41.3723 85.0978 41.7121 84.7125 41.9652C83.9777 42.384 83.3851 42.0442 83.3851 41.1751C83.4104 40.7145 83.5438 40.2664 83.7744 39.867C84.005 39.4675 84.3264 39.128 84.7125 38.8757C85.4395 38.4807 86.04 38.8204 86.04 39.6659Z" fill="#263238"/>
<path d="M105.944 29.7021L89.9355 38.9864C89.2955 39.3499 88.7819 38.9864 88.7819 38.1172C88.7886 37.6863 88.8965 37.263 89.0968 36.8814C89.2972 36.4998 89.5845 36.1707 89.9355 35.9206L105.968 26.6679C106.6 26.2965 107.113 26.6679 107.113 27.5292C107.101 27.9573 106.988 28.3766 106.785 28.7537C106.582 29.1309 106.294 29.4556 105.944 29.7021Z" fill="#263238"/>
<path d="M103.234 205.456C104.19 205.456 104.814 206.475 104.814 208.048C104.814 210.513 103.273 213.492 101.44 214.551L93.7678 218.984C93.425 219.197 93.0334 219.319 92.63 219.339C91.6739 219.339 91.0497 218.32 91.0497 216.747C91.0497 214.274 92.63 211.295 94.4236 210.244L102.096 205.812C102.441 205.597 102.836 205.474 103.242 205.456M103.242 204.8C102.72 204.816 102.213 204.971 101.772 205.251L94.0997 209.676C92.0532 210.853 90.3939 214.021 90.3939 216.787C90.3939 218.818 91.3183 220.034 92.63 220.034C93.1514 220.019 93.6591 219.863 94.0997 219.584L101.772 215.159C103.811 213.982 105.47 210.813 105.47 208.048C105.47 206.017 104.553 204.8 103.242 204.8Z" fill="#263238"/>
<path d="M60.8499 85.3766V255.26C60.8499 258.341 61.9798 260.404 63.7023 261.083H63.7497L71.0982 265.105L71.0507 258.578L70.2606 82.4293L62.5092 78.4785C61.469 80.6327 60.9031 82.985 60.8499 85.3766Z" fill="#E6E6E6"/>
<path d="M71.5011 265.761L63.5521 261.407C61.5846 260.617 60.4547 258.302 60.4547 255.22V85.337C60.4967 82.873 61.0708 80.4471 62.1377 78.2256L62.3116 77.8542L70.6398 82.1132V82.3502L71.43 258.499L71.5011 265.761ZM63.9551 260.728L70.703 264.425V258.563L69.9129 82.6505L62.7462 78.9842C61.8395 80.9874 61.3502 83.1543 61.3081 85.3528V255.236C61.3081 258.017 62.28 260.056 63.9156 260.696L64.0104 260.743L63.9551 260.728Z" fill="#E6E6E6"/>
<path d="M62.4934 78.4943L70.2448 82.4451L153.211 34.1746L158.742 30.9508L151.086 26.6365L150.872 26.5101C149.647 25.7752 148.051 25.8227 146.289 26.842L67.7637 72.1731C65.4182 73.7101 63.5835 75.9107 62.4934 78.4943Z" fill="#E0E0E0"/>
<path d="M70.2447 82.8321C70.1811 82.8315 70.1187 82.8152 70.0629 82.7847L62.3115 78.8339C62.266 78.8121 62.2253 78.7813 62.1918 78.7435C62.1584 78.7057 62.1328 78.6616 62.1166 78.6137C62.1004 78.5659 62.0939 78.5153 62.0975 78.4649C62.1012 78.4145 62.1148 78.3654 62.1377 78.3203C63.2672 75.6717 65.1561 73.417 67.566 71.8411L146.107 26.4941C147.925 25.4511 149.695 25.3326 151.085 26.1702H151.149L151.307 26.265L158.955 30.5713C159.015 30.6077 159.065 30.6587 159.099 30.7195C159.134 30.7804 159.152 30.849 159.153 30.919C159.154 30.9883 159.136 31.0566 159.101 31.1165C159.067 31.1764 159.016 31.2256 158.955 31.2588L70.458 82.7531C70.3958 82.799 70.3218 82.8264 70.2447 82.8321ZM63.0148 78.2887L70.2368 81.9867L157.944 30.9506L150.667 26.8418L150.611 26.7944C149.481 26.1465 148.02 26.2808 146.487 27.1658L67.9453 72.5127C65.7866 73.9307 64.0764 75.9342 63.0148 78.2887Z" fill="#E0E0E0"/>
<path d="M68.4512 89.6434V258.736C68.4512 261.399 69.3046 263.311 70.6558 264.212L71.1062 264.457C72.2835 265.01 73.7611 264.892 75.3651 263.959L113.332 242.056L153.938 217.641C156.017 216.34 157.74 214.54 158.948 212.406C160.157 210.272 160.814 207.869 160.86 205.417V36.3238C160.86 33.7479 160.07 31.8832 158.79 30.9429C158.573 30.7809 158.337 30.6481 158.086 30.5478C157.401 30.3056 156.669 30.228 155.948 30.3213C155.227 30.4147 154.539 30.6763 153.938 31.0851L75.3967 77.1985C73.1808 78.3582 71.3886 80.1892 70.2765 82.4293C69.1364 84.6673 68.5127 87.1325 68.4512 89.6434Z" fill="#FAFAFA"/>
<path d="M153.938 217.64C137.779 227.28 95.7353 252.368 74.9226 264.907C74.3017 265.279 73.5934 265.479 72.8699 265.488C72.1463 265.497 71.4334 265.313 70.8038 264.957C70.1742 264.6 69.6503 264.083 69.2856 263.458C68.921 262.833 68.7285 262.123 68.7278 261.399V87.5178C68.7277 85.5384 69.2455 83.5935 70.2296 81.876C71.2138 80.1586 72.6301 78.7286 74.3379 77.7278L154.286 30.8559C154.907 30.4936 155.612 30.3013 156.331 30.2984C157.05 30.2955 157.758 30.482 158.382 30.8393C159.006 31.1966 159.525 31.7119 159.886 32.3335C160.248 32.9551 160.439 33.6609 160.441 34.38V206.128C160.442 208.445 159.844 210.722 158.704 212.74C157.565 214.757 155.923 216.445 153.938 217.64Z" fill="#FAFAFA"/>
<path d="M153.709 217.293C141.019 224.847 128.334 232.422 115.655 240.018L93.1355 253.49L82.8635 259.653L78.3675 262.355C76.9848 263.185 75.5151 264.37 73.9822 264.9C71.4458 265.785 69.1622 263.754 69.099 261.249C69.099 260.846 69.099 260.459 69.099 260.04V100.619C69.099 96.3754 69.099 92.1244 69.099 87.8813C69.07 85.8723 69.5775 83.892 70.5693 82.1446C71.561 80.3973 73.001 78.9462 74.7407 77.9411C76.5739 76.8586 78.4149 75.7919 80.2718 74.7173L106.078 59.5305L136.697 41.5861C142.504 38.1885 148.296 34.7592 154.08 31.3774C155.882 30.3344 158.149 30.4371 159.406 32.3255C159.85 33.0794 160.059 33.9489 160.006 34.8224V205.464C160.086 207.821 159.543 210.157 158.434 212.237C157.324 214.318 155.686 216.069 153.685 217.316C153.25 217.585 153.646 218.273 154.08 218.004C156.185 216.701 157.913 214.871 159.094 212.695C160.274 210.519 160.867 208.073 160.812 205.598V46.975C160.812 42.8504 160.852 38.7179 160.812 34.5854C160.832 33.7581 160.627 32.9409 160.218 32.2214C159.809 31.5019 159.212 30.9073 158.491 30.5013C157.77 30.0952 156.952 29.8931 156.125 29.9166C155.298 29.9401 154.493 30.1883 153.796 30.6346C151.868 31.7487 149.955 32.8865 148.043 34.0086L121.542 49.5983L90.6465 67.7086C85.1945 70.9088 79.6634 74.0852 74.235 77.309C72.4076 78.3844 70.8964 79.9232 69.8544 81.7699C68.8125 83.6166 68.2766 85.7057 68.301 87.826C68.301 89.2482 68.301 90.6705 68.301 92.0928V260.577C68.301 260.846 68.301 261.123 68.301 261.368C68.3095 262.074 68.483 262.769 68.8077 263.397C69.1324 264.024 69.5993 264.568 70.1711 264.983C70.7429 265.398 71.4039 265.674 72.1012 265.788C72.7986 265.903 73.513 265.853 74.1876 265.642C75.681 265.144 77.0875 264.022 78.4307 263.216L83.0136 260.459L93.2856 254.311C108.225 245.356 123.177 236.417 138.143 227.494L154.128 217.956C154.538 217.719 154.143 217.032 153.709 217.293Z" fill="#EBEBEB"/>
<path d="M74.3063 77.7041L154.286 30.8559C154.907 30.4936 155.612 30.3013 156.331 30.2984C157.05 30.2955 157.758 30.482 158.382 30.8393C159.006 31.1966 159.525 31.7119 159.886 32.3335C160.248 32.9551 160.439 33.6609 160.441 34.38V41.9259L68.7199 94.8663V87.502C68.716 85.5236 69.2295 83.5785 70.2095 81.8598C71.1894 80.1411 72.6017 78.7085 74.3063 77.7041Z" fill="#EBEBEB"/>
<path d="M129.254 118.837C137.364 104.79 137.364 89.6061 129.254 84.9236C121.144 80.2412 107.994 87.833 99.8842 101.88C91.7739 115.928 91.7738 131.112 99.8841 135.794C107.994 140.476 121.144 132.885 129.254 118.837Z" fill="#256BFD"/>
<path opacity="0.5" d="M129.254 118.837C137.364 104.79 137.364 89.6061 129.254 84.9236C121.144 80.2412 107.994 87.833 99.8842 101.88C91.7739 115.928 91.7738 131.112 99.8841 135.794C107.994 140.476 121.144 132.885 129.254 118.837Z" fill="white"/>
<path d="M110.843 110.448C110.721 110.448 110.599 110.424 110.486 110.377C110.373 110.33 110.27 110.262 110.184 110.175C110.097 110.088 110.028 109.986 109.982 109.873C109.935 109.759 109.911 109.638 109.911 109.516V103.376C109.979 101.92 110.395 100.5 111.123 99.2372C111.852 97.974 112.872 96.9033 114.098 96.1147C114.595 95.7056 115.205 95.4577 115.846 95.4042C116.487 95.3508 117.129 95.4942 117.686 95.8155C118.244 96.1367 118.69 96.6204 118.965 97.2019C119.24 97.7835 119.332 98.4351 119.227 99.0699V105.217C119.227 105.465 119.128 105.702 118.953 105.877C118.779 106.051 118.541 106.15 118.294 106.15C118.047 106.15 117.81 106.051 117.635 105.877C117.46 105.702 117.362 105.465 117.362 105.217V99.0383C117.485 98.7295 117.493 98.3865 117.382 98.0727C117.272 97.759 117.052 97.4958 116.763 97.3318C116.474 97.1679 116.135 97.1144 115.809 97.1811C115.483 97.2479 115.193 97.4305 114.991 97.695C114.051 98.3231 113.268 99.1596 112.703 100.139C112.139 101.119 111.808 102.216 111.736 103.345V109.484C111.744 109.73 111.655 109.97 111.488 110.15C111.321 110.331 111.089 110.438 110.843 110.448Z" fill="#37474F"/>
<path d="M122.095 101.258C121.876 101.168 121.638 101.134 121.404 101.161C121.169 101.187 120.944 101.272 120.751 101.409L108.33 108.583C107.785 108.925 107.334 109.398 107.018 109.958C106.521 110.765 106.249 111.689 106.228 112.637V123.391C106.2 123.692 106.241 123.996 106.348 124.279C106.455 124.563 106.625 124.818 106.845 125.026C106.912 125.079 106.986 125.122 107.066 125.153C107.276 125.231 107.502 125.258 107.725 125.23C107.948 125.203 108.161 125.122 108.346 124.995L120.751 117.812C121.398 117.35 121.928 116.743 122.297 116.039C122.666 115.335 122.865 114.554 122.877 113.759V102.989C122.92 102.656 122.87 102.318 122.732 102.012C122.594 101.707 122.373 101.445 122.095 101.258Z" fill="#256BFD"/>
<path d="M116.011 112.471L117.212 115.916L113 118.342L114.051 114.091L114.201 113.49C113.49 113.49 113 112.961 113 111.997C113.005 111.604 113.072 111.215 113.198 110.843C113.526 109.816 114.198 108.934 115.102 108.346C116.263 107.674 117.212 108.22 117.212 109.563C117.154 110.641 116.73 111.666 116.011 112.471Z" fill="#455A64"/>
<path d="M114.019 114.051L114.169 113.45C113.458 113.45 112.968 112.921 112.968 111.957C112.974 111.565 113.04 111.175 113.166 110.803L116.01 112.471L117.212 115.916L114.019 114.051Z" fill="#37474F"/>
<path d="M145.246 150.13L83.9303 185.505C81.3939 186.967 79.3395 185.41 79.3395 182.036V172.752C79.3395 169.37 81.3939 165.443 83.9303 163.981L145.246 128.606C147.783 127.144 149.837 128.693 149.837 132.075V141.359C149.798 144.741 147.743 148.66 145.246 150.13Z" fill="#F7931A"/>
<path d="M94.9528 163.144H93.7676V172.965H94.9528V163.144Z" fill="#FAFAFA"/>
<path d="M98.8353 165.95L90.2905 170.861L90.8831 171.892L99.4279 166.981L98.8353 165.95Z" fill="#FAFAFA"/>
<path d="M91.644 165.816L91.0514 166.842L97.0663 170.315L97.6589 169.288L91.644 165.816Z" fill="#FAFAFA"/>
<path d="M97.6963 162.005L91.6793 172.474L92.7105 173.067L98.7275 162.597L97.6963 162.005Z" fill="#FAFAFA"/>
<path d="M115.157 152.145H113.972V161.966H115.157V152.145Z" fill="#FAFAFA"/>
<path d="M118.515 154.104L110.009 159.015L110.602 160.041L119.107 155.13L118.515 154.104Z" fill="#FAFAFA"/>
<path d="M111.856 154.813L111.263 155.84L117.278 159.313L117.871 158.286L111.856 154.813Z" fill="#FAFAFA"/>
<path d="M117.858 150.918L111.841 161.388L112.872 161.98L118.889 151.511L117.858 150.918Z" fill="#FAFAFA"/>
<path d="M135.361 141.138H134.176V150.959H135.361V141.138Z" fill="#FAFAFA"/>
<path d="M139.407 143.85L130.862 148.76L131.455 149.792L140 144.881L139.407 143.85Z" fill="#FAFAFA"/>
<path d="M132.061 143.807L131.469 144.833L137.484 148.306L138.076 147.28L132.061 143.807Z" fill="#FAFAFA"/>
<path d="M137.265 140.532L131.248 150.954L132.275 151.546L138.292 141.125L137.265 140.532Z" fill="#FAFAFA"/>
<path d="M147.024 162.914C147.814 162.914 148.217 164.139 148.217 165.356V174.64C148.217 177.461 146.471 180.851 144.417 182.044L83.1401 217.419C82.8291 217.618 82.4731 217.734 82.105 217.759C81.3149 217.759 80.9198 216.534 80.9198 215.317V206.033C80.9198 203.212 82.6581 199.822 84.7204 198.629L146.036 163.254C146.345 163.056 146.698 162.939 147.064 162.914M147.064 161.334C146.42 161.358 145.794 161.548 145.246 161.887L83.9303 197.262C81.3939 198.724 79.3395 202.651 79.3395 206.033V215.317C79.3395 217.83 80.4773 219.339 82.105 219.339C82.7512 219.317 83.3804 219.126 83.9303 218.786L145.246 183.411C147.783 181.949 149.837 178.022 149.837 174.64V165.356C149.837 162.843 148.691 161.334 147.064 161.334Z" fill="#F7931A"/>
<path d="M102.651 201.88C102.085 202.205 101.598 202.353 101.19 202.323C100.784 202.289 100.471 202.092 100.252 201.731C100.032 201.367 99.9223 200.85 99.9223 200.181C99.9223 199.529 100.032 198.893 100.252 198.274C100.471 197.655 100.78 197.094 101.179 196.589C101.58 196.083 102.05 195.676 102.59 195.366C102.952 195.157 103.29 195.03 103.603 194.986C103.918 194.937 104.192 194.978 104.426 195.111C104.663 195.242 104.846 195.473 104.978 195.802C105.109 196.128 105.175 196.561 105.175 197.101V197.584L100.531 200.253V199.163L103.739 197.319C103.739 197.066 103.691 196.869 103.596 196.728C103.5 196.588 103.368 196.511 103.198 196.498C103.031 196.481 102.837 196.537 102.615 196.664C102.383 196.797 102.178 196.977 101.999 197.204C101.822 197.427 101.684 197.67 101.584 197.934C101.483 198.195 101.432 198.452 101.43 198.704V199.74C101.43 200.054 101.48 200.297 101.58 200.468C101.683 200.637 101.827 200.73 102.013 200.747C102.199 200.764 102.42 200.699 102.676 200.552C102.845 200.455 103 200.338 103.141 200.202C103.282 200.066 103.402 199.914 103.503 199.747C103.603 199.579 103.679 199.4 103.732 199.21L105.142 198.507C105.071 198.939 104.924 199.365 104.702 199.784C104.482 200.199 104.198 200.588 103.85 200.951C103.504 201.31 103.104 201.619 102.651 201.88ZM107.695 195.19V198.857L106.17 199.733V193.39L107.624 192.555V193.674L107.688 193.637C107.81 193.198 108.014 192.789 108.3 192.41C108.587 192.028 108.934 191.719 109.342 191.485C109.724 191.265 110.057 191.17 110.341 191.2C110.625 191.229 110.846 191.378 111.003 191.645C111.161 191.91 111.24 192.288 111.24 192.781V196.82L109.714 197.696V193.972C109.717 193.582 109.631 193.329 109.457 193.211C109.282 193.091 109.043 193.119 108.737 193.294C108.532 193.412 108.35 193.568 108.193 193.76C108.038 193.951 107.916 194.17 107.828 194.416C107.742 194.658 107.698 194.916 107.695 195.19ZM115.361 188.119V189.438L112.055 191.339V190.019L115.361 188.119ZM112.805 188.071L114.328 187.196V193.099C114.328 193.261 114.349 193.375 114.392 193.441C114.435 193.505 114.495 193.532 114.571 193.524C114.649 193.515 114.74 193.481 114.842 193.422C114.914 193.381 114.985 193.333 115.057 193.278C115.128 193.22 115.183 193.176 115.221 193.146L115.461 194.315C115.385 194.387 115.277 194.48 115.139 194.595C115.001 194.713 114.833 194.833 114.635 194.955C114.268 195.182 113.947 195.311 113.67 195.34C113.396 195.369 113.183 195.291 113.03 195.106C112.878 194.922 112.803 194.621 112.805 194.205V188.071ZM118.795 192.601C118.231 192.925 117.745 193.073 117.337 193.043C116.932 193.009 116.62 192.812 116.401 192.452C116.182 192.089 116.072 191.573 116.072 190.905C116.072 190.254 116.182 189.619 116.401 189.001C116.62 188.384 116.929 187.823 117.327 187.319C117.727 186.814 118.196 186.407 118.735 186.098C119.097 185.89 119.434 185.763 119.746 185.718C120.061 185.67 120.335 185.711 120.568 185.844C120.804 185.975 120.988 186.205 121.119 186.533C121.25 186.859 121.315 187.292 121.315 187.83V188.312L116.68 190.977V189.888L119.882 188.048C119.882 187.795 119.834 187.598 119.739 187.458C119.644 187.318 119.512 187.241 119.342 187.229C119.176 187.212 118.981 187.267 118.76 187.394C118.529 187.527 118.324 187.707 118.145 187.933C117.969 188.155 117.83 188.398 117.73 188.662C117.63 188.923 117.579 189.179 117.577 189.43V190.465C117.577 190.778 117.627 191.02 117.727 191.191C117.829 191.36 117.973 191.453 118.159 191.47C118.345 191.487 118.566 191.422 118.821 191.276C118.99 191.178 119.145 191.062 119.285 190.926C119.426 190.79 119.546 190.639 119.646 190.471C119.746 190.304 119.822 190.125 119.875 189.936L121.283 189.234C121.212 189.665 121.065 190.09 120.843 190.509C120.624 190.923 120.341 191.312 119.993 191.674C119.647 192.032 119.248 192.341 118.795 192.601ZM122.309 190.458V184.126L123.785 183.278V184.383L123.842 184.35C123.942 183.899 124.11 183.506 124.346 183.17C124.582 182.831 124.854 182.573 125.161 182.396C125.237 182.352 125.32 182.311 125.408 182.271C125.496 182.231 125.573 182.202 125.64 182.183V183.741C125.568 183.757 125.47 183.792 125.343 183.846C125.217 183.899 125.101 183.956 124.997 184.016C124.773 184.145 124.573 184.316 124.396 184.53C124.222 184.74 124.084 184.973 123.982 185.23C123.882 185.485 123.831 185.742 123.831 186.001V189.583L122.309 190.458Z" fill="#F7931A"/>
<path d="M237.212 57.4049C237.249 58.0301 237.433 58.6378 237.75 59.1777C238.068 59.7176 238.509 60.1743 239.038 60.5102C240.049 61.0791 240.863 60.6129 240.863 59.4751C240.826 58.8499 240.642 58.2423 240.325 57.7024C240.007 57.1624 239.566 56.7057 239.038 56.3698C238.034 55.8009 237.212 56.2592 237.212 57.4049Z" fill="#455A64"/>
<path d="M212.741 64.7611C211.135 64.7076 209.57 64.2394 208.198 63.4021L202.406 60.1229C202.358 60.0992 202.315 60.0659 202.28 60.025C202.245 59.9841 202.219 59.9366 202.203 59.8853C202.187 59.834 202.182 59.78 202.188 59.7266C202.194 59.6732 202.21 59.6215 202.236 59.5747C202.263 59.5279 202.298 59.487 202.341 59.4544C202.384 59.4219 202.433 59.3983 202.485 59.3853C202.537 59.3723 202.591 59.37 202.644 59.3787C202.697 59.3873 202.748 59.4066 202.793 59.4355L208.585 62.7146C211.09 64.129 213.405 64.3582 215.12 63.3626C216.834 62.367 217.727 60.3205 217.727 57.547C217.727 54.4891 218.794 52.1819 220.722 51.052C222.65 49.922 225.297 50.1354 228.046 51.692L237.41 56.9939C237.499 57.0468 237.565 57.1323 237.593 57.2324C237.621 57.3325 237.609 57.4396 237.56 57.5312C237.508 57.6223 237.423 57.6892 237.322 57.7173C237.222 57.7455 237.114 57.7325 237.023 57.6814L227.659 52.4189C225.162 51.0046 222.839 50.7754 221.125 51.7789C219.41 52.7824 218.517 54.821 218.517 57.5865C218.517 60.6523 217.45 62.9596 215.523 64.0816C214.672 64.5511 213.712 64.7857 212.741 64.7611Z" fill="#455A64"/>
<path d="M200.012 58.3531C200.04 58.8584 200.188 59.3496 200.445 59.7855C200.703 60.2214 201.061 60.5891 201.489 60.8579C202.28 61.3241 202.967 60.9448 202.967 60.0203C202.939 59.515 202.79 59.0238 202.533 58.5879C202.276 58.152 201.918 57.7842 201.489 57.5155C200.676 57.0493 200.012 57.4286 200.012 58.3531Z" fill="#455A64"/>
<path d="M293.471 49.9538L254.754 28.0349C254.347 27.7364 253.856 27.5754 253.351 27.5754C252.847 27.5754 252.355 27.7364 251.949 28.0349L248.598 30.3421L250.882 33.163V73.9586C250.882 76.8111 252.62 80.1218 254.754 81.3624L292.499 102.697L292.673 105.731L296.197 103.313C296.604 102.934 296.917 102.467 297.115 101.948C297.312 101.429 297.387 100.871 297.335 100.318V57.3575C297.351 54.505 295.613 51.1943 293.471 49.9538Z" fill="#F7931A"/>
<path opacity="0.3" d="M293.471 49.9538L254.754 28.0349C254.347 27.7364 253.856 27.5754 253.351 27.5754C252.847 27.5754 252.355 27.7364 251.949 28.0349L248.598 30.3421L250.882 33.163V73.9586C250.882 76.8111 252.62 80.1218 254.754 81.3624L292.499 102.697L292.673 105.731L296.197 103.313C296.604 102.934 296.917 102.467 297.115 101.948C297.312 101.429 297.387 100.871 297.335 100.318V57.3575C297.351 54.505 295.613 51.1943 293.471 49.9538Z" fill="black"/>
<path d="M290.184 105.541L251.467 83.6221C249.325 82.3895 247.595 79.0708 247.595 76.2184V33.234C247.595 30.3736 249.325 29.062 251.467 30.3025L290.184 52.2214C292.326 53.454 294.056 56.7727 294.056 59.6251V102.617C294.056 105.47 292.326 106.782 290.184 105.541Z" fill="#F7931A"/>
<path d="M282.053 68.3406C281.966 68.3419 281.88 68.3138 281.81 68.2609C281.74 68.2079 281.689 68.1331 281.666 68.0483C280.841 64.9998 279.565 62.0915 277.881 59.4198C277.825 59.3317 277.806 59.2249 277.828 59.1227C277.85 59.0205 277.912 58.9313 278 58.8746C278.044 58.8459 278.093 58.8264 278.144 58.8173C278.196 58.8081 278.249 58.8095 278.3 58.8213C278.351 58.8331 278.399 58.8551 278.441 58.886C278.483 58.9169 278.518 58.956 278.545 59.001C280.274 61.7381 281.585 64.7183 282.433 67.8428C282.458 67.9443 282.443 68.0515 282.391 68.1425C282.34 68.2335 282.256 68.3016 282.156 68.3327L282.053 68.3406Z" fill="white"/>
<path d="M282.938 76.3767C282.833 76.3686 282.735 76.3193 282.665 76.2394C282.596 76.1596 282.561 76.0556 282.567 75.95C282.567 75.5312 282.614 75.0887 282.614 74.6383C282.61 73.2874 282.491 71.9393 282.259 70.6085C282.241 70.5038 282.266 70.3962 282.327 70.3095C282.389 70.2228 282.482 70.1641 282.587 70.1463C282.692 70.1285 282.799 70.153 282.886 70.2145C282.973 70.276 283.031 70.3694 283.049 70.4742C283.291 71.8492 283.415 73.2423 283.42 74.6383C283.42 75.1045 283.42 75.5628 283.373 76.0053C283.369 76.0583 283.355 76.1099 283.331 76.1573C283.307 76.2047 283.273 76.2469 283.233 76.2814C283.193 76.3159 283.146 76.3421 283.095 76.3584C283.045 76.3748 282.991 76.381 282.938 76.3767Z" fill="white"/>
<path d="M258.768 63.2597C258.67 63.2601 258.576 63.2236 258.505 63.1577C258.433 63.0918 258.389 63.0013 258.381 62.9042C258.317 62.2167 258.286 61.5293 258.286 60.8656C258.286 57.0333 259.321 53.8727 261.201 51.9526C261.237 51.9158 261.281 51.8866 261.328 51.8667C261.375 51.8467 261.426 51.8364 261.478 51.8364C261.53 51.8364 261.58 51.8467 261.628 51.8667C261.675 51.8866 261.719 51.9158 261.755 51.9526C261.792 51.9894 261.821 52.0331 261.841 52.0812C261.861 52.1293 261.871 52.181 261.871 52.2331C261.871 52.2853 261.861 52.3369 261.841 52.3851C261.821 52.4332 261.792 52.4769 261.755 52.5136C260.024 54.2836 259.068 57.2546 259.068 60.8735C259.068 61.5135 259.068 62.1772 259.155 62.841C259.16 62.8925 259.155 62.9445 259.14 62.9941C259.125 63.0436 259.1 63.0897 259.067 63.1295C259.034 63.1692 258.993 63.202 258.947 63.2257C258.901 63.2494 258.851 63.2637 258.799 63.2676L258.768 63.2597Z" fill="white"/>
<path d="M276.246 56.8676C276.187 56.8683 276.129 56.8559 276.076 56.8313C276.022 56.8067 275.975 56.7705 275.938 56.7254C274.474 54.8612 272.676 53.2857 270.636 52.0793C268.012 50.5938 265.547 50.3094 263.524 51.2891C263.43 51.3324 263.322 51.3368 263.225 51.3013C263.127 51.2658 263.047 51.1933 263.003 51.0995C262.98 51.0524 262.967 51.0012 262.964 50.9489C262.962 50.8967 262.969 50.8444 262.987 50.7952C263.005 50.7459 263.032 50.7007 263.067 50.662C263.103 50.6234 263.145 50.5921 263.193 50.5701C265.468 49.5192 268.178 49.78 271.039 51.4314C273.164 52.6891 275.04 54.3285 276.57 56.2671C276.635 56.348 276.666 56.4515 276.656 56.555C276.646 56.6586 276.595 56.7539 276.515 56.8202C276.433 56.8674 276.338 56.8842 276.246 56.8676Z" fill="white"/>
<path d="M261.494 63.568C261.392 63.5681 261.293 63.5286 261.22 63.4579C261.146 63.3872 261.103 63.2907 261.099 63.1887C261.099 62.9438 261.099 62.6988 261.099 62.4539C261.099 59.6488 261.786 57.3574 263.09 55.8324C263.123 55.7923 263.163 55.7592 263.209 55.7351C263.255 55.711 263.305 55.6963 263.356 55.6918C263.408 55.6874 263.46 55.6934 263.509 55.7094C263.558 55.7254 263.604 55.7511 263.643 55.785C263.722 55.8538 263.772 55.951 263.781 56.0558C263.79 56.1606 263.757 56.2648 263.69 56.346C262.513 57.7287 261.889 59.8384 261.889 62.4539C261.889 62.683 261.889 62.9201 261.889 63.1492C261.891 63.2011 261.883 63.2529 261.865 63.3016C261.847 63.3504 261.82 63.3951 261.784 63.4333C261.749 63.4714 261.707 63.5023 261.66 63.524C261.612 63.5458 261.561 63.558 261.51 63.5601L261.494 63.568Z" fill="white"/>
<path d="M264.56 55.4295C264.473 55.4303 264.388 55.4025 264.318 55.3503C264.249 55.2981 264.199 55.2245 264.175 55.1408C264.152 55.0571 264.157 54.968 264.189 54.8874C264.221 54.8067 264.279 54.7389 264.354 54.6946C265.367 54.0926 266.552 53.8478 267.72 53.9993C267.824 54.0093 267.919 54.0597 267.986 54.1396C268.052 54.2195 268.085 54.3224 268.076 54.426C268.064 54.5301 268.012 54.6255 267.931 54.6919C267.849 54.7583 267.746 54.7904 267.641 54.7815C266.646 54.6629 265.639 54.8798 264.781 55.3978C264.711 55.4271 264.635 55.438 264.56 55.4295Z" fill="white"/>
<path d="M282.054 81.4572C281.974 81.4573 281.897 81.4342 281.831 81.3906C281.765 81.347 281.713 81.285 281.682 81.2122L281.224 80.0665C280.305 77.8509 279.82 75.4798 279.794 73.0815C279.794 66.381 275.685 58.6296 270.636 55.7693C270.591 55.7439 270.551 55.7097 270.519 55.6687C270.487 55.6277 270.464 55.5808 270.451 55.5307C270.438 55.4806 270.435 55.4283 270.442 55.377C270.449 55.3257 270.467 55.2764 270.494 55.232C270.518 55.1861 270.552 55.1457 270.593 55.1131C270.633 55.0806 270.68 55.0566 270.73 55.0426C270.78 55.0286 270.833 55.0248 270.885 55.0316C270.936 55.0383 270.986 55.0554 271.031 55.0818C276.293 58.0686 280.584 66.144 280.584 73.0499C280.604 75.3565 281.071 77.6373 281.959 79.7662L282.417 80.912C282.438 80.9596 282.448 81.0109 282.449 81.0627C282.449 81.1146 282.439 81.166 282.419 81.2139C282.399 81.2618 282.37 81.3053 282.333 81.3416C282.296 81.378 282.252 81.4065 282.204 81.4256C282.156 81.4467 282.105 81.4574 282.054 81.4572Z" fill="white"/>
<path d="M263.912 76.9137C263.83 76.9137 263.751 76.8887 263.685 76.842C263.618 76.7954 263.568 76.7293 263.54 76.653C262.264 72.9194 261.439 69.0464 261.083 65.1167C261.079 65.0642 261.085 65.0113 261.101 64.9613C261.118 64.9112 261.144 64.8649 261.179 64.8251C261.213 64.7854 261.255 64.7529 261.303 64.7297C261.35 64.7065 261.402 64.693 261.454 64.6901C261.558 64.6876 261.659 64.7245 261.737 64.7934C261.814 64.8623 261.863 64.9581 261.873 65.0614C262.21 68.9166 263.006 72.7178 264.243 76.3843C264.262 76.433 264.271 76.485 264.269 76.5371C264.267 76.5892 264.255 76.6405 264.233 76.6877C264.211 76.7349 264.179 76.7772 264.14 76.812C264.101 76.8467 264.056 76.8733 264.006 76.89C263.976 76.9021 263.944 76.9101 263.912 76.9137Z" fill="white"/>
<path d="M279.73 84.1201C279.65 84.1218 279.571 84.0983 279.504 84.053C279.438 84.0077 279.387 83.9428 279.359 83.8672L278.3 81.0227C277.233 78.2463 276.658 75.305 276.601 72.331V69.2257C276.601 65.5357 273.954 61.0397 270.699 59.1986C269.182 58.3373 267.775 58.1872 266.748 58.7877C265.721 59.3882 265.168 60.6288 265.168 62.3118V65.0616C265.254 69.5284 266.149 73.9427 267.807 78.0912L269.111 81.4889C269.13 81.5376 269.139 81.5896 269.138 81.6419C269.136 81.6942 269.125 81.7458 269.103 81.7936C269.082 81.8413 269.052 81.8844 269.013 81.9203C268.975 81.9561 268.931 81.9841 268.882 82.0025C268.784 82.0385 268.676 82.0346 268.582 81.9917C268.487 81.9488 268.413 81.8703 268.376 81.7733L267.072 78.3757C265.388 74.1344 264.483 69.6241 264.401 65.0616V62.3197C264.401 60.3443 265.089 58.8509 266.353 58.1161C267.617 57.3813 269.316 57.5156 271.094 58.5191C274.563 60.4866 277.415 65.2907 277.415 69.2336V72.3389C277.47 75.2189 278.029 78.067 279.067 80.754L280.118 83.5907C280.136 83.6389 280.146 83.6903 280.144 83.7421C280.143 83.7938 280.131 83.8448 280.11 83.8919C280.088 83.9391 280.058 83.9815 280.02 84.0166C279.982 84.0517 279.937 84.0788 279.888 84.0964L279.73 84.1201Z" fill="white"/>
<path d="M276.246 85.2501C276.161 85.2506 276.079 85.224 276.011 85.1743C275.942 85.1245 275.892 85.0541 275.867 84.9736L275.313 83.1088C274.306 79.8357 273.774 76.435 273.733 73.0106V68.2223C273.672 67.1377 273.353 66.0832 272.804 65.1461C272.254 64.209 271.489 63.4163 270.573 62.8334C270.287 62.624 269.951 62.4933 269.599 62.4545C269.246 62.4157 268.89 62.47 268.566 62.6122C268.288 62.8137 268.069 63.085 267.93 63.3986C267.791 63.7123 267.738 64.057 267.775 64.3979C267.775 69.7394 269.403 75.8947 272.35 81.7339L273.464 83.9385C273.488 83.9851 273.502 84.036 273.505 84.0881C273.509 84.1401 273.503 84.1924 273.486 84.2419C273.47 84.2915 273.443 84.3373 273.409 84.3767C273.375 84.4161 273.333 84.4485 273.287 84.4718C273.24 84.4952 273.189 84.5091 273.137 84.5128C273.085 84.5165 273.033 84.5099 272.983 84.4934C272.934 84.4769 272.888 84.4508 272.848 84.4166C272.809 84.3824 272.777 84.3407 272.753 84.294L271.647 82.0895C268.637 76.1396 266.985 69.8579 266.985 64.3979C266.941 63.9188 267.026 63.4364 267.232 63.0013C267.437 62.5663 267.756 62.1945 268.155 61.9248C268.597 61.7111 269.089 61.619 269.579 61.6579C270.069 61.6967 270.54 61.8652 270.944 62.146C271.98 62.8022 272.845 63.6955 273.467 64.752C274.09 65.8086 274.452 66.9981 274.523 68.2223V73.0264C274.559 76.3757 275.078 79.7023 276.064 82.9034L276.617 84.7602C276.633 84.81 276.638 84.8624 276.633 84.9144C276.628 84.9663 276.612 85.0167 276.587 85.0624C276.562 85.1082 276.528 85.1484 276.487 85.1807C276.446 85.2129 276.399 85.2365 276.349 85.2501C276.315 85.2567 276.28 85.2567 276.246 85.2501Z" fill="white"/>
<path d="M271.813 76.9139C271.724 76.9129 271.637 76.882 271.567 76.8262C271.497 76.7704 271.447 76.6928 271.426 76.6057L271.063 74.9148C270.715 73.2889 270.54 71.6309 270.541 69.9684V65.5198C270.541 65.4151 270.583 65.3146 270.657 65.2405C270.731 65.1664 270.831 65.1248 270.936 65.1248C271.041 65.1248 271.141 65.1664 271.215 65.2405C271.29 65.3146 271.331 65.4151 271.331 65.5198V69.9684C271.336 71.5619 271.505 73.1507 271.837 74.7093L272.2 76.4003C272.212 76.4506 272.213 76.5028 272.204 76.5537C272.195 76.6046 272.176 76.6532 272.149 76.6967C272.121 76.7401 272.084 76.7775 272.041 76.8067C271.999 76.8358 271.951 76.8562 271.9 76.8664L271.813 76.9139Z" fill="white"/>
<path d="M259.629 68.3407C259.531 68.3394 259.437 68.3027 259.364 68.2373C259.292 68.1719 259.245 68.0822 259.234 67.9851L259.005 65.6779C258.996 65.5734 259.028 65.4696 259.094 65.3885C259.161 65.3073 259.256 65.2552 259.36 65.2433C259.412 65.2367 259.465 65.2408 259.516 65.2553C259.566 65.2698 259.613 65.2945 259.654 65.3278C259.694 65.361 259.728 65.4022 259.752 65.4488C259.776 65.4954 259.791 65.5465 259.795 65.5988L260.024 67.9061C260.029 67.958 260.024 68.0105 260.01 68.0606C259.995 68.1106 259.97 68.1571 259.937 68.1976C259.904 68.238 259.863 68.2714 259.817 68.296C259.771 68.3206 259.72 68.3357 259.668 68.3407H259.629Z" fill="white"/>
<path d="M293.471 123.17L254.754 101.243C254.347 100.944 253.856 100.783 253.351 100.783C252.847 100.783 252.355 100.944 251.949 101.243L248.598 103.55L250.882 106.371V147.167C250.882 150.019 252.62 153.33 254.754 154.57L292.499 175.905L292.673 178.939L296.197 176.529C296.604 176.148 296.918 175.68 297.115 175.16C297.312 174.639 297.387 174.08 297.335 173.526V130.542C297.351 127.713 295.613 124.402 293.471 123.17Z" fill="#256BFD"/>
<path opacity="0.3" d="M293.471 123.17L254.754 101.243C254.347 100.944 253.856 100.783 253.351 100.783C252.847 100.783 252.355 100.944 251.949 101.243L248.598 103.55L250.882 106.371V147.167C250.882 150.019 252.62 153.33 254.754 154.57L292.499 175.905L292.673 178.939L296.197 176.529C296.604 176.148 296.918 175.68 297.115 175.16C297.312 174.639 297.387 174.08 297.335 173.526V130.542C297.351 127.713 295.613 124.402 293.471 123.17Z" fill="black"/>
<path d="M290.184 178.749L251.467 156.83C249.325 155.597 247.595 152.287 247.595 149.426V106.442C247.595 103.589 249.325 102.278 251.467 103.51L290.184 125.429C292.326 126.67 294.056 129.981 294.056 132.833V175.825C294.056 178.678 292.326 179.989 290.184 178.749Z" fill="#F7931A"/>
<path d="M256.223 118.436C256.119 118.436 256.018 118.395 255.944 118.321C255.87 118.247 255.828 118.146 255.828 118.041V115.379C255.826 115.114 255.894 114.854 256.026 114.625C256.158 114.395 256.349 114.206 256.579 114.075C256.817 113.931 257.091 113.855 257.369 113.855C257.647 113.855 257.921 113.931 258.159 114.075L260.948 115.655C261.041 115.706 261.109 115.792 261.138 115.894C261.166 115.995 261.154 116.104 261.103 116.196C261.051 116.289 260.965 116.357 260.864 116.386C260.762 116.414 260.653 116.402 260.561 116.35L257.764 114.77C257.644 114.701 257.508 114.664 257.369 114.664C257.23 114.664 257.094 114.701 256.974 114.77C256.865 114.831 256.774 114.921 256.711 115.029C256.649 115.138 256.617 115.261 256.618 115.386V118.049C256.616 118.153 256.574 118.251 256.5 118.324C256.426 118.396 256.327 118.436 256.223 118.436Z" fill="white"/>
<path d="M260.712 155.076C260.645 155.075 260.58 155.059 260.522 155.028L257.914 153.551C257.291 153.192 256.774 152.675 256.414 152.052C256.055 151.429 255.867 150.722 255.868 150.003V147.546C255.868 147.441 255.909 147.34 255.984 147.266C256.058 147.192 256.158 147.151 256.263 147.151C256.368 147.151 256.468 147.192 256.542 147.266C256.616 147.34 256.658 147.441 256.658 147.546V150.003C256.66 150.586 256.817 151.158 257.113 151.661C257.409 152.163 257.833 152.578 258.341 152.863L260.949 154.341C261.023 154.385 261.08 154.452 261.113 154.532C261.145 154.612 261.151 154.7 261.129 154.783C261.106 154.867 261.057 154.94 260.989 154.993C260.921 155.046 260.837 155.075 260.751 155.076H260.712Z" fill="white"/>
<path d="M284.313 168.279C284.036 168.285 283.763 168.214 283.523 168.074L280.734 166.494C280.643 166.442 280.576 166.357 280.548 166.256C280.52 166.155 280.533 166.048 280.584 165.956C280.637 165.867 280.722 165.801 280.822 165.773C280.922 165.745 281.029 165.757 281.121 165.806L283.918 167.387C284.038 167.456 284.175 167.492 284.313 167.492C284.452 167.492 284.588 167.456 284.708 167.387C284.818 167.325 284.908 167.236 284.971 167.127C285.034 167.019 285.066 166.896 285.064 166.77V164.107C285.064 164.003 285.106 163.902 285.18 163.828C285.254 163.754 285.354 163.712 285.459 163.712C285.564 163.712 285.664 163.754 285.738 163.828C285.812 163.902 285.854 164.003 285.854 164.107V166.77C285.856 167.034 285.787 167.293 285.655 167.52C285.523 167.748 285.333 167.937 285.103 168.066C284.864 168.208 284.591 168.282 284.313 168.279Z" fill="white"/>
<path d="M285.443 134.99C285.339 134.99 285.238 134.949 285.164 134.875C285.09 134.801 285.048 134.7 285.048 134.595V132.138C285.046 131.556 284.889 130.985 284.593 130.484C284.298 129.982 283.874 129.569 283.365 129.285L280.758 127.808C280.666 127.755 280.599 127.668 280.571 127.566C280.543 127.464 280.556 127.355 280.608 127.263C280.633 127.217 280.667 127.178 280.708 127.146C280.749 127.114 280.796 127.091 280.846 127.078C280.896 127.065 280.949 127.062 281 127.069C281.051 127.076 281.1 127.094 281.145 127.12L283.752 128.598C284.382 128.951 284.906 129.465 285.273 130.087C285.639 130.708 285.834 131.416 285.838 132.138V134.595C285.838 134.7 285.797 134.801 285.723 134.875C285.649 134.949 285.548 134.99 285.443 134.99Z" fill="white"/>
<path d="M259.724 131.727C259.812 136.214 260.454 140.672 261.636 145.001C264.639 156.332 276.483 163.294 279.739 155.621C281.268 151.846 282.018 147.801 281.943 143.729C281.943 136.776 276.965 128.321 270.833 124.845C264.56 121.297 259.637 124.592 259.724 131.727Z" fill="white"/>
<path d="M270.438 138.056V145.499L267.207 143.082L270.438 138.056Z" fill="#E0E0E0"/>
<path d="M264.425 133.607C264.446 133.972 264.553 134.327 264.737 134.643C264.921 134.959 265.177 135.227 265.484 135.425C266.077 135.757 266.551 135.488 266.551 134.816C266.53 134.452 266.422 134.097 266.237 133.782C266.051 133.468 265.793 133.202 265.484 133.007C264.899 132.675 264.425 132.944 264.425 133.607Z" fill="#E0E0E0"/>
<path d="M274.318 139.281C274.341 139.645 274.449 139.999 274.634 140.313C274.82 140.628 275.077 140.894 275.385 141.09C275.977 141.422 276.451 141.153 276.451 140.49C276.431 140.124 276.323 139.768 276.138 139.452C275.952 139.136 275.694 138.869 275.385 138.672C274.832 138.34 274.318 138.609 274.318 139.281Z" fill="#E0E0E0"/>
<path d="M269.372 149.142L272.983 148.533C272.983 148.533 272.216 152.389 269.372 149.142Z" fill="#E0E0E0"/>
<path d="M237.212 126.472C237.25 127.096 237.435 127.702 237.752 128.241C238.069 128.779 238.51 129.235 239.038 129.57C240.049 130.147 240.863 129.68 240.863 128.543C240.826 127.917 240.642 127.31 240.325 126.77C240.007 126.23 239.566 125.773 239.038 125.437C238.034 124.86 237.212 125.327 237.212 126.472Z" fill="#F7931A"/>
<path d="M237.283 127.334C237.215 127.333 237.147 127.317 237.086 127.286L227.73 121.953C222.255 118.855 217.798 111.278 217.798 105.075C217.798 99.1174 213.523 91.8559 208.269 88.877L202.406 85.5583C202.315 85.5069 202.248 85.4214 202.22 85.3207C202.192 85.22 202.205 85.1122 202.256 85.021C202.281 84.9752 202.314 84.9347 202.355 84.9022C202.396 84.8697 202.442 84.8457 202.493 84.8317C202.543 84.8177 202.595 84.8139 202.647 84.8206C202.699 84.8274 202.748 84.8445 202.793 84.8709L208.656 88.1895C214.132 91.2949 218.588 98.8645 218.588 105.075C218.588 111.025 222.863 118.287 228.118 121.265L237.481 126.575C237.572 126.627 237.639 126.712 237.667 126.813C237.695 126.914 237.682 127.021 237.631 127.113C237.598 127.177 237.548 127.231 237.487 127.27C237.426 127.309 237.356 127.331 237.283 127.334Z" fill="#F7931A"/>
<path d="M200.012 83.6619C200.042 84.1676 200.192 84.659 200.449 85.0957C200.705 85.5325 201.062 85.9022 201.489 86.1746C202.279 86.6329 202.967 86.2615 202.967 85.337C202.937 84.8313 202.787 84.3399 202.53 83.9031C202.273 83.4664 201.917 83.0967 201.489 82.8243C200.675 82.366 200.012 82.7374 200.012 83.6619Z" fill="#F7931A"/>
<path d="M211.129 156.087C211.129 156.087 216.889 155.7 220.153 163.704C222.183 168.682 224.657 176.347 226.237 181.483C226.717 183.034 226.728 184.692 226.27 186.249C225.812 187.806 224.904 189.194 223.661 190.238L213.618 198.669L210.039 192.134C212.126 189.349 214.421 186.726 216.905 184.288L210.039 163.704L211.129 156.087Z" fill="#FFA8A7"/>
<path d="M213.784 180.534C213.784 180.534 222.934 181.743 225.218 174.687C225.218 174.687 221.267 164.36 219.497 160.931C217.727 157.501 214.029 155.005 211.129 156.087C208.229 157.17 213.784 180.534 213.784 180.534Z" fill="#256BFD"/>
<path opacity="0.4" d="M213.784 180.534C213.784 180.534 222.934 181.743 225.218 174.687C225.218 174.687 221.267 164.36 219.497 160.931C217.727 157.501 214.029 155.005 211.129 156.087C208.229 157.17 213.784 180.534 213.784 180.534Z" fill="white"/>
<path d="M207.668 273.188C207.668 273.188 203.323 269.466 201.632 269.293C199.941 269.119 197.017 272.011 199.49 277.028C200.178 278.427 202.975 279.936 204.721 282.615C206.467 285.293 208.032 287.308 210.711 286.937C213.389 286.565 213.737 285.064 213.563 283.318C213.336 281.72 213.017 280.137 212.607 278.577L207.668 273.188Z" fill="#37474F"/>
<path d="M210.829 286.139C208.071 286.518 206.452 284.44 204.65 281.682C202.848 278.925 199.972 277.36 199.261 275.922C198.976 275.346 198.744 274.746 198.566 274.128C198.697 275.14 199.002 276.121 199.467 277.028C200.154 278.427 202.951 279.936 204.697 282.615C206.444 285.293 208.008 287.308 210.687 286.937C212.741 286.66 213.421 285.704 213.547 284.487C213.199 285.309 212.449 285.925 210.829 286.139Z" fill="#263238"/>
<path d="M205.361 277.977C205.291 277.978 205.222 277.959 205.163 277.921C205.115 277.895 205.071 277.86 205.036 277.818C205.001 277.775 204.974 277.726 204.958 277.673C204.942 277.62 204.936 277.565 204.942 277.509C204.947 277.454 204.963 277.401 204.99 277.352C205.874 275.785 207.343 274.632 209.075 274.144C209.181 274.128 209.29 274.153 209.379 274.213C209.468 274.274 209.531 274.366 209.555 274.471C209.579 274.576 209.562 274.686 209.508 274.78C209.455 274.873 209.367 274.942 209.264 274.974C207.774 275.409 206.509 276.403 205.732 277.747C205.697 277.815 205.644 277.873 205.578 277.913C205.513 277.953 205.438 277.975 205.361 277.977Z" fill="#EBEBEB"/>
<path d="M203.717 276.475C203.649 276.475 203.581 276.458 203.52 276.428C203.471 276.402 203.428 276.367 203.392 276.324C203.357 276.282 203.331 276.232 203.314 276.179C203.298 276.127 203.293 276.071 203.298 276.016C203.304 275.961 203.32 275.908 203.346 275.859C203.784 275.081 204.37 274.397 205.073 273.847C205.775 273.296 206.579 272.89 207.439 272.651C207.496 272.621 207.559 272.605 207.622 272.604C207.686 272.602 207.75 272.615 207.808 272.642C207.866 272.669 207.917 272.709 207.957 272.758C207.998 272.808 208.026 272.866 208.04 272.928C208.055 272.991 208.055 273.056 208.04 273.118C208.026 273.18 207.997 273.238 207.956 273.288C207.916 273.337 207.865 273.377 207.806 273.403C207.748 273.43 207.685 273.443 207.621 273.441C206.13 273.881 204.866 274.877 204.089 276.222C204.058 276.296 204.007 276.359 203.941 276.404C203.875 276.449 203.797 276.474 203.717 276.475Z" fill="#EBEBEB"/>
<path d="M201.876 274.982C201.808 274.981 201.74 274.965 201.679 274.934C201.58 274.881 201.505 274.79 201.473 274.682C201.44 274.574 201.452 274.457 201.505 274.358C202.392 272.791 203.864 271.641 205.598 271.157C205.652 271.145 205.708 271.143 205.763 271.152C205.818 271.16 205.87 271.18 205.917 271.21C205.964 271.239 206.005 271.278 206.037 271.323C206.069 271.368 206.092 271.419 206.104 271.473C206.127 271.583 206.106 271.698 206.046 271.793C205.985 271.888 205.89 271.955 205.78 271.979C204.289 272.419 203.025 273.415 202.248 274.76C202.213 274.828 202.159 274.885 202.094 274.924C202.028 274.963 201.953 274.983 201.876 274.982Z" fill="#EBEBEB"/>
<path d="M184.54 285.396C184.54 285.396 178.717 283.508 176.979 284.029C175.24 284.551 173.541 288.612 178.045 292.555C179.294 293.645 182.676 293.993 185.504 295.921C188.333 297.849 190.704 299.184 193.201 297.722C195.697 296.261 195.492 294.562 195.042 292.76C194.481 290.437 194.022 288.746 194.022 288.746L184.54 285.396Z" fill="#37474F"/>
<path d="M193.011 296.877C190.443 298.386 187.985 297.003 185.109 295.012C182.233 293.021 178.709 292.642 177.421 291.543C176.9 291.09 176.421 290.59 175.991 290.05C176.536 290.999 177.242 291.847 178.077 292.555C179.325 293.645 182.707 293.993 185.536 295.921C188.365 297.849 190.735 299.184 193.232 297.722C195.136 296.608 195.421 295.352 195.049 294.127C195.026 295.083 194.488 296.008 193.011 296.877Z" fill="#263238"/>
<path d="M183.174 290.777H183.134C183.022 290.765 182.919 290.709 182.848 290.622C182.777 290.535 182.744 290.423 182.755 290.311C182.984 288.408 183.959 286.675 185.465 285.491C185.51 285.459 185.56 285.435 185.614 285.423C185.667 285.41 185.723 285.408 185.777 285.417C185.831 285.426 185.883 285.445 185.93 285.474C185.977 285.503 186.018 285.541 186.05 285.586C186.115 285.677 186.142 285.79 186.124 285.901C186.106 286.012 186.046 286.112 185.955 286.178C184.653 287.228 183.804 288.739 183.584 290.398C183.575 290.5 183.527 290.596 183.452 290.666C183.376 290.736 183.277 290.775 183.174 290.777Z" fill="#EBEBEB"/>
<path d="M185.544 291.559C185.434 291.547 185.332 291.493 185.261 291.407C185.191 291.322 185.156 291.212 185.165 291.101C185.397 289.197 186.371 287.462 187.875 286.273C187.967 286.209 188.082 286.183 188.193 286.202C188.304 286.222 188.402 286.284 188.468 286.376C188.499 286.421 188.522 286.472 188.534 286.526C188.546 286.58 188.547 286.635 188.538 286.69C188.528 286.744 188.508 286.796 188.478 286.842C188.449 286.889 188.41 286.929 188.365 286.961C187.059 288.008 186.21 289.52 185.994 291.18C185.984 291.29 185.932 291.391 185.847 291.462C185.763 291.533 185.654 291.568 185.544 291.559Z" fill="#EBEBEB"/>
<path d="M180.929 289.963H180.89C180.78 289.951 180.678 289.897 180.607 289.811C180.536 289.725 180.502 289.616 180.511 289.505C180.739 287.6 181.713 285.863 183.221 284.677C183.312 284.612 183.425 284.586 183.536 284.604C183.646 284.623 183.745 284.685 183.81 284.776C183.875 284.867 183.901 284.98 183.882 285.091C183.864 285.201 183.802 285.299 183.711 285.364C182.405 286.412 181.556 287.924 181.34 289.584C181.331 289.687 181.283 289.782 181.207 289.852C181.132 289.922 181.033 289.962 180.929 289.963Z" fill="#EBEBEB"/>
<path d="M212.883 274.294C213.405 268.526 214.535 259.487 215.009 255.26C215.647 249.917 215.493 244.509 214.55 239.212C214.308 237.963 214.247 236.685 214.369 235.419C215.514 223.93 216.257 205.306 215.625 201.213L199.498 204.627C199.498 204.627 201.473 230.757 202.343 239.449C203.212 248.14 206.451 274.374 206.451 274.374C207.414 274.99 208.536 275.31 209.679 275.296C210.822 275.282 211.936 274.934 212.883 274.294Z" fill="#455A64"/>
<path d="M210.56 280.228C211.006 280.125 211.422 279.921 211.777 279.634C212.133 279.347 212.419 278.983 212.615 278.569C212.615 277.66 212.717 276.143 212.883 274.294C211.936 274.934 210.822 275.282 209.679 275.296C208.536 275.31 207.414 274.99 206.451 274.373L207.02 279.225C207.494 279.652 208.06 279.964 208.674 280.138C209.287 280.312 209.933 280.343 210.56 280.228Z" fill="#FFA8A7"/>
<path d="M194.741 284.44C195.397 275.701 196.669 258.784 196.835 256.121C196.959 253.183 196.774 250.241 196.282 247.342C195.997 245.775 195.997 244.169 196.282 242.601L203.394 203.267L183.9 202.983L182.628 244.189C182.614 244.717 182.635 245.245 182.692 245.77L186.824 284.179C186.824 284.179 190.854 287.569 194.741 284.44Z" fill="#455A64"/>
<path d="M191.486 291.646C192.092 291.576 192.671 291.356 193.171 291.005C193.67 290.655 194.074 290.185 194.346 289.639L194.741 284.44C190.854 287.601 186.84 284.195 186.84 284.195L187.456 289.947C187.456 289.947 188.357 291.939 191.486 291.646Z" fill="#FFA8A7"/>
<path d="M192.908 158.711L188.309 160.291L183.363 183.687L183.608 204.429C183.608 204.429 187.14 207.25 200.936 207.25C208.68 207.25 213.729 204.326 215.625 201.221L214.384 188.689C214.384 188.689 215.625 176.339 215.625 170.231C215.625 164.123 215.902 159.122 211.129 156.095L206.878 156.451L192.908 158.711Z" fill="#256BFD"/>
<path opacity="0.2" d="M192.908 158.711L188.309 160.291L183.363 183.687L183.608 204.429C183.608 204.429 187.14 207.25 200.936 207.25C208.68 207.25 213.729 204.326 215.625 201.221L214.384 188.689C214.384 188.689 215.625 176.339 215.625 170.231C215.625 164.123 215.902 159.122 211.129 156.095L206.878 156.451L192.908 158.711Z" fill="white"/>
<path d="M187.915 138.601L185.615 143.16C185.582 143.226 185.563 143.299 185.561 143.373C185.558 143.447 185.572 143.52 185.6 143.589C185.629 143.657 185.672 143.718 185.726 143.768C185.78 143.819 185.845 143.856 185.915 143.879L188.641 144.796L187.915 138.601Z" fill="#F28F8F"/>
<path d="M191.075 130.96C191.075 130.96 187.583 132.841 187.583 143.603C187.583 149.537 187.993 153.322 191.075 153.085C194.157 152.848 203.038 151.686 203.038 151.686V130.96H191.075Z" fill="#FFA8A7"/>
<path d="M191.075 153.124C192.158 153.037 193.959 152.84 195.816 152.619V151.52C194.121 152.243 192.351 152.773 190.538 153.101C190.716 153.122 190.896 153.13 191.075 153.124Z" fill="#F28F8F"/>
<path d="M195.342 151.062V157.834H204.61V148.32L195.342 151.062Z" fill="#FFA8A7"/>
<path d="M195.342 155.258C195.342 155.258 198.677 156.443 201.347 155.977C204.018 155.51 204.611 153.883 204.611 153.883C204.611 153.883 205.48 153.812 206.878 156.443C206.334 157.426 205.555 158.259 204.61 158.868C203.666 159.478 202.586 159.844 201.466 159.935C198.559 160.121 195.646 159.704 192.908 158.711C192.908 158.711 194.236 154.918 195.342 155.258Z" fill="#256BFD"/>
<path opacity="0.4" d="M195.342 155.258C195.342 155.258 198.677 156.443 201.347 155.977C204.018 155.51 204.611 153.883 204.611 153.883C204.611 153.883 205.48 153.812 206.878 156.443C206.334 157.426 205.555 158.259 204.61 158.868C203.666 159.478 202.586 159.844 201.466 159.935C198.559 160.121 195.646 159.704 192.908 158.711C192.908 158.711 194.236 154.918 195.342 155.258Z" fill="white"/>
<path d="M174.664 175.359L172.175 179.183C172.175 179.183 166.13 176.489 161.903 174.853C159.441 173.939 157.15 172.62 155.123 170.95C155.274 169.303 155.538 167.669 155.913 166.059C156.403 164.4 156.569 163.017 155.123 163.752C153.677 164.487 152.674 167.339 152.587 167.702C152.587 167.702 144.092 159.161 143.034 159.351C141.975 159.54 142.244 160.82 144.503 163.451L146.787 166.091C146.787 166.091 141.58 169.085 142.425 172.356C143.271 175.628 150.137 177.097 150.137 177.097C150.137 177.097 170.231 192.537 174.679 189.74C179.128 186.943 185.425 178.954 185.425 178.954L174.664 175.359Z" fill="#FFA8A7"/>
<path d="M190.135 159.682C190.135 159.682 193.848 162.732 191.431 169.038C189.013 175.343 182.842 182.96 182.842 182.96C182.842 182.96 176.378 180.945 173.881 175.722L182.036 162.962C182.614 162.053 183.398 161.293 184.325 160.744C185.252 160.195 186.294 159.872 187.369 159.801C188.144 159.753 189.06 159.714 190.135 159.682Z" fill="#256BFD"/>
<path opacity="0.4" d="M190.135 159.682C190.135 159.682 193.848 162.732 191.431 169.038C189.013 175.343 182.842 182.96 182.842 182.96C182.842 182.96 176.378 180.945 173.881 175.722L182.036 162.962C182.614 162.053 183.398 161.293 184.325 160.744C185.252 160.195 186.294 159.872 187.369 159.801C188.144 159.753 189.06 159.714 190.135 159.682Z" fill="white"/>
<path d="M189.771 124.608C189.771 124.608 186.105 124.118 185.173 126.638C184.588 128.219 186.453 129.435 186.453 129.435C186.453 129.435 184.082 131.656 187.614 132.343C187.553 132.722 187.587 133.11 187.713 133.473C187.839 133.836 188.053 134.162 188.335 134.421C188.618 134.681 188.96 134.867 189.332 134.962C189.704 135.057 190.094 135.059 190.467 134.966C190.467 134.966 190.056 137.337 193.145 138.198C193.145 138.198 191.565 142.354 194.52 142.41H197.262L196.156 145.618C196.156 145.618 198.21 150.564 204.61 150.564C205.313 149.062 206.104 147.602 206.981 146.195C207.771 145.207 211.722 140.142 211.722 136.128C211.722 132.114 210.181 129.736 208.04 129.206C207.361 127.731 206.303 126.463 204.974 125.532C202.817 124.078 198.281 122.782 195.721 124.568C195.721 124.568 193.453 121.589 191.881 121.589C190.309 121.589 189.771 123.209 189.771 124.608Z" fill="#263238"/>
<path d="M194.52 142.41C194.52 142.41 194.251 138.198 197.799 138.198C201.347 138.198 200.509 145.618 196.156 145.618L194.52 142.41Z" fill="#FFA8A7"/>
</svg>
