<svg width="225" height="300" viewBox="0 0 225 300" fill="none" xmlns="http://www.w3.org/2000/svg">
<path d="M105.18 277.965C127.878 277.965 146.279 267.341 146.279 254.235C146.279 241.13 127.878 230.506 105.18 230.506C82.4812 230.506 64.0805 241.13 64.0805 254.235C64.0805 267.341 82.4812 277.965 105.18 277.965Z" fill="#E0E0E0"/>
<path d="M174.857 300C202.341 300 224.62 287.137 224.62 271.271C224.62 255.404 202.341 242.542 174.857 242.542C147.374 242.542 125.095 255.404 125.095 271.271C125.095 287.137 147.374 300 174.857 300Z" fill="#E0E0E0"/>
<path d="M119.285 245.154C119.285 243.067 117.917 240.981 115.162 239.403C109.662 236.223 100.739 236.223 95.2386 239.403C92.4842 240.989 91.107 243.076 91.107 245.154V251.589C91.107 253.676 92.4842 255.763 95.2386 257.348C100.739 260.52 109.662 260.52 115.162 257.348C117.917 255.754 119.285 253.676 119.285 251.589V245.154Z" fill="#263238"/>
<path d="M115.196 245.839C120.696 249.019 120.696 254.185 115.196 257.349C109.695 260.512 100.773 260.52 95.2721 257.349C89.7716 254.177 89.7633 249.002 95.2721 245.839C100.781 242.675 109.695 242.667 115.196 245.839Z" fill="#37474F"/>
<path d="M119.319 245.154H91.1405V251.589H119.319V245.154Z" fill="#37474F"/>
<path d="M115.196 239.428C120.696 242.6 120.696 247.775 115.196 250.93C109.695 254.085 100.773 254.11 95.2721 250.93C89.7716 247.75 89.7633 242.583 95.2721 239.428C100.781 236.273 109.695 236.223 115.196 239.428Z" fill="#455A64"/>
<path d="M109.92 240.864C112.516 242.358 112.516 244.787 109.92 246.281C108.467 247.018 106.86 247.402 105.23 247.402C103.6 247.402 101.993 247.018 100.539 246.281C97.9513 244.787 97.9513 242.358 100.539 240.864C101.993 240.127 103.6 239.743 105.23 239.743C106.86 239.743 108.467 240.127 109.92 240.864Z" fill="#263238"/>
<path d="M111.865 122.083H98.5941V243.577H111.865V122.083Z" fill="#263238"/>
<path d="M159.424 65.9762V65.8844C159.299 65.1916 159.149 64.4905 158.974 63.7894C158.997 63.8634 159.017 63.9386 159.032 64.0147C158.924 63.539 158.798 63.0632 158.665 62.5875C158.715 62.7627 158.757 62.938 158.798 63.1133C158.665 62.5874 158.515 62.07 158.356 61.5441C158.431 61.7695 158.506 62.0032 158.565 62.2285C158.481 61.9281 158.389 61.6276 158.298 61.3271L158.147 60.8513V60.7846V60.8346C157.026 57.4308 155.549 54.1547 153.74 51.0607C153.682 50.9522 153.624 50.8437 153.557 50.7352C149.008 42.9978 142.414 35.9282 135.052 31.5378L134.693 31.3208C132.582 30.0948 130.343 29.1039 128.016 28.3661C126.082 27.7544 124.068 27.4309 122.04 27.4062H121.339H120.913C120.562 27.4062 120.22 27.473 119.886 27.5231H119.578L119.01 27.6316C118.768 27.6817 118.526 27.7401 118.292 27.8069L117.641 27.9989C117.641 27.9989 117.641 27.9989 117.599 27.9989L116.948 28.2326C116.731 28.3244 116.514 28.4162 116.314 28.5164L114.878 29.351L42.5879 71.0844H42.5294C38.6148 73.2795 36.2444 77.7617 36.2444 84.1302V123.451L9.0426 138.475C6.34771 139.961 4.09586 142.136 2.51744 144.777C0.939016 147.419 0.0907014 150.432 0.0592856 153.509C0.0278697 156.586 0.814484 159.617 2.33864 162.29C3.8628 164.963 6.06978 167.183 8.73378 168.724C16.3087 173.093 24.8996 175.393 33.6444 175.393C42.3892 175.393 50.9801 173.093 58.555 168.724L86.7334 152.865L159.959 110.556V71.2262C159.938 69.4638 159.759 67.7068 159.424 65.9762Z" fill="#F7931A"/>
<path d="M41.3359 120.722V76.7934L87.8435 50.2009L92.0335 90.8158L41.3359 120.722Z" fill="#F7931A"/>
<path opacity="0.5" d="M41.3359 120.722V76.7934L87.8435 50.2009L92.0335 90.8158L41.3359 120.722Z" fill="black"/>
<path d="M41.3359 120.722L92.0335 90.8159V138.617L81.5501 143.942L41.3359 120.722Z" fill="#F7931A"/>
<path opacity="0.3" d="M41.3359 120.722L92.0335 90.8159V138.617L81.5501 143.942L41.3359 120.722Z" fill="black"/>
<path d="M159.433 65.9761L154.625 68.622L125.362 84.6392L120.07 87.5188L83.495 107.551C81.1746 103.628 75.1483 85.3236 71.9348 82.01C68.8391 78.754 65.3051 75.9448 61.4347 73.6633C56.8441 71.0091 52.5455 69.7488 48.8312 69.7488C46.6459 69.7039 44.4854 70.2182 42.5546 71.2428L114.853 29.5095L116.289 28.6748C116.489 28.5746 116.706 28.4828 116.923 28.391L117.574 28.1573C117.574 28.1573 117.574 28.1573 117.616 28.1573L118.267 27.9653C118.501 27.8986 118.743 27.8401 118.985 27.7901L119.553 27.6816H119.861C120.195 27.6315 120.537 27.5897 120.888 27.5647H121.314H122.015C124.043 27.5894 126.057 27.9128 127.991 28.5246C130.318 29.2624 132.557 30.2532 134.668 31.4793L135.027 31.6963C147.122 38.7492 157.154 53.1973 159.433 65.9761Z" fill="#F7931A"/>
<g opacity="0.3">
<path d="M159.433 65.9761L154.625 68.622L125.362 84.6392L120.07 87.5188L83.4949 107.551C81.1745 103.628 75.1482 85.3236 71.9347 82.01C68.839 78.754 65.305 75.9448 61.4346 73.6633C56.844 71.0091 52.5454 69.7488 48.8312 69.7488C46.6458 69.7039 44.4853 70.2182 42.5545 71.2428L114.853 29.5095L116.289 28.6748C116.489 28.5746 116.706 28.4828 116.923 28.391L117.574 28.1573C117.574 28.1573 117.574 28.1573 117.616 28.1573L118.267 27.9653C118.501 27.8986 118.743 27.8401 118.985 27.7901L119.552 27.6816H119.861C120.195 27.6315 120.537 27.5897 120.888 27.5647H121.314H122.015C124.043 27.5894 126.057 27.9128 127.991 28.5246C130.318 29.2624 132.557 30.2532 134.668 31.4793L135.027 31.6963C147.122 38.7492 157.154 53.1973 159.433 65.9761Z" fill="black"/>
</g>
<path d="M153.507 50.7937C153.574 50.8939 153.64 51.0024 153.699 51.1109C153.665 50.9773 153.607 50.8688 153.507 50.7937Z" fill="#F7931A"/>
<path d="M157.388 58.7229C158.293 61.0722 158.977 63.5003 159.433 65.9762L154.625 68.622L125.362 84.6393L120.07 87.5189L83.4949 107.551L86.7334 152.865L159.959 110.556V71.2262C159.861 66.9377 158.99 62.7021 157.388 58.7229Z" fill="#F7931A"/>
<path d="M156.303 56.1022C155.994 55.4177 155.669 54.725 155.326 54.0405C155.669 54.725 156.011 55.4177 156.303 56.1022Z" fill="#F7931A"/>
<path d="M154.058 51.6284C154.408 52.2628 154.759 52.8971 155.084 53.5398C154.759 52.9305 154.417 52.2962 154.058 51.6284Z" fill="#F7931A"/>
<g opacity="0.5">
<path d="M153.507 50.7937C153.574 50.8939 153.64 51.0024 153.699 51.1109C153.665 50.9773 153.607 50.8688 153.507 50.7937Z" fill="black"/>
<path d="M157.388 58.7229C158.293 61.0722 158.977 63.5003 159.433 65.9762L154.625 68.622L125.362 84.6393L120.07 87.5189L83.4949 107.551L86.7334 152.865L159.959 110.556V71.2262C159.861 66.9377 158.99 62.7021 157.388 58.7229Z" fill="black"/>
<path d="M156.303 56.1022C155.994 55.4177 155.668 54.725 155.326 54.0405C155.668 54.725 156.011 55.4177 156.303 56.1022Z" fill="black"/>
<path d="M154.058 51.6284C154.408 52.2628 154.759 52.8971 155.084 53.5398C154.759 52.9305 154.417 52.2962 154.058 51.6284Z" fill="black"/>
</g>
<path d="M48.8312 74.9405C51.7442 74.9405 55.2164 76.0506 58.8472 78.1623C71.1419 85.2569 81.5335 101.458 81.5335 113.544V143.942L41.3192 120.722V84.3722C41.3192 76.5764 45.3924 74.9405 48.8312 74.9405ZM48.8312 69.7822C41.2691 69.7822 36.186 75.0156 36.186 84.3722V123.693L86.7001 152.907V113.544C86.7001 99.5882 75.3903 81.7513 61.443 73.6968C56.8524 71.0509 52.5371 69.7822 48.8312 69.7822Z" fill="#F7931A"/>
<path d="M36.186 123.693L8.98422 138.717C6.28933 140.203 4.03748 142.378 2.45906 145.019C0.880636 147.661 0.0323213 150.674 0.000905448 153.751C-0.0305104 156.828 0.756104 159.859 2.28026 162.532C3.80442 165.205 6.0114 167.425 8.6754 168.966C16.2503 173.335 24.8412 175.635 33.586 175.635C42.3308 175.635 50.9218 173.335 58.4966 168.966L86.7334 152.865L36.186 123.693Z" fill="#F7931A"/>
<path opacity="0.2" d="M36.186 123.693L8.98422 138.717C6.28933 140.203 4.03748 142.378 2.45906 145.019C0.880636 147.661 0.0323213 150.674 0.000905448 153.751C-0.0305104 156.828 0.756104 159.859 2.28026 162.532C3.80442 165.205 6.0114 167.425 8.6754 168.966C16.2503 173.335 24.8412 175.635 33.586 175.635C42.3308 175.635 50.9218 173.335 58.4966 168.966L86.7334 152.865L36.186 123.693Z" fill="white"/>
<path d="M103.552 140.888L97.8762 144.16V89.3637L103.552 86.0835V140.888Z" fill="#E0E0E0"/>
<path d="M114.269 90.8493L97.8762 100.306V89.3636L114.269 79.8984V90.8493Z" fill="#E0E0E0"/>
<path d="M105.998 138.96C105.898 140.807 105.363 142.605 104.438 144.208C103.513 145.81 102.223 147.172 100.672 148.183C97.726 149.852 95.3389 148.508 95.3389 145.111C95.4456 143.27 95.984 141.479 96.9105 139.884C97.837 138.289 99.1257 136.935 100.672 135.93C103.61 134.185 105.998 135.562 105.998 138.96Z" fill="#F7931A"/>
<path opacity="0.2" d="M105.998 138.96C105.898 140.807 105.363 142.605 104.438 144.208C103.513 145.81 102.223 147.172 100.672 148.183C97.726 149.852 95.3389 148.508 95.3389 145.111C95.4456 143.27 95.984 141.479 96.9105 139.884C97.837 138.289 99.1257 136.935 100.672 135.93C103.61 134.185 105.998 135.562 105.998 138.96Z" fill="black"/>
<path d="M107.767 139.986C107.661 141.827 107.124 143.617 106.199 145.212C105.274 146.806 103.987 148.162 102.442 149.167C99.5038 150.837 97.1167 149.485 97.1167 146.087C97.2187 144.24 97.7539 142.443 98.6789 140.841C99.604 139.238 100.893 137.876 102.442 136.864C105.388 135.212 107.767 136.589 107.767 139.986Z" fill="#F7931A"/>
<path d="M167.838 228.871L154.63 228.534L153.948 255.277L167.157 255.613L167.838 228.871Z" fill="#945959"/>
<path d="M150.485 121.49C150.485 121.49 149.559 166.996 149.876 185.025C150.118 198.605 152.238 239.278 152.238 239.278C152.238 239.278 160.802 244.87 169.825 240.196C169.825 240.196 175.033 199.114 173.764 186.736C173.601 185.235 173.601 183.721 173.764 182.22L181.727 113.327L150.485 121.49Z" fill="#37474F"/>
<path d="M158.515 251.573C158.515 251.573 165.835 250.738 167.312 248.351V246.798C167.312 246.798 168.581 247.474 168.339 250.045C168.122 252.432 169.073 256.497 169.215 261.455C169.224 261.86 169.138 262.261 168.965 262.626C168.791 262.991 168.533 263.311 168.214 263.559C166.795 264.652 163.798 266.33 158.515 266.555C156.662 266.638 149.25 271.388 143.082 271.388C136.914 271.388 132.882 268.333 132.882 264.059C132.882 259.786 145.461 255.921 145.461 255.921L151.504 250.079C151.504 250.079 150.327 243.71 154.175 245.238C158.022 246.765 158.515 248.351 158.515 251.573Z" fill="#37474F"/>
<path d="M157.179 255.287C157.098 255.287 157.018 255.261 156.952 255.213C156.886 255.165 156.837 255.097 156.812 255.02C155.527 251.172 151.512 250.462 151.47 250.454C151.42 250.446 151.372 250.428 151.329 250.401C151.286 250.375 151.249 250.34 151.22 250.299C151.19 250.258 151.169 250.211 151.158 250.162C151.146 250.113 151.145 250.062 151.153 250.012C151.171 249.912 151.228 249.823 151.31 249.764C151.393 249.705 151.495 249.68 151.595 249.695C152.94 249.957 154.195 250.563 155.236 251.453C156.278 252.344 157.071 253.489 157.538 254.778C157.57 254.874 157.562 254.979 157.517 255.07C157.472 255.16 157.392 255.229 157.296 255.262L157.179 255.287Z" fill="#FAFAFA"/>
<path d="M154.767 257.674C154.686 257.672 154.608 257.645 154.542 257.597C154.476 257.55 154.427 257.483 154.4 257.407C153.123 253.576 149.1 252.85 149.058 252.841C149.008 252.833 148.961 252.815 148.918 252.789C148.876 252.762 148.839 252.727 148.81 252.685C148.781 252.644 148.761 252.598 148.75 252.548C148.74 252.499 148.74 252.448 148.749 252.399C148.757 252.349 148.775 252.301 148.802 252.258C148.828 252.215 148.863 252.178 148.904 252.148C148.946 252.119 148.992 252.098 149.041 252.086C149.091 252.075 149.142 252.073 149.192 252.082C150.537 252.344 151.791 252.95 152.832 253.841C153.874 254.731 154.667 255.877 155.134 257.165C155.15 257.213 155.156 257.264 155.152 257.314C155.147 257.365 155.133 257.414 155.11 257.459C155.087 257.504 155.055 257.544 155.016 257.577C154.977 257.609 154.932 257.634 154.884 257.649C154.847 257.666 154.807 257.675 154.767 257.674Z" fill="#FAFAFA"/>
<path d="M152.672 259.744C152.593 259.744 152.515 259.72 152.451 259.673C152.386 259.627 152.338 259.561 152.313 259.485C151.036 255.646 147.013 254.92 146.971 254.911C146.917 254.909 146.863 254.896 146.814 254.871C146.766 254.847 146.722 254.813 146.688 254.77C146.653 254.728 146.628 254.679 146.614 254.626C146.6 254.573 146.598 254.518 146.607 254.464C146.616 254.411 146.636 254.359 146.666 254.314C146.697 254.269 146.736 254.23 146.783 254.201C146.829 254.173 146.881 254.154 146.935 254.147C146.989 254.14 147.044 254.144 147.097 254.16C148.443 254.42 149.698 255.025 150.74 255.916C151.782 256.807 152.574 257.954 153.039 259.243C153.071 259.339 153.064 259.444 153.018 259.535C152.973 259.626 152.893 259.695 152.797 259.727L152.672 259.744Z" fill="#FAFAFA"/>
<path d="M132.916 264.059C132.916 268.283 136.864 271.312 142.932 271.379L151.57 267.915C151.57 258.959 145.511 255.921 145.511 255.921C145.511 255.921 132.916 259.794 132.916 264.059Z" fill="#EBEBEB"/>
<path d="M169.032 261.822C167.554 262.966 164.416 264.727 158.89 264.969C156.946 265.052 149.2 269.977 142.748 269.977C138.324 269.977 134.952 268.475 133.266 266.079C134.36 269.242 137.999 271.346 143.115 271.346C149.283 271.346 156.695 266.597 158.548 266.513C163.832 266.288 166.828 264.61 168.247 263.517C168.541 263.288 168.781 262.997 168.951 262.665C169.121 262.334 169.217 261.969 169.232 261.597C169.171 261.677 169.104 261.752 169.032 261.822Z" fill="#263238"/>
<path d="M158.139 127.858C158.139 127.858 159.349 138.158 167.245 143.6L174.215 178.547L178.689 134.853L158.139 127.858Z" fill="#263238"/>
<path d="M203.501 236.201L190.329 237.231L192.414 263.901L205.586 262.871L203.501 236.201Z" fill="#945959"/>
<path d="M198.437 122.575C198.437 122.575 200.031 128.61 200.799 153.508C201.417 173.239 201.876 184.591 202.043 188.447C202.083 189.407 202.186 190.363 202.351 191.31C203.974 201.26 205.061 211.291 205.607 221.358C206.733 240.555 206.825 249.645 206.825 249.645C206.825 249.645 198.679 256.013 188.847 251.013L179.331 193.805L169.315 140.712C169.315 140.712 155.585 135.479 154.375 121.515L198.437 122.575Z" fill="#37474F"/>
<path d="M205.114 256.756L205.323 259.36C205.323 259.36 203.754 261.564 201.901 262.206C201.901 262.206 200.482 257.023 197.969 256.756C195.457 256.489 190.24 256.255 190.942 259.143C191.332 260.649 191.576 262.189 191.668 263.742L186.827 272.765C186.827 272.765 177.003 281.228 181.109 286.62C185.216 292.012 198.996 289.124 200.357 280.661C200.574 279.386 201.053 278.17 201.763 277.088C202.472 276.007 203.397 275.083 204.48 274.376C205.368 273.816 206.067 273.001 206.486 272.037C206.904 271.074 207.022 270.007 206.825 268.975C206.575 267.039 205.991 263.316 206.166 261.639C206.341 259.961 206.809 256.781 205.114 256.756Z" fill="#37474F"/>
<path d="M181.109 286.62C184.523 291.102 194.589 289.875 198.696 284.483C198.876 283.607 198.965 282.715 198.963 281.821C198.963 272.18 186.827 272.765 186.827 272.765C186.827 272.765 177.003 281.228 181.109 286.62Z" fill="#EBEBEB"/>
<path d="M206.825 268.975C206.825 268.833 206.784 268.666 206.758 268.5C206.664 269.271 206.396 270.011 205.976 270.664C205.555 271.317 204.992 271.867 204.33 272.272C203.211 273.005 202.255 273.96 201.523 275.079C200.79 276.198 200.297 277.456 200.073 278.774C198.687 287.438 184.748 290.46 180.325 285.109C180.495 285.655 180.76 286.167 181.109 286.62C185.216 292.02 198.996 289.124 200.357 280.661C200.574 279.386 201.053 278.169 201.763 277.088C202.472 276.006 203.397 275.083 204.48 274.376C205.368 273.815 206.067 273.001 206.486 272.037C206.904 271.074 207.022 270.007 206.825 268.975Z" fill="#263238"/>
<path d="M198.804 265.754C198.706 265.755 198.61 265.719 198.537 265.653C195.599 262.874 191.71 264.134 191.668 264.151C191.619 264.172 191.566 264.182 191.513 264.181C191.46 264.181 191.408 264.169 191.36 264.148C191.311 264.126 191.268 264.094 191.233 264.055C191.197 264.016 191.17 263.969 191.153 263.919C191.137 263.869 191.13 263.815 191.135 263.763C191.14 263.71 191.156 263.659 191.181 263.612C191.207 263.566 191.242 263.525 191.284 263.493C191.326 263.461 191.374 263.437 191.426 263.425C192.734 263.017 194.126 262.957 195.465 263.249C196.804 263.542 198.044 264.178 199.063 265.094C199.1 265.129 199.129 265.171 199.149 265.218C199.168 265.265 199.179 265.315 199.179 265.365C199.179 265.416 199.168 265.466 199.149 265.513C199.129 265.559 199.1 265.602 199.063 265.637C198.994 265.707 198.902 265.748 198.804 265.754Z" fill="#FAFAFA"/>
<path d="M197.118 269.1C197.022 269.1 196.93 269.064 196.859 269C193.921 266.221 190.032 267.481 189.99 267.498C189.893 267.53 189.786 267.522 189.695 267.476C189.603 267.43 189.534 267.349 189.502 267.252C189.47 267.154 189.478 267.048 189.524 266.957C189.57 266.865 189.651 266.796 189.748 266.763C191.057 266.36 192.448 266.301 193.786 266.594C195.124 266.886 196.364 267.52 197.385 268.433C197.455 268.506 197.494 268.603 197.494 268.704C197.494 268.805 197.455 268.902 197.385 268.975C197.315 269.049 197.22 269.094 197.118 269.1Z" fill="#FAFAFA"/>
<path d="M195.44 272.448C195.345 272.447 195.253 272.411 195.182 272.347C192.244 269.568 188.354 270.828 188.312 270.845C188.215 270.877 188.109 270.869 188.017 270.823C187.926 270.777 187.856 270.696 187.824 270.599C187.792 270.501 187.8 270.395 187.846 270.304C187.892 270.212 187.973 270.143 188.07 270.11C189.379 269.704 190.771 269.645 192.109 269.937C193.448 270.23 194.688 270.865 195.708 271.78C195.777 271.853 195.816 271.95 195.816 272.051C195.816 272.152 195.777 272.249 195.708 272.322C195.637 272.396 195.542 272.44 195.44 272.448Z" fill="#FAFAFA"/>
<path d="M110.989 14.569C110.195 11.201 109.637 7.78167 109.319 4.33595C109.119 0.304506 107.951 -1.10608 105.488 0.913814C103.026 2.93371 97.4171 8.79307 97.751 13.3587C98.0241 18.4179 99.6341 23.3141 102.417 27.548L109.595 29.7182L112.466 23.8254L110.989 14.569Z" fill="#945959"/>
<path d="M142.105 51.0606L127.724 47.8805C127.724 47.8805 121.597 37.9563 118.05 32.7229C114.503 27.4896 112.491 23.8671 112.491 23.8671L105.814 21.8389L102.408 27.5897C102.408 27.5897 113.601 55.4092 118.793 60.1417C121.406 62.4955 138.282 67.7205 138.282 67.7205C138.282 67.7205 145.369 60.2419 142.105 51.0606Z" fill="#945959"/>
<path d="M160.234 54.9668L142.105 51.0605C141.859 56.7864 140.575 62.42 138.316 67.6871L156.528 73.3294L160.234 54.9668Z" fill="#256BFD"/>
<path opacity="0.3" d="M160.234 54.9668L142.105 51.0605C141.859 56.7864 140.575 62.42 138.316 67.6871L156.528 73.3294L160.234 54.9668Z" fill="#F7931A"/>
<path d="M185.383 57.1453L193.813 59.7995L198.437 84.7394L195.699 96.8337C195.324 98.4762 195.254 100.174 195.49 101.842L198.437 122.575C198.437 122.575 190.09 127.9 174.741 127.9C159.391 127.9 150.485 121.531 150.485 121.531L151.645 74.473C152.078 67.1517 155.126 60.2295 160.234 54.9668L170.693 56.1771L185.383 57.1453Z" fill="#F7931A"/>
<path d="M158.807 17.5571C158.807 17.5571 150.752 24.6268 157.755 40.3853L165.943 19.0762L158.807 17.5571Z" fill="#263238"/>
<path d="M185.383 57.1453L175.233 60.4088L170.693 56.1771V37.155H185.383V57.1453Z" fill="#945959"/>
<path d="M170.693 54.967C175.65 54.967 183.213 50.5516 183.213 47.455L184.882 37.1301H170.693V54.967Z" fill="#703838"/>
<path d="M174.599 13.2336C169.658 13.2336 159.149 15.988 157.905 28.917C156.662 41.846 158.59 52.8553 164.541 52.8553C176.226 52.8553 187.461 51.3696 187.553 32.239C187.653 15.3203 179.423 13.2336 174.599 13.2336Z" fill="#945959"/>
<path d="M185.383 43.5319L183.48 37.6892C183.337 37.8095 183.163 37.8867 182.978 37.9118C182.793 37.9369 182.604 37.9089 182.435 37.831C182.265 37.7532 182.121 37.6287 182.019 37.472C181.917 37.3154 181.862 37.1331 181.86 36.9464V26.513C181.86 26.513 177.003 25.1358 177.52 21.046C177.52 21.046 175.016 23.2745 165.493 23.2745C155.969 23.2745 153.64 15.1866 154.592 10.7295C154.592 10.7295 156.361 12.5574 161.403 12.5574C166.444 12.5574 187.436 6.22229 187.978 18.9009C187.978 18.9009 189.748 16.3051 192.611 18.9009L188.93 21.0877C188.93 21.0877 193.295 20.9542 192.611 27.3561C192.169 31.5294 190.624 38.9496 189.623 43.4985C189.063 46.0401 187.544 48.2677 185.383 49.7168V43.5319Z" fill="#263238"/>
<path d="M167.371 32.7646V41.0696L162.504 39.5755L167.371 32.7646Z" fill="#703838"/>
<path d="M175.1 34.1001C175.098 34.4068 175.006 34.7062 174.834 34.9604C174.662 35.2146 174.419 35.4123 174.135 35.5285C173.852 35.6447 173.54 35.6743 173.239 35.6134C172.939 35.5526 172.663 35.4041 172.446 35.1866C172.23 34.9692 172.083 34.6925 172.024 34.3916C171.965 34.0907 171.996 33.779 172.114 33.4958C172.231 33.2126 172.43 32.9706 172.685 32.8004C172.941 32.6302 173.24 32.5393 173.547 32.5393C173.752 32.5393 173.954 32.5797 174.143 32.6583C174.332 32.7368 174.504 32.8519 174.648 32.997C174.792 33.142 174.906 33.3141 174.984 33.5035C175.061 33.6928 175.101 33.8956 175.1 34.1001Z" fill="#263238"/>
<path d="M163.473 32.9983C163.473 33.3053 163.382 33.6055 163.211 33.8608C163.04 34.1161 162.798 34.3151 162.514 34.4326C162.231 34.5501 161.918 34.5808 161.617 34.5209C161.316 34.461 161.04 34.3132 160.822 34.096C160.605 33.8789 160.457 33.6023 160.398 33.3012C160.338 33 160.368 32.6879 160.486 32.4042C160.603 32.1205 160.802 31.878 161.058 31.7074C161.313 31.5369 161.613 31.4458 161.92 31.4458C162.332 31.4458 162.727 31.6094 163.018 31.9005C163.309 32.1917 163.473 32.5865 163.473 32.9983Z" fill="#263238"/>
<path d="M160.026 29.76L163.064 27.9571C163.064 27.9571 161.895 26.7468 160.735 27.473C159.575 28.1992 160.026 29.76 160.026 29.76Z" fill="#263238"/>
<path d="M176.71 30.8866L173.664 29.0921C173.664 29.0921 174.833 27.8818 175.993 28.608C177.153 29.3342 176.71 30.8866 176.71 30.8866Z" fill="#263238"/>
<path d="M167.763 45.0594C167.763 45.0594 170.016 43.6154 172.187 41.9878C172.187 41.9878 173.447 44.4417 171.46 45.7104C169.474 46.9791 167.763 45.0594 167.763 45.0594Z" fill="#703838"/>
<path d="M183.346 37.7728L188.721 31.9468L184.857 29.6265L183.346 37.7728Z" fill="#253239"/>
<path d="M184.231 35.5025C182.47 38.5574 182.929 42.2633 185.383 43.532C186.96 44.3667 191.618 42.5888 193.379 39.5339C195.14 36.479 194.155 33.8665 191.76 32.4893C189.364 31.1121 185.992 32.4309 184.231 35.5025Z" fill="#945959"/>
<path d="M170.693 56.1771L168.689 59.3572C168.303 59.969 168.05 60.6555 167.946 61.3717C167.843 62.088 167.891 62.818 168.089 63.5142C168.287 64.2104 168.629 64.8571 169.093 65.4122C169.558 65.9672 170.134 66.4182 170.784 66.7356C171.966 67.3107 173.256 67.6323 174.569 67.6798C175.883 67.7274 177.192 67.4999 178.412 67.0118C179.633 66.5238 180.738 65.786 181.656 64.8458C182.575 63.9057 183.287 62.7838 183.747 61.5523L185.416 57.1453L178.071 54.5161L170.693 56.1771Z" fill="#945959"/>
<path d="M112.491 23.8672C112.491 23.8672 114.945 20.1279 114.903 16.5806C114.862 13.0333 115.304 11.389 115.913 10.5376C116.523 9.68624 115.838 8.44259 114.202 8.86827C112.817 9.24387 111.106 11.3723 110.73 13.3337C110.675 13.6458 110.552 13.9417 110.368 14.2001C110.185 14.4585 109.946 14.6729 109.67 14.8278C107.942 15.7543 104.72 18.4085 106.248 24.8438L112.491 23.8672Z" fill="#945959"/>
<path d="M105.931 20.4617C105.855 20.4494 105.786 20.4073 105.741 20.3447C105.695 20.2822 105.677 20.2042 105.689 20.1278C105.849 18.9665 106.281 17.8594 106.95 16.8964C107.618 15.9334 108.505 15.1417 109.537 14.5856C109.778 14.4561 109.986 14.2728 110.145 14.0499C110.305 13.827 110.41 13.5705 110.455 13.3002C110.471 13.2253 110.516 13.1596 110.58 13.1175C110.644 13.0753 110.722 13.06 110.797 13.0749C110.834 13.0819 110.869 13.0961 110.9 13.1167C110.931 13.1373 110.958 13.1639 110.979 13.1949C111 13.2259 111.015 13.2608 111.022 13.2975C111.029 13.3342 111.03 13.372 111.022 13.4087C110.959 13.76 110.817 14.0924 110.607 14.3813C110.398 14.6703 110.126 14.9084 109.812 15.0781C108.857 15.5917 108.038 16.3236 107.42 17.2142C106.802 18.1049 106.403 19.1289 106.256 20.2029C106.253 20.2418 106.242 20.2797 106.224 20.3142C106.206 20.3486 106.181 20.379 106.15 20.4032C106.119 20.4275 106.084 20.4453 106.046 20.4553C106.009 20.4654 105.969 20.4675 105.931 20.4617Z" fill="#703838"/>
<path d="M195.048 90.5488L198.754 98.3613L217.776 105.89L210.106 82.6445L195.048 90.5488Z" fill="#945959"/>
<path d="M192.686 59.449C192.686 59.449 186.343 65.9677 189.089 75.1574C190.634 80.448 192.628 85.5971 195.048 90.5487C195.048 90.5487 205.74 90.8658 210.072 82.6444L204.622 68.8891C203.762 66.7264 202.409 64.7948 200.67 63.2485C198.931 61.7021 196.854 60.5839 194.606 59.9832L192.686 59.449Z" fill="#256BFD"/>
<path opacity="0.3" d="M192.686 59.449C192.686 59.449 186.343 65.9677 189.089 75.1574C190.634 80.448 192.628 85.5971 195.048 90.5487C195.048 90.5487 205.74 90.8658 210.072 82.6444L204.622 68.8891C203.762 66.7264 202.409 64.7948 200.67 63.2485C198.931 61.7021 196.854 60.5839 194.606 59.9832L192.686 59.449Z" fill="#FF8C00"/>
<path d="M197.686 96.9089C202.493 98.3195 216.666 102.518 216.666 102.518C216.666 102.518 216.774 102.827 217.776 105.857C219.312 110.572 214.437 121.982 197.177 113.702C179.916 105.423 173.614 100.99 173.614 100.99L175.492 90.5154C175.492 90.5154 192.202 95.298 197.686 96.9089Z" fill="#945959"/>
<path d="M198.195 97.1508L207.134 99.7299L197.126 94.8972L198.195 97.1508Z" fill="#703838"/>
<path d="M172.821 105.723L161.603 104.529C161.201 104.488 160.821 104.326 160.514 104.063C160.207 103.801 159.987 103.451 159.884 103.06L153.757 80.0068C153.715 79.8491 153.71 79.6837 153.744 79.5241C153.778 79.3644 153.849 79.215 153.952 79.088C154.054 78.9611 154.185 78.8602 154.334 78.7935C154.483 78.7269 154.646 78.6965 154.809 78.7047L165.659 79.2138C166.063 79.2303 166.451 79.3752 166.766 79.6274C167.081 79.8797 167.308 80.2261 167.412 80.6161L173.939 104.429C173.981 104.592 173.982 104.762 173.943 104.925C173.904 105.089 173.827 105.24 173.717 105.367C173.607 105.494 173.469 105.593 173.313 105.655C173.157 105.717 172.988 105.74 172.821 105.723Z" fill="#37474F"/>
<path d="M158.139 82.0852C158.139 82.277 158.082 82.4646 157.975 82.624C157.869 82.7834 157.717 82.9074 157.54 82.9805C157.362 83.0535 157.167 83.0722 156.979 83.0341C156.791 82.9961 156.618 82.9031 156.483 82.7668C156.348 82.6306 156.257 82.4573 156.22 82.2689C156.184 82.0806 156.204 81.8856 156.279 81.7088C156.353 81.5321 156.479 81.3815 156.639 81.2761C156.799 81.1707 156.987 81.1153 157.179 81.117C157.435 81.1192 157.679 81.2222 157.859 81.4035C158.038 81.5848 158.139 81.8298 158.139 82.0852Z" fill="#263238"/>
<path d="M175.492 90.5488C175.492 90.5488 172.245 84.9065 168.214 83.5376L169.824 89.7392C169.824 89.7392 166.761 89.9812 163.297 89.9812C159.834 89.9812 156.044 87.6442 154.951 87.0432C153.857 86.4422 152.839 90.6323 157.196 98.5282C161.553 106.424 173.647 101.032 173.647 101.032L175.492 90.5488Z" fill="#945959"/>
</svg>
