<svg width="270" height="184" viewBox="0 0 270 184" fill="none" xmlns="http://www.w3.org/2000/svg">
<circle opacity="0.1" cx="110" cy="90" r="84" fill="#F7931A"/>
<g clip-path="url(#clip0_37772_4918)">
<path d="M242.97 60.5914C254.983 60.5914 264.721 50.8414 264.721 38.8142C264.721 26.7871 254.983 17.0371 242.97 17.0371C230.957 17.0371 221.218 26.7871 221.218 38.8142C221.218 50.8414 230.957 60.5914 242.97 60.5914Z" fill="#F7931A"/>
<path d="M253.027 35.9188C253.454 33.062 251.28 31.5259 248.31 30.501L249.274 26.6302L246.921 26.0441L245.982 29.8127C245.364 29.6573 244.729 29.5128 244.096 29.3684L245.042 25.5752L242.69 24.9878L241.726 28.8572C241.214 28.74 240.711 28.6255 240.223 28.5029L240.226 28.4906L236.981 27.6796L236.354 30.1957C236.354 30.1957 238.101 30.5964 238.064 30.6209C239.017 30.8594 239.189 31.4905 239.16 31.9921L238.063 36.4012C238.128 36.4176 238.213 36.4421 238.308 36.4789L238.059 36.4176L236.52 42.5945C236.403 42.8835 236.108 43.3183 235.441 43.1534C235.465 43.1874 233.731 42.7268 233.731 42.7268L232.563 45.4227L235.626 46.1873C236.195 46.3304 236.753 46.4804 237.302 46.6207L236.329 50.5352L238.68 51.1212L239.643 47.2504C240.286 47.4235 240.909 47.5844 241.519 47.737L240.558 51.5915L242.911 52.1775L243.884 48.2713C247.897 49.0318 250.914 48.7252 252.184 45.0915C253.208 42.1666 252.134 40.4779 250.022 39.378C251.561 39.0236 252.718 38.0109 253.027 35.9188ZM247.649 43.4668C246.924 46.3931 242.003 44.8107 240.407 44.4141L241.7 39.228C243.296 39.6274 248.41 40.4165 247.649 43.4668ZM248.378 35.8765C247.715 38.5384 243.62 37.1849 242.293 36.8537L243.463 32.1515C244.791 32.4827 249.069 33.1001 248.378 35.8765Z" fill="white"/>
<path d="M12.6379 174.189C12.6379 174.189 7.96294 175.342 7.16842 179.354C6.37391 183.365 2.28618 183.965 1.64136 180.241C0.996538 176.518 6.74238 167.56 6.74238 167.56L14.1579 168.713L12.6379 174.189Z" fill="#F7931A"/>
<path d="M215.504 37.0815L197.161 56.2302C191.565 62.0682 184.309 66.0398 176.38 67.6053C168.45 69.1707 160.232 68.2542 152.841 64.9803L132.541 55.9881L112.148 91.0344L141.66 95.4613C154.368 97.369 167.356 95.6064 179.099 90.3807C190.841 85.155 200.85 76.6832 207.95 65.9602L222.206 44.4367C219.903 42.0541 217.669 39.6024 215.504 37.0815Z" fill="#F7931A"/>
<path opacity="0.46" d="M215.504 37.0815L197.161 56.2302C191.565 62.0682 184.309 66.0398 176.38 67.6053C168.45 69.1707 160.232 68.2542 152.841 64.9803L132.541 55.9881L112.148 91.0344L141.66 95.4613C154.368 97.369 167.356 95.6064 179.099 90.3807C190.841 85.155 200.85 76.6832 207.95 65.9602L222.206 44.4367C219.903 42.0541 217.669 39.6024 215.504 37.0815Z" fill="white"/>
<path d="M74.0688 169.946C74.0688 169.946 70.4532 173.128 71.6277 177.071C72.8022 181.014 69.4744 183.469 67.16 180.426C64.8455 177.382 65.7552 166.811 65.7552 166.811L72.8482 164.367L74.0688 169.946Z" fill="#F7931A"/>
<path d="M115.395 131.937L83.1541 154.994C66.5027 166.88 46.7709 173.687 26.3406 174.593L12.972 175.192V167.895L34.5736 160.597C42.8389 157.814 50.3337 153.123 56.4515 146.901L77.8113 125.136L115.395 131.937Z" fill="#23262F"/>
<path opacity="0.08" d="M115.395 131.937L83.1541 154.994C66.5027 166.88 46.7709 173.687 26.3406 174.593L12.972 175.192V167.895L34.5736 160.597C42.8389 157.814 50.3337 153.123 56.4515 146.901L77.8113 125.136L115.395 131.937Z" fill="#23262F"/>
<path d="M137.504 30.5565C138.748 33.2116 139.627 36.0232 140.117 38.9146C140.188 39.6161 139.978 40.3171 139.534 40.8639C139.089 41.4107 138.446 41.7586 137.745 41.8313C136.642 42.002 135.512 41.8516 134.491 41.3978C133.471 40.9441 132.602 40.2062 131.988 39.272L128.914 35.4907C128.382 34.6689 128.117 33.7022 128.156 32.7237C128.195 31.7451 128.536 30.8028 129.132 30.0262C131.136 26.9943 136.283 27.6283 137.504 30.5565Z" fill="#FCD4D0"/>
<path d="M131.09 36.1133L127.29 52.9793L136.72 54.4088L135.696 41.5662L131.09 36.1133Z" fill="#FCD4D0"/>
<path d="M136.352 31.2137C134.849 31.8425 133.275 32.2876 131.665 32.5394C132.353 33.0507 132.877 33.7514 133.174 34.556C133.47 35.3605 133.526 36.2341 133.335 37.0701C133.161 37.8842 132.71 38.6124 132.059 39.1299C131.408 39.6473 130.597 39.9217 129.766 39.9061L127.463 33.5193C127.11 32.6153 127.007 31.6327 127.165 30.675C127.323 29.7174 127.736 28.8202 128.361 28.0779C128.905 27.4381 129.49 26.8336 130.111 26.268C131.665 24.8615 134.797 25.1151 135.983 23.2475C136.104 23.0633 136.269 22.9135 136.465 22.8129C136.66 22.7122 136.878 22.6642 137.098 22.6735C137.317 22.6828 137.531 22.7491 137.717 22.8659C137.903 22.9827 138.056 23.146 138.16 23.3398C139.15 25.1612 139.921 28.3431 137.699 30.3606C137.299 30.7162 136.844 31.0044 136.352 31.2137Z" fill="#23262F"/>
<path d="M133.807 36.7358C133.807 36.7358 133.07 34.8451 131.689 35.5138C130.307 36.1824 131.366 38.9723 133.404 38.465L133.807 36.7358Z" fill="#FCD4D0"/>
<path d="M138.758 33.6348L140.843 35.0412C140.961 35.1187 141.059 35.2247 141.127 35.3495C141.194 35.4743 141.23 35.614 141.23 35.756C141.23 35.898 141.194 36.0377 141.127 36.1625C141.059 36.2873 140.961 36.3932 140.843 36.4707L139.081 37.5198L138.758 33.6348Z" fill="#FCD4D0"/>
<path opacity="0.31" d="M135.523 41.9586C134.31 41.8313 133.161 41.3503 132.218 40.5752C132.218 40.5752 131.999 43.757 135.88 46.3394L135.523 41.9586Z" fill="#CE8172"/>
<path d="M136.72 54.4088L127.29 52.9908C127.29 52.9908 79.2158 39.4219 72.2149 68.3005C65.214 97.1792 66.0315 116.247 66.0315 116.247L98.4684 132.064C98.4684 132.064 187.765 95.6459 136.72 54.4088Z" fill="#F7931A"/>
<path opacity="0.08" d="M115.787 72.4625C115.787 72.4625 121.014 85.5012 101.313 89.7551C81.611 94.0091 81.6225 107.255 94.5305 108.062C107.438 108.869 126.507 101.848 126.161 116.974C126.161 116.974 111.192 127.28 98.4685 132.099L66.0316 116.282V114.276L64.3619 86.0776L81.2195 69.8687L115.787 72.4625Z" fill="#23262F"/>
<path d="M117.686 64.0466C117.019 59.7201 114.694 55.8241 111.205 53.1854C107.716 50.5466 103.337 49.3727 98.9979 49.9128C86.6196 51.3193 67.9082 56.8298 59.1916 76.7163C45.6158 107.751 53.9409 127.118 118.711 108.016L116.961 100.741C116.961 100.741 73.205 105.975 75.8188 92.1874C78.0296 80.5553 120.53 84.8784 117.686 64.0466Z" fill="#F7931A"/>
<path opacity="0.46" d="M117.686 64.0466C117.019 59.7201 114.694 55.8241 111.205 53.1854C107.716 50.5466 103.337 49.3727 98.9979 49.9128C86.6196 51.3193 67.9082 56.8298 59.1916 76.7163C45.6158 107.751 53.9409 127.118 118.711 108.016L116.961 100.741C116.961 100.741 73.205 105.975 75.8188 92.1874C78.0296 80.5553 120.53 84.8784 117.686 64.0466Z" fill="white"/>
<path d="M116.95 100.741C116.95 100.741 122.983 94.8044 127.14 95.6805C131.297 96.5567 128.902 105.203 118.7 108.016L116.95 100.741Z" fill="#FCD4D0"/>
<path d="M66.0318 116.236C66.0318 116.236 128.925 124.156 126.173 139.938C123.421 155.721 73.5278 171.491 73.5278 171.491L69.5783 163.664L101.969 140.434C101.969 140.434 47.1822 153.45 66.0318 116.236Z" fill="#23262F"/>
<path d="M222.206 44.437C222.206 44.437 226.869 37.0012 226.57 34.6494C226.27 32.2976 223.633 35.1797 223.633 35.1797C223.633 35.1797 226.766 30.038 225.2 26.9023C223.634 23.7666 219.35 33.07 215.504 37.0819L222.206 44.437Z" fill="#FCD4D0"/>
</g>
<defs>
<clipPath id="clip0_37772_4918">
<rect width="270" height="184" fill="white"/>
</clipPath>
</defs>
</svg>
