<svg width="330" height="251" viewBox="0 0 330 251" fill="none" xmlns="http://www.w3.org/2000/svg">
<path d="M165 250.48C256.127 250.48 330 246.167 330 240.847C330 235.526 256.127 231.213 165 231.213C73.873 231.213 0 235.526 0 240.847C0 246.167 73.873 250.48 165 250.48Z" fill="#F5F5F5"/>
<path d="M93.1758 8.41364C93.3375 6.53294 101.439 -0.402696 109.898 4.43948C118.357 9.28166 112.238 23.9188 121.437 25.34C115.48 31.297 96.0777 38.573 90.1122 31.7395C84.1467 24.906 83.3808 5.76704 93.1758 8.41364Z" fill="#263238"/>
<path d="M127.25 55.6101C127.471 58.7588 127.803 62.0947 128.246 65.2774C128.642 68.4138 129.279 71.515 130.152 74.5533C130.254 74.9192 130.382 75.2682 130.501 75.6086L130.824 76.5106C130.891 76.7065 130.988 76.8905 131.113 77.0553C131.309 77.3446 132.441 77.6084 133.769 77.4382C136.801 76.9217 139.745 75.9731 142.508 74.6214L144.67 77.7956C143.982 78.4002 143.264 78.9683 142.517 79.4976C141.785 80.0252 141.036 80.5358 140.245 80.9954C138.603 82.0006 136.834 82.7819 134.986 83.3186C133.916 83.6178 132.812 83.7779 131.701 83.7952C130.323 83.8055 128.963 83.4751 127.744 82.8335C126.426 82.111 125.344 81.0236 124.629 79.7019L124.399 79.2508L124.254 78.9274L123.957 78.2637C123.752 77.8297 123.557 77.4127 123.403 76.9531C122.131 73.5619 121.199 70.0527 120.621 66.4773C120.027 63.0041 119.654 59.4966 119.506 55.976L127.25 55.6101Z" fill="#FFC3BD"/>
<path d="M123.088 47.1512C129.99 52.4274 129.709 62.3841 129.709 62.3841L117.344 65.3371C117.344 65.3371 113.557 55.3293 115.097 51.6615C116.723 47.8405 119.208 44.1727 123.088 47.1512Z" fill="#256BFD"/>
<path d="M141.836 75.3617L146.372 70.8174L148.814 77.9232C148.814 77.9232 144.985 79.9911 141.317 78.0338L141.836 75.3617Z" fill="#FFC3BD"/>
<path d="M152.652 70.1196L153.486 75.7277L148.814 77.9148L146.372 70.8175L152.652 70.1196Z" fill="#FFC3BD"/>
<path d="M83.1001 234.941L90.0442 235.613L97.2692 219.095L90.3251 218.415L83.1001 234.941Z" fill="#FFC3BD"/>
<path d="M38.3972 210.517L43.6053 215.41L54.864 203.045L49.6474 198.144L38.3972 210.517Z" fill="#FFC3BD"/>
<path d="M46.0136 213.062L42.099 206.007C42.0335 205.885 41.9257 205.79 41.7956 205.742C41.6656 205.693 41.5223 205.694 41.3926 205.743L35.3591 208.041C35.2098 208.104 35.0754 208.198 34.9647 208.316C34.8541 208.435 34.7695 208.575 34.7165 208.729C34.6636 208.882 34.6434 209.044 34.6574 209.206C34.6713 209.368 34.719 209.524 34.7974 209.666C36.2101 212.1 37.01 213.206 38.7375 216.313C39.7928 218.219 41.8607 222.601 43.3244 225.239C44.7881 227.878 47.4688 226.567 47.0943 225.342C45.3923 219.827 45.7412 216.764 46.2433 214.33C46.3207 213.893 46.2392 213.443 46.0136 213.062Z" fill="#263238"/>
<path d="M90.9634 233.469H82.4534C82.2998 233.469 82.1507 233.52 82.0292 233.614C81.9076 233.708 81.8204 233.839 81.7811 233.988L79.9004 240.736C79.855 240.895 79.8476 241.062 79.8788 241.225C79.91 241.387 79.9789 241.54 80.0799 241.671C80.1809 241.801 80.3112 241.907 80.4604 241.978C80.6096 242.049 80.7734 242.084 80.9386 242.081C83.9426 242.081 85.3638 242.081 89.1167 242.081H100.571C103.686 242.081 104.341 238.932 103.048 238.677C97.2693 237.4 93.9418 235.639 92.1547 233.954C91.8325 233.648 91.4073 233.475 90.9634 233.469Z" fill="#263238"/>
<path opacity="0.2" d="M97.2606 219.104L93.5418 227.614H86.2998L90.3165 218.423L97.2606 219.104Z" fill="black"/>
<path opacity="0.2" d="M49.6473 198.152L54.8554 203.045L49.0516 209.419L43.8435 204.526L49.6473 198.152Z" fill="black"/>
<path d="M121.003 46.1215C121.003 46.1215 124.152 47.4661 113.659 88.9097L84.5892 86.3992C86.104 74.6044 86.7423 67.3114 83.1936 42.5388C87.3359 42.0493 91.5082 41.8615 95.6777 41.9772C100.099 42.0457 104.509 42.4268 108.877 43.1175C112.967 43.915 117.014 44.9176 121.003 46.1215Z" fill="#256BFD"/>
<path d="M100.877 56.6738C100.853 56.6823 100.826 56.6823 100.801 56.6738C94.512 51.4998 90.5889 43.5174 91.8484 41.6367C91.8644 41.6098 91.8903 41.5903 91.9205 41.5823C91.9508 41.5743 91.983 41.5786 92.0101 41.5941C92.0376 41.6117 92.0573 41.6391 92.0652 41.6708C92.0732 41.7024 92.0687 41.7359 92.0527 41.7643C90.9123 43.5259 94.8099 51.3636 100.818 56.3675C102.333 51.7976 104.911 49.968 104.937 49.9509C104.964 49.939 104.994 49.9367 105.022 49.9445C105.051 49.9523 105.076 49.9698 105.093 49.9938C105.11 50.0179 105.118 50.0471 105.116 50.0765C105.114 50.1059 105.102 50.1337 105.081 50.1552C105.081 50.1552 102.477 52.0018 100.988 56.6143C100.982 56.6322 100.972 56.6484 100.959 56.6618C100.946 56.6751 100.929 56.685 100.912 56.6908L100.877 56.6738Z" fill="white"/>
<path d="M110.936 56.9546C110.915 56.9502 110.896 56.9398 110.881 56.9247C110.866 56.9096 110.856 56.8904 110.851 56.8696C109.532 52.121 106.903 50.2318 106.877 50.2147C106.858 50.1906 106.847 50.1606 106.847 50.1297C106.847 50.0987 106.858 50.0687 106.877 50.0445C106.9 50.0236 106.931 50.012 106.962 50.012C106.994 50.012 107.024 50.0236 107.047 50.0445C107.047 50.0445 109.694 51.9423 111.055 56.6143C114.213 52.7422 112.417 45.3811 111.192 43.4919C111.176 43.4634 111.171 43.4299 111.179 43.3983C111.187 43.3666 111.207 43.3392 111.234 43.3217C111.256 43.3013 111.285 43.29 111.315 43.29C111.345 43.29 111.374 43.3013 111.396 43.3217C112.664 45.2875 114.528 52.9975 111.089 56.9376C111.069 56.9556 111.043 56.9669 111.016 56.9699C110.988 56.9729 110.961 56.9676 110.936 56.9546Z" fill="white"/>
<path d="M98.2733 27.2292C98.7328 31.5438 98.8945 39.3985 95.6777 41.977C98.8038 44.8763 102.294 47.3565 106.06 49.3552C111.115 45.8661 108.877 43.1174 108.877 43.1174C104.239 41.5771 104.622 38.0795 105.779 34.8457L98.2733 27.2292Z" fill="#FFC3BD"/>
<path opacity="0.2" d="M101.328 30.3354L105.771 34.8457C105.502 35.5953 105.3 36.367 105.166 37.152C103.379 36.735 100.792 34.8798 100.758 32.965C100.796 32.0623 100.989 31.1728 101.328 30.3354Z" fill="black"/>
<path d="M94.4694 20.4809C96.2735 27.3825 96.8862 30.3354 101.116 33.2458C107.481 37.5944 115.583 33.8756 115.863 26.574C116.127 20.0043 113.14 9.82639 105.754 8.3882C104.129 8.0649 102.448 8.16193 100.872 8.6701C99.2948 9.17827 97.874 10.0807 96.7438 11.2919C95.6135 12.5031 94.8114 13.983 94.4133 15.5911C94.0153 17.1992 94.0346 18.8823 94.4694 20.4809Z" fill="#FFC3BD"/>
<path d="M96.4352 25.6463C98.7755 29.0503 104.877 8.77105 96.9714 9.4093C89.0656 10.0475 90.0187 18.6341 96.4352 25.6463Z" fill="#263238"/>
<path d="M97.482 10.5668C102.052 12.89 115.353 15.6727 113.532 11.9709C112.538 10.1138 111.058 8.56188 109.25 7.48111C107.443 6.40033 105.375 5.83141 103.269 5.83522C98.9287 5.76714 93.4482 8.52437 97.482 10.5668Z" fill="#263238"/>
<path d="M93.8992 26.327C94.2164 26.9335 94.6503 27.4713 95.1761 27.9095C95.7019 28.3476 96.3091 28.6775 96.9628 28.88C98.7159 29.4077 99.6265 27.8503 99.1669 26.1824C98.7584 24.6761 97.3543 22.5912 95.5842 22.7784C95.1971 22.8296 94.8289 22.9768 94.5133 23.2067C94.1976 23.4366 93.9445 23.7419 93.777 24.0946C93.6095 24.4474 93.5329 24.8365 93.5543 25.2264C93.5756 25.6163 93.6942 25.9947 93.8992 26.327Z" fill="#FFC3BD"/>
<path d="M113.659 88.9094C113.659 88.9094 123.497 132.421 116.936 163.099C112.536 183.643 96.6735 225.146 96.6735 225.146L84.2744 224.831C84.2744 224.831 96.282 181.277 98.7414 164.146C102.996 134.846 92.3589 87.0713 92.3589 87.0713L113.659 88.9094Z" fill="#263238"/>
<path opacity="0.2" d="M102.316 97.6748L96.1204 107.461C97.9887 119.057 99.1737 130.753 99.669 142.488C108.383 126.89 104.256 105.964 102.316 97.6748Z" fill="black"/>
<path d="M98.4181 225.793L83.1001 225.401L83.9936 220.695L99.618 221.435L98.4181 225.793Z" fill="#256BFD"/>
<path d="M107.303 88.4499C107.303 88.4499 101.533 134.591 89.0231 159.781C78.9218 180.136 51.9622 209.096 51.9622 209.096L45.0691 201.999C45.0691 201.999 63.2804 170.512 70.7862 156.998C89.2018 123.86 74.1902 98.5683 84.5894 86.365L107.303 88.4499Z" fill="#263238"/>
<path d="M52.6598 210.049L43.7668 201.378L46.7198 197.361L56.1489 206.781L52.6598 210.049Z" fill="#256BFD"/>
<path d="M84.3 84.6546L82.7682 87.1396C82.6491 87.3353 82.8704 87.5565 83.2022 87.5906L113.693 90.2287C113.957 90.2287 114.187 90.1351 114.213 89.9734L114.698 87.4204C114.698 87.2417 114.519 87.0715 114.238 87.0459L84.7936 84.493C84.7044 84.4759 84.6123 84.4818 84.5259 84.51C84.4396 84.5383 84.3619 84.5881 84.3 84.6546Z" fill="#256BFD"/>
<path opacity="0.3" d="M84.3 84.6546L82.7682 87.1396C82.6491 87.3353 82.8704 87.5565 83.2022 87.5906L113.693 90.2287C113.957 90.2287 114.187 90.1351 114.213 89.9734L114.698 87.4204C114.698 87.2417 114.519 87.0715 114.238 87.0459L84.7936 84.493C84.7044 84.4759 84.6123 84.4818 84.5259 84.51C84.4396 84.5383 84.3619 84.5881 84.3 84.6546Z" fill="black"/>
<path d="M87.9677 88.3138L87.1848 88.2457C87.0231 88.2457 86.9124 88.1351 86.9295 88.0415L87.5932 84.6886C87.5932 84.595 87.7549 84.5269 87.9166 84.5354L88.6995 84.6035C88.8612 84.6035 88.9719 84.7141 88.9548 84.8077L88.2911 88.1606C88.274 88.2287 88.1294 88.3138 87.9677 88.3138Z" fill="#263238"/>
<path d="M111.455 90.3138L110.664 90.2457C110.511 90.2457 110.392 90.1436 110.417 90.0415L111.072 86.6971C111.072 86.5949 111.242 86.5268 111.396 86.5439L112.187 86.6119C112.34 86.6119 112.451 86.7141 112.434 86.8162L111.77 90.1606C111.753 90.2627 111.608 90.3308 111.455 90.3138Z" fill="#263238"/>
<path d="M99.7116 89.3011L98.9202 89.233C98.767 89.233 98.6563 89.1309 98.6734 89.0288L99.3371 85.6844C99.3371 85.5822 99.4988 85.5142 99.652 85.5312L100.443 85.5993C100.605 85.5993 100.716 85.7014 100.699 85.795L100.035 89.1479C100.005 89.205 99.9572 89.2509 99.8988 89.2785C99.8405 89.3061 99.7748 89.314 99.7116 89.3011Z" fill="#263238"/>
<path d="M106.154 20.234C106.264 20.8041 106.656 21.2041 107.005 21.1275C107.354 21.0509 107.592 20.5403 107.481 19.9701C107.371 19.4 106.979 19 106.63 19.0681C106.281 19.1362 106.034 19.6723 106.154 20.234Z" fill="#263238"/>
<path d="M112.579 18.9746C112.689 19.5448 113.081 19.9533 113.43 19.8767C113.778 19.8001 114.008 19.281 113.898 18.7108C113.787 18.1406 113.395 17.7407 113.047 17.8173C112.698 17.8938 112.468 18.413 112.579 18.9746Z" fill="#263238"/>
<path d="M112.894 17.8767L114.179 17.2214C114.179 17.2214 113.685 18.4213 112.894 17.8767Z" fill="#263238"/>
<path d="M110.366 20.3958C111.123 21.5948 112.039 22.6856 113.089 23.6381C112.84 23.9004 112.536 24.1056 112.2 24.2393C111.863 24.373 111.502 24.4321 111.14 24.4125L110.366 20.3958Z" fill="#ED847E"/>
<path d="M108.528 27.1186C107.33 27.1343 106.17 26.6931 105.286 25.8846C105.259 25.8575 105.243 25.8208 105.243 25.7825C105.243 25.7443 105.259 25.7075 105.286 25.6804C105.298 25.6673 105.314 25.6568 105.33 25.6497C105.347 25.6426 105.365 25.6389 105.383 25.6389C105.402 25.6389 105.42 25.6426 105.437 25.6497C105.453 25.6568 105.469 25.6673 105.481 25.6804C106.027 26.1582 106.676 26.5017 107.378 26.6834C108.08 26.8652 108.815 26.8802 109.524 26.7271C109.561 26.7195 109.599 26.7269 109.631 26.7476C109.663 26.7683 109.686 26.8007 109.694 26.8378C109.697 26.8557 109.697 26.8741 109.694 26.8921C109.69 26.91 109.683 26.927 109.673 26.9421C109.662 26.9572 109.649 26.97 109.634 26.9799C109.618 26.9898 109.601 26.9964 109.583 26.9995C109.236 27.0743 108.883 27.1142 108.528 27.1186Z" fill="#263238"/>
<path d="M102.29 18.0384C102.243 18.0506 102.193 18.0506 102.145 18.0384C102.113 18.0192 102.085 17.9937 102.063 17.9635C102.041 17.9333 102.025 17.8989 102.016 17.8624C102.007 17.8259 102.006 17.788 102.012 17.751C102.018 17.714 102.032 17.6786 102.052 17.6469C102.313 17.1864 102.681 16.7958 103.126 16.5083C103.57 16.2209 104.078 16.0451 104.605 15.996C104.642 15.9948 104.678 16.001 104.713 16.0141C104.747 16.0271 104.779 16.0469 104.806 16.0722C104.833 16.0975 104.854 16.1278 104.87 16.1615C104.885 16.1951 104.893 16.2314 104.894 16.2683C104.895 16.3052 104.889 16.3419 104.876 16.3764C104.863 16.4109 104.843 16.4425 104.818 16.4694C104.793 16.4963 104.762 16.5179 104.729 16.533C104.695 16.5482 104.659 16.5565 104.622 16.5576C104.186 16.6046 103.768 16.755 103.403 16.9963C103.037 17.2376 102.734 17.5628 102.52 17.9448C102.491 17.9769 102.456 18.0021 102.416 18.0183C102.376 18.0346 102.333 18.0414 102.29 18.0384Z" fill="#263238"/>
<path d="M114.366 15.7579C114.318 15.7698 114.269 15.7698 114.221 15.7579C113.847 15.5331 113.425 15.4012 112.99 15.373C112.555 15.3449 112.119 15.4214 111.719 15.5962C111.652 15.6297 111.575 15.6359 111.504 15.6137C111.432 15.5915 111.372 15.5425 111.336 15.477C111.319 15.4442 111.308 15.4081 111.304 15.3709C111.3 15.3337 111.304 15.2962 111.315 15.2605C111.327 15.2249 111.345 15.1918 111.369 15.1632C111.393 15.1346 111.422 15.1111 111.455 15.0941C111.939 14.8753 112.469 14.7765 113 14.8062C113.53 14.8358 114.045 14.993 114.502 15.2643C114.534 15.2821 114.563 15.3061 114.586 15.335C114.61 15.3639 114.627 15.3971 114.637 15.4327C114.647 15.4683 114.65 15.5056 114.646 15.5424C114.642 15.5792 114.631 15.6149 114.613 15.6472C114.584 15.6844 114.546 15.7139 114.503 15.7332C114.46 15.7524 114.413 15.7609 114.366 15.7579Z" fill="#263238"/>
<path d="M87.3381 53.423C86.1977 55.3122 84.9893 57.2525 83.8575 59.1928C82.7257 61.133 81.5598 63.0563 80.4535 65.0051C79.3472 66.9539 78.3175 68.9026 77.441 70.8429C77.2027 71.328 77.0155 71.8045 76.7942 72.2811C76.573 72.7577 76.4368 73.2087 76.2581 73.6767C76.1768 73.8887 76.1169 74.1082 76.0794 74.332C76.0794 74.4426 76.0794 74.4086 76.0283 74.3916C75.9772 74.3746 76.173 74.715 76.8793 75.0128C77.7006 75.3394 78.5575 75.5679 79.4323 75.6936C81.5284 75.9962 83.6467 76.1187 85.7637 76.0595C90.2371 75.9383 94.7004 75.569 99.1329 74.9532L99.9839 78.6891C95.4625 80.1063 90.8229 81.1145 86.1211 81.7016C83.6526 82.0211 81.1592 82.1038 78.6749 81.9484C77.2646 81.8571 75.8718 81.5854 74.5306 81.14C73.7114 80.8615 72.933 80.4752 72.2158 79.9911C71.2865 79.3792 70.5212 78.5488 69.9871 77.5726C69.4531 76.5965 69.1664 75.5042 69.1522 74.3916C69.1415 73.4675 69.2677 72.547 69.5267 71.6599C69.7139 71.0386 69.8926 70.3919 70.0968 69.7962C70.3011 69.2005 70.5053 68.6048 70.7351 68.0261C71.6372 65.7284 72.6328 63.5669 73.7136 61.4564C74.7944 59.3459 75.9092 57.278 77.0665 55.2441C78.2239 53.2102 79.4323 51.2274 80.7684 49.2361L87.3381 53.423Z" fill="#FFC3BD"/>
<path d="M97.3969 75.8212L103.073 72.8171L103.286 79.1401C103.286 79.1401 99.3202 80.5697 96.9714 78.7316L97.3969 75.8212Z" fill="#FFC3BD"/>
<path d="M106.528 73.2682L105.677 78.8677L103.286 79.1401L103.064 72.8171L106.528 73.2682Z" fill="#FFC3BD"/>
<path d="M83.1936 42.5386C79.6279 43.2109 74.6326 53.4229 74.6326 53.4229L85.6955 62.9966C85.6955 62.9966 90.759 53.7548 90.3845 49.1083C90.0612 45.1342 87.7294 41.7387 83.1936 42.5386Z" fill="#256BFD"/>
<path d="M47.3922 216.857C47.2971 216.855 47.2027 216.841 47.1114 216.815C46.2604 216.525 45.6987 214.942 45.4094 214.032C45.3951 214.009 45.3875 213.982 45.3875 213.955C45.3875 213.928 45.3951 213.902 45.4094 213.879C45.434 213.864 45.4619 213.857 45.4902 213.857C45.5186 213.857 45.5465 213.864 45.5711 213.879C45.8264 214.015 48.1241 215.232 48.1751 216.125C48.1861 216.223 48.1696 216.321 48.1275 216.41C48.0854 216.499 48.0194 216.574 47.9369 216.627C47.7825 216.757 47.5927 216.837 47.3922 216.857ZM45.8094 214.304C46.2093 215.572 46.7199 216.406 47.205 216.568C47.3148 216.601 47.4313 216.605 47.5432 216.58C47.655 216.554 47.7584 216.5 47.8432 216.423C47.8868 216.397 47.9219 216.359 47.9446 216.314C47.9672 216.269 47.9763 216.218 47.9709 216.168C47.9283 215.589 46.5923 214.721 45.8094 214.262V214.304Z" fill="#256BFD"/>
<path d="M47.741 214.636C46.9655 214.633 46.2005 214.456 45.5029 214.117C45.4819 214.103 45.4647 214.084 45.4528 214.062C45.441 214.039 45.4348 214.014 45.4348 213.989C45.4363 213.964 45.4441 213.94 45.4575 213.92C45.4709 213.899 45.4895 213.882 45.5114 213.87C45.588 213.827 47.3921 212.832 48.3622 213.181C48.4819 213.22 48.5912 213.286 48.6825 213.372C48.7737 213.459 48.8446 213.565 48.8899 213.683C48.9505 213.796 48.971 213.927 48.9478 214.054C48.9246 214.181 48.8592 214.296 48.7622 214.381C48.4601 214.578 48.1004 214.668 47.741 214.636ZM45.8858 213.989C46.6603 214.321 48.158 214.525 48.5835 214.168C48.6516 214.108 48.7197 214.006 48.5835 213.793C48.5522 213.713 48.5042 213.64 48.4425 213.58C48.3809 213.52 48.3071 213.474 48.2261 213.445C47.6049 213.215 46.405 213.742 45.8603 213.989H45.8858Z" fill="#256BFD"/>
<path d="M94.7502 234.847C93.9651 234.83 93.1838 234.733 92.4184 234.558C92.3895 234.55 92.3636 234.533 92.3439 234.511C92.3242 234.488 92.3117 234.46 92.3078 234.43C92.3064 234.4 92.3136 234.371 92.3288 234.345C92.3439 234.319 92.3662 234.299 92.3929 234.285C92.7418 234.124 95.7969 232.694 96.6479 233.222C96.7193 233.27 96.7761 233.336 96.8121 233.414C96.8482 233.492 96.862 233.579 96.8521 233.664C96.8456 233.82 96.804 233.972 96.7303 234.109C96.6566 234.246 96.5527 234.365 96.4266 234.456C95.9239 234.762 95.3364 234.899 94.7502 234.847ZM92.9035 234.362C93.8226 234.541 95.5246 234.762 96.2224 234.234C96.3165 234.168 96.3934 234.08 96.4467 233.978C96.5 233.876 96.5281 233.762 96.5287 233.647C96.5287 233.528 96.5287 233.486 96.4521 233.46C96.0181 233.162 94.1885 233.834 92.9035 234.362Z" fill="#256BFD"/>
<path d="M92.4526 234.558C92.4225 234.57 92.3891 234.57 92.359 234.558C92.3451 234.538 92.3376 234.514 92.3376 234.49C92.3376 234.465 92.3451 234.442 92.359 234.422C92.359 234.294 93.0909 231.239 94.7673 231.435C95.1843 231.486 95.3035 231.69 95.3205 231.86C95.4311 232.634 93.4823 234.2 92.5462 234.583L92.4526 234.558ZM94.5716 231.673C93.4993 231.673 92.8696 233.451 92.6654 234.158C93.6781 233.63 95.0652 232.362 94.9971 231.86C94.9971 231.86 94.9971 231.715 94.6907 231.681L94.5716 231.673Z" fill="#256BFD"/>
<path d="M106.46 19.1447L107.753 18.481C107.753 18.481 107.26 19.6894 106.46 19.1447Z" fill="#263238"/>
<path d="M255.742 46.7593C255.699 47.3465 255.648 47.7635 255.589 48.2486C255.529 48.7337 255.461 49.1677 255.385 49.6187C255.231 50.5293 255.053 51.4228 254.857 52.3164C254.459 54.0968 253.967 55.8552 253.385 57.584C252.197 61.0783 250.585 64.4136 248.585 67.5152L247.802 68.6725L247.606 68.9534L247.487 69.1236L247.309 69.3618C247.049 69.6688 246.765 69.9535 246.458 70.2128C245.457 71.1123 244.263 71.7702 242.969 72.1361C240.982 72.6705 238.916 72.8519 236.867 72.6722C233.247 72.3733 229.688 71.5595 226.297 70.2554L227.217 66.5876C230.417 66.9145 233.639 66.98 236.85 66.7833C238.208 66.7062 239.546 66.4191 240.816 65.9323C241.145 65.7962 241.437 65.5832 241.667 65.3111C241.573 65.4387 242.143 64.4601 242.518 63.8474C244.006 61.0992 245.207 58.2047 246.1 55.2098C246.56 53.695 246.951 52.1632 247.292 50.6314C247.462 49.857 247.615 49.0826 247.751 48.3167L247.93 47.1678L248.083 46.1211L255.742 46.7593Z" fill="#B55B52"/>
<path d="M257.512 41.7641C257.699 46.5297 255.853 55.1248 255.853 55.1248L244.058 53.6951C244.058 53.6951 243.624 41.1174 245.913 38.0793C249.751 32.9988 257.342 37.2538 257.512 41.7641Z" fill="#263238"/>
<path d="M228.825 67.0898L221.762 64.5793L223.234 69.8726C223.234 69.8726 226.536 71.8043 228.425 69.6087L228.825 67.0898Z" fill="#B55B52"/>
<path d="M219.336 65.9324L218.366 69.6683L223.242 69.8726L221.77 64.5793L219.336 65.9324Z" fill="#B55B52"/>
<path d="M186.164 90.6624C191.08 90.7369 195.962 89.833 200.525 88.0033C205.088 86.1736 209.242 83.4547 212.745 80.0047C216.247 76.5547 219.029 72.4425 220.928 67.9075C222.826 63.3725 223.804 58.5051 223.804 53.5887C223.804 48.6723 222.826 43.805 220.928 39.2699C219.029 34.7349 216.247 30.6228 212.745 27.1728C209.242 23.7228 205.088 21.0038 200.525 19.1741C195.962 17.3444 191.08 16.4405 186.164 16.515H181.356V90.6624H186.164Z" fill="#256BFD"/>
<path d="M181.356 90.6623C201.834 90.6623 218.434 74.0619 218.434 53.5843C218.434 33.1067 201.834 16.5063 181.356 16.5063C160.879 16.5063 144.278 33.1067 144.278 53.5843C144.278 74.0619 160.879 90.6623 181.356 90.6623Z" fill="#256BFD"/>
<path opacity="0.4" d="M181.356 90.6623C201.834 90.6623 218.434 74.0619 218.434 53.5843C218.434 33.1067 201.834 16.5063 181.356 16.5063C160.879 16.5063 144.278 33.1067 144.278 53.5843C144.278 74.0619 160.879 90.6623 181.356 90.6623Z" fill="black"/>
<path opacity="0.2" d="M204.603 76.8358C217.441 63.9977 217.441 43.183 204.603 30.3449C191.765 17.5067 170.95 17.5067 158.112 30.3449C145.274 43.183 145.274 63.9977 158.112 76.8358C170.95 89.6739 191.765 89.6739 204.603 76.8358Z" fill="#256BFD"/>
<path d="M198.257 55.7035C196.718 53.9765 194.645 52.8142 192.368 52.4016C193.895 51.9347 195.273 51.0783 196.368 49.9167C197.734 48.3557 198.465 46.3398 198.419 44.2661C198.443 43.0269 198.198 41.7972 197.702 40.6616C197.205 39.526 196.469 38.5114 195.542 37.6878C193.63 35.9121 190.885 35.0242 187.305 35.0242H185.101V28.7949H180.939V35.0242H175.782V28.7949H171.621V35.0242H162.575V42.5471H165.851V64.6304H162.6V72.1448H171.646V78.3741H175.808V72.1448H180.965V78.3741H185.126V72.1448H185.654C187.363 72.0629 189.068 71.8924 190.76 71.6342C192.277 71.5169 193.759 71.1126 195.125 70.4428C196.653 69.5772 197.922 68.3199 198.802 66.8005C199.704 65.2212 200.166 63.4283 200.138 61.6094C200.224 59.4809 199.559 57.3899 198.257 55.7035ZM177.399 42.5471H182.463C184.207 42.5471 185.424 42.8534 186.122 43.4576C186.479 43.7761 186.759 44.1712 186.942 44.6133C187.124 45.0554 187.205 45.5331 187.177 46.0106C187.207 46.506 187.127 47.0019 186.945 47.4635C186.763 47.925 186.482 48.3412 186.122 48.6827C185.424 49.2955 184.182 49.6018 182.394 49.6018H177.399V42.5471ZM187.432 63.1242C186.581 63.822 185.228 64.1709 183.254 64.1709H177.399V56.6566H183.228C185.237 56.6566 186.641 56.9885 187.441 57.6523C187.833 57.9705 188.145 58.375 188.355 58.8341C188.565 59.2932 188.665 59.7945 188.649 60.2989C188.671 60.8309 188.574 61.3612 188.363 61.8503C188.152 62.3393 187.834 62.7747 187.432 63.1242Z" fill="white"/>
<path d="M222.17 17.3235C222.17 17.8766 221.855 18.3276 221.498 18.3362C221.14 18.3447 220.842 17.8936 220.851 17.349C220.86 16.8044 221.157 16.3448 221.523 16.3363C221.889 16.3278 222.179 16.7788 222.17 17.3235Z" fill="#263238"/>
<path d="M221.685 16.3702L220.315 15.9788C220.315 15.9788 221.021 17.0255 221.685 16.3702Z" fill="#263238"/>
<path d="M221.694 17.8682C221.179 19.1373 220.495 20.331 219.66 21.4168C219.945 21.6125 220.269 21.7441 220.61 21.8029C220.95 21.8617 221.3 21.8461 221.634 21.7572L221.694 17.8682Z" fill="#A02724"/>
<path d="M221.472 13.6641C221.523 13.6767 221.575 13.6767 221.625 13.6641C222.017 13.5233 222.436 13.4753 222.85 13.5241C223.263 13.5728 223.66 13.7169 224.008 13.9449C224.077 13.9969 224.164 14.0193 224.249 14.0073C224.291 14.0014 224.332 13.9872 224.369 13.9656C224.406 13.9439 224.438 13.9152 224.464 13.8811C224.489 13.847 224.508 13.8082 224.519 13.7669C224.529 13.7256 224.532 13.6825 224.526 13.6403C224.52 13.598 224.506 13.5573 224.484 13.5205C224.462 13.4837 224.434 13.4515 224.4 13.4258C223.965 13.1399 223.47 12.9575 222.954 12.8926C222.438 12.8276 221.913 12.882 221.421 13.0514C221.38 13.0639 221.342 13.0845 221.31 13.1121C221.277 13.1396 221.25 13.1736 221.231 13.2118C221.212 13.25 221.201 13.2917 221.199 13.3343C221.196 13.377 221.202 13.4197 221.217 13.4599C221.238 13.5135 221.272 13.5607 221.317 13.5966C221.362 13.6325 221.415 13.6558 221.472 13.6641Z" fill="#263238"/>
<path d="M238.484 23.2039C238.118 27.3482 239.505 34.1307 242.637 36.4369C242.637 36.4369 240.279 40.794 232.731 41.8067C224.425 42.9215 228.323 38.2495 228.323 38.2495C232.739 36.5475 232.271 33.2541 231.148 30.2246L238.484 23.2039Z" fill="#B55B52"/>
<path d="M223.396 46.6657C222.494 50.9793 221.357 55.2406 219.992 59.4306C218.657 63.6508 217.06 67.7834 215.209 71.8041L214.86 72.57C214.715 72.8679 214.528 73.2168 214.358 73.5317C214.024 74.1207 213.654 74.6891 213.252 75.2337C212.513 76.204 211.708 77.1224 210.843 77.9824C209.224 79.5825 207.501 81.0749 205.686 82.4501C202.171 85.1139 198.452 87.4984 194.564 89.5815L192.479 86.4158C195.704 83.7266 198.929 80.9183 201.908 78.0419C203.377 76.6463 204.769 75.1719 206.078 73.6253C206.676 72.9128 207.227 72.1624 207.729 71.3786C207.943 71.0376 208.139 70.6854 208.316 70.3234L208.52 69.8383L208.801 69.115C209.55 67.1917 210.214 65.2174 210.886 63.2431C211.558 61.2688 212.145 59.2604 212.733 57.2861C213.881 53.2694 214.962 49.1421 215.907 45.1509L223.396 46.6657Z" fill="#B55B52"/>
<path d="M194.947 89.2838L191.032 91.8368L189.092 88.5094C189.092 88.5094 192.938 83.914 195.262 87.1818L194.947 89.2838Z" fill="#B55B52"/>
<path d="M193.934 85.8543L191.721 85.5225L189.237 86.0501L188.598 86.7734L190.215 87.0117L190.641 87.65L191.185 87.9989L193.934 85.8543Z" fill="#B55B52"/>
<path d="M187.143 92.1686L184.99 90.4326L189.092 88.5264L191.032 91.8538L187.143 92.1686Z" fill="#B55B52"/>
<path d="M250.747 233.332L243.879 233.843L241.837 218.074L248.704 217.563L250.747 233.332Z" fill="#B55B52"/>
<path d="M294.718 213.3L288.769 216.917L278.881 204.56L284.829 200.943L294.718 213.3Z" fill="#B55B52"/>
<path d="M286.991 215.589L292.633 210.159C292.726 210.064 292.851 210.005 292.985 209.996C293.118 209.987 293.25 210.027 293.356 210.108L298.164 213.819C298.28 213.922 298.373 214.048 298.437 214.19C298.501 214.331 298.533 214.485 298.533 214.64C298.533 214.795 298.501 214.949 298.437 215.09C298.373 215.232 298.28 215.358 298.164 215.461C296.164 217.325 295.109 218.125 292.624 220.516C291.101 221.988 289.016 224.286 286.905 226.32C284.795 228.354 282.744 226.43 283.442 225.401C286.591 220.788 286.114 219.061 286.403 216.704C286.462 216.274 286.67 215.88 286.991 215.589Z" fill="#263238"/>
<path d="M243.454 232.864H251.172C251.305 232.862 251.434 232.909 251.536 232.995C251.638 233.081 251.705 233.201 251.725 233.332L252.763 239.434C252.785 239.586 252.774 239.741 252.731 239.889C252.688 240.037 252.613 240.174 252.512 240.29C252.411 240.406 252.286 240.499 252.146 240.563C252.006 240.627 251.854 240.66 251.7 240.659C249.002 240.659 247.7 240.455 244.305 240.455C242.22 240.455 237.905 240.668 235.02 240.668C232.135 240.668 231.914 237.817 233.105 237.562C238.458 236.404 240.543 234.804 242.313 233.307C242.628 233.028 243.033 232.871 243.454 232.864Z" fill="#263238"/>
<path opacity="0.2" d="M241.845 218.074L242.977 226.839L249.76 225.699L248.713 217.572L241.845 218.074Z" fill="black"/>
<path opacity="0.2" d="M284.829 200.943L278.881 204.569L282.974 209.675L289.05 206.211L284.829 200.943Z" fill="black"/>
<path d="M254.21 77.8122L226.4 81.5481C215.626 42.5384 218.809 41.4831 218.809 41.4831C220.89 40.5013 223.03 39.6487 225.217 38.9302L225.6 38.811C227.395 38.2749 227.77 38.1983 230.161 37.6537C234.271 36.9303 238.084 36.3686 242.79 35.9517L243.641 35.8836C244.492 35.824 245.343 35.7815 246.194 35.7559C246.747 35.7559 247.292 35.7559 247.811 35.7134H250.525C251.057 35.7257 251.581 35.8482 252.063 36.0733C252.546 36.2984 252.976 36.6211 253.327 37.021C253.678 37.4209 253.943 37.8894 254.103 38.3967C254.264 38.904 254.318 39.4392 254.261 39.9684C251.895 60.571 252.653 67.3109 254.21 77.8122Z" fill="#263238"/>
<path opacity="0.2" d="M223.719 53.4226C224.273 57.4566 223.756 61.5653 222.221 65.3366C220.366 57.7287 219.37 52.5716 218.868 48.9974C220.962 48.9038 223.174 49.7208 223.719 53.4226Z" fill="black"/>
<path d="M219.047 41.3726C214.29 44.0958 210.979 50.5889 209.984 54.3588L220.119 63.6347C220.119 63.6347 226.672 51.0229 224.961 47.6104C223.174 44.0617 220.851 40.3429 219.047 41.3726Z" fill="#263238"/>
<path d="M240.832 15.5533C240.313 22.3613 240.245 25.2036 236.739 28.7268C231.471 34.0285 223.183 32.1308 221.642 25.4164C220.264 19.3573 221.328 9.24743 228.067 6.50721C229.509 5.8631 231.094 5.60577 232.666 5.76058C234.237 5.91539 235.741 6.477 237.03 7.39007C238.318 8.30313 239.346 9.53613 240.013 10.9676C240.68 12.399 240.962 13.9795 240.832 15.5533Z" fill="#B55B52"/>
<path d="M226.8 18.285C227.497 15.8767 222.085 13.1365 221.506 9.44314C220.757 4.65202 224.468 0.77997 227.931 3.03512C229.336 -0.173147 238.867 -1.52622 244.1 2.44794C249.989 6.90717 242.773 11.6217 248.645 15.5703C253.325 18.719 253.963 20.6763 251.07 24.4462C248.874 27.3141 254.551 26.7014 253.112 31.5521C251.674 36.4028 222.315 38.1813 226.212 27.2971C229.676 17.6808 225.421 23.2038 226.8 18.285Z" fill="#263238"/>
<path d="M228.45 17.7488C228.409 19.0112 227.978 20.2298 227.216 21.2379C226.161 22.6675 224.927 22.2846 224.663 20.9655C224.391 19.7827 224.621 17.6126 225.957 16.6254C227.293 15.6383 228.442 16.3361 228.45 17.7488Z" fill="#B55B52"/>
<path d="M250.772 24.7015C250.746 24.7011 250.721 24.6923 250.701 24.6764C250.68 24.6605 250.666 24.6383 250.659 24.6133C250.652 24.5883 250.654 24.5618 250.663 24.5378C250.673 24.5137 250.69 24.4935 250.713 24.4802C252.559 23.4165 253.546 21.9272 253.504 20.3784C253.453 18.3871 251.802 16.3787 249.104 15.0086C245.887 13.3747 246.134 11.1621 246.381 9.05162C246.628 6.94114 246.875 4.67749 243.734 2.85635C243.707 2.8388 243.687 2.81196 243.677 2.78073C243.668 2.74949 243.67 2.71594 243.683 2.68616C243.701 2.65866 243.728 2.63892 243.76 2.63101C243.792 2.6231 243.825 2.6276 243.854 2.6436C247.138 4.54984 246.875 6.84753 246.619 9.07715C246.364 11.3068 246.143 13.2726 249.172 14.8299C251.955 16.234 253.648 18.319 253.708 20.4039C253.708 22.1059 252.721 23.6207 250.798 24.7185C250.788 24.7141 250.78 24.7084 250.772 24.7015Z" fill="#263238"/>
<path d="M233.744 80.561C233.744 80.561 244.543 126.192 249.589 152.411C254.908 180.068 280.455 208.883 280.455 208.883L289.127 204.049C289.127 204.049 273.051 177.753 267.852 151.926C257.265 99.5042 264.448 88.9519 254.236 77.8208L233.744 80.561Z" fill="#256BFD"/>
<path d="M279.596 209.691L290.42 203.658L288.837 200.458L276.694 206.049L279.596 209.691Z" fill="#263238"/>
<path opacity="0.2" d="M239.479 90.4752C247.879 97.7682 246.968 123.664 246.092 135.289C242.569 118.711 238.331 100.262 235.88 89.5816C236.731 88.9179 237.939 89.1646 239.479 90.4752Z" fill="black"/>
<path d="M284.625 218.738C284.707 218.751 284.79 218.751 284.872 218.738C285.723 218.738 286.735 217.41 287.246 216.627C287.263 216.6 287.271 216.569 287.271 216.538C287.271 216.506 287.263 216.475 287.246 216.449C287.229 216.42 287.203 216.398 287.172 216.386C287.141 216.374 287.108 216.372 287.076 216.38C286.803 216.431 284.344 216.951 284.021 217.768C283.985 217.857 283.973 217.955 283.986 218.05C284 218.146 284.038 218.236 284.097 218.312C284.219 218.51 284.405 218.661 284.625 218.738ZM286.744 216.806C286.029 217.827 285.34 218.431 284.863 218.44C284.761 218.44 284.661 218.413 284.573 218.363C284.485 218.312 284.412 218.239 284.361 218.151C284.334 218.118 284.316 218.079 284.309 218.037C284.301 217.995 284.305 217.952 284.319 217.912C284.497 217.478 285.765 217.044 286.744 216.814V216.806Z" fill="#256BFD"/>
<path d="M226.817 81.5651C226.817 81.5651 221.957 135.748 224.57 156.393C227.327 177.89 241.36 224.652 241.36 224.652L251.257 223.375C251.257 223.375 243.215 177.03 241.786 155.755C240.228 132.548 247.147 78.8164 247.147 78.8164L226.817 81.5651Z" fill="#256BFD"/>
<path d="M239.284 225.239L253.402 223.418L253.18 219.248L237.871 220.729L239.284 225.239Z" fill="#263238"/>
<path d="M284.991 216.61C285.695 216.801 286.432 216.839 287.152 216.721C287.181 216.713 287.207 216.698 287.228 216.677C287.249 216.656 287.264 216.63 287.271 216.601C287.277 216.574 287.277 216.546 287.269 216.52C287.262 216.493 287.248 216.468 287.229 216.448C287.169 216.389 285.825 215.002 284.829 215.044C284.701 215.046 284.574 215.076 284.459 215.134C284.344 215.191 284.244 215.274 284.165 215.376C284.072 215.466 284.012 215.585 283.997 215.714C283.981 215.843 284.011 215.973 284.08 216.082C284.315 216.356 284.636 216.542 284.991 216.61ZM286.769 216.457C285.918 216.55 284.608 216.304 284.353 215.912C284.31 215.844 284.276 215.75 284.412 215.58C284.464 215.515 284.53 215.462 284.605 215.425C284.68 215.388 284.763 215.368 284.846 215.368C285.585 215.522 286.257 215.903 286.769 216.457Z" fill="#256BFD"/>
<path d="M240.901 234.064C241.624 234.051 242.345 233.969 243.054 233.817C243.086 233.811 243.116 233.794 243.139 233.77C243.162 233.745 243.177 233.714 243.181 233.681C243.187 233.647 243.182 233.613 243.166 233.582C243.151 233.552 243.126 233.527 243.096 233.511C242.781 233.349 239.998 231.945 239.173 232.422C239.096 232.463 239.031 232.525 238.984 232.599C238.938 232.674 238.912 232.759 238.909 232.847C238.894 232.995 238.915 233.144 238.969 233.282C239.024 233.419 239.112 233.542 239.224 233.639C239.719 233.965 240.31 234.115 240.901 234.064ZM242.509 233.588C240.994 233.834 239.862 233.775 239.437 233.4C239.365 233.334 239.309 233.251 239.274 233.16C239.239 233.069 239.224 232.97 239.233 232.873C239.233 232.838 239.242 232.804 239.26 232.774C239.278 232.744 239.304 232.719 239.335 232.703C239.786 232.447 241.369 233.043 242.509 233.588Z" fill="#256BFD"/>
<path d="M243.02 233.834C243.053 233.842 243.088 233.842 243.122 233.834C243.144 233.816 243.161 233.792 243.171 233.765C243.182 233.739 243.185 233.71 243.181 233.681C243.181 233.562 242.858 230.754 241.318 230.754H241.181C240.739 230.796 240.611 231.017 240.586 231.205C240.458 231.979 242.117 233.468 242.96 233.843L243.02 233.834ZM241.318 231.052C242.313 231.052 242.705 232.685 242.824 233.383C241.973 232.873 240.841 231.681 240.909 231.239C240.909 231.196 240.909 231.086 241.224 231.06L241.318 231.052Z" fill="#256BFD"/>
<path d="M254.448 76.1359L255.963 78.4421C256.082 78.6208 255.878 78.8421 255.555 78.8846L226.391 82.7992C226.144 82.7992 225.923 82.7396 225.889 82.5865L225.378 80.1526C225.378 79.9824 225.54 79.8037 225.821 79.7697L253.972 75.9912C254.057 75.9726 254.146 75.9762 254.229 76.0015C254.312 76.0268 254.388 76.0731 254.448 76.1359Z" fill="#256BFD"/>
<path opacity="0.5" d="M254.448 76.1359L255.963 78.4421C256.082 78.6208 255.878 78.8421 255.555 78.8846L226.391 82.7992C226.144 82.7992 225.923 82.7396 225.889 82.5865L225.378 80.1526C225.378 79.9824 225.54 79.8037 225.821 79.7697L253.972 75.9912C254.057 75.9726 254.146 75.9762 254.229 76.0015C254.312 76.0268 254.388 76.0731 254.448 76.1359Z" fill="white"/>
<path d="M251.002 79.8036L251.759 79.7014C251.904 79.7014 252.015 79.5908 251.989 79.4972L251.3 76.3315C251.3 76.2464 251.138 76.1868 250.985 76.2038L250.236 76.306C250.083 76.306 249.972 76.4166 249.998 76.5102L250.687 79.6759C250.713 79.727 250.849 79.8036 251.002 79.8036Z" fill="#256BFD"/>
<path d="M231.956 82.3566L232.705 82.2545C232.859 82.2545 232.961 82.1439 232.944 82.0503L232.246 78.8846C232.246 78.7909 232.093 78.7314 231.939 78.7569L231.182 78.8505C231.037 78.8505 230.927 78.9697 230.952 79.0633L231.642 82.2205C231.667 82.3566 231.803 82.3566 231.956 82.3566Z" fill="#256BFD"/>
</svg>
