<svg width="330" height="293" viewBox="0 0 330 293" fill="none" xmlns="http://www.w3.org/2000/svg">
<path d="M170.921 263.445C258.778 263.445 330 259.287 330 254.157C330 249.028 258.778 244.87 170.921 244.87C83.0638 244.87 11.8416 249.028 11.8416 254.157C11.8416 259.287 83.0638 263.445 170.921 263.445Z" fill="#F5F5F5"/>
<path d="M148.465 69.8162H130.349V254.157H148.465C160.569 254.157 172.554 251.773 183.737 247.141C194.919 242.509 205.08 235.72 213.639 227.161C222.198 218.602 228.987 208.442 233.619 197.259C238.251 186.076 240.635 174.091 240.635 161.987C240.635 149.883 238.251 137.897 233.619 126.715C228.987 115.532 222.198 105.371 213.639 96.8123C205.08 88.2535 194.919 81.4642 183.737 76.8322C172.554 72.2002 160.569 69.8162 148.465 69.8162Z" fill="#BB8646"/>
<path opacity="0.1" d="M130.849 253.657V70.3162H148.465C160.503 70.3162 172.424 72.6873 183.545 77.2942C194.667 81.9011 204.773 88.6535 213.286 97.1659C221.798 105.678 228.55 115.784 233.157 126.906C237.764 138.028 240.135 149.948 240.135 161.987C240.135 174.025 237.764 185.946 233.157 197.068C228.55 208.19 221.798 218.295 213.286 226.808C204.773 235.32 194.667 242.073 183.545 246.679C172.424 251.286 160.503 253.657 148.465 253.657H130.849Z" fill="#F7931A" stroke="#DB0000"/>
<path d="M88.4808 77.5613L88.1116 76.8311C94.5185 73.6391 101.268 71.1865 108.229 69.5208L108.418 70.3412C101.521 71.9867 94.8323 74.4089 88.4808 77.5613Z" fill="#F7931A"/>
<path d="M77.8311 83.7887L77.3799 83.1077C79.1439 81.9263 80.9653 80.7776 82.7949 79.7192L83.2052 80.4248C81.3919 81.4832 79.5869 82.6155 77.8311 83.7887Z" fill="#F7931A"/>
<path d="M195.523 227.161C231.518 191.166 231.518 132.807 195.523 96.8118C159.529 60.817 101.169 60.817 65.1745 96.8119C29.1796 132.807 29.1796 191.166 65.1745 227.161C101.169 263.156 159.529 263.156 195.523 227.161Z" fill="#F7931A"/>
<path opacity="0.1" d="M186.591 112.25C172.279 99.5622 153.664 92.8153 134.546 93.3871C115.428 93.9589 97.2488 101.806 83.7205 115.327C70.1923 128.848 62.335 147.023 61.7528 166.141C61.1706 185.258 67.9074 203.878 80.5879 218.197C72.9255 211.404 66.7338 203.115 62.3936 193.84C58.0535 184.566 55.6566 174.501 55.3505 164.266C55.0443 154.03 56.8354 143.84 60.6134 134.323C64.3915 124.805 70.0767 116.162 77.3194 108.923C84.5621 101.684 93.2092 96.0034 102.729 92.2305C112.248 88.4576 122.439 86.6721 132.674 86.9838C142.909 87.2955 152.973 89.6978 162.245 94.043C171.517 98.3881 179.803 104.584 186.591 112.25Z" fill="black"/>
<path opacity="0.1" d="M166.769 168.706C164.423 165.796 160.763 163.743 155.791 162.545C158.64 161.682 161.211 160.086 163.249 157.917C165.797 155.011 167.164 151.255 167.081 147.391C167.128 145.074 166.673 142.775 165.748 140.651C164.824 138.527 163.451 136.628 161.723 135.084C158.146 131.802 153.024 130.161 146.356 130.161H142.254V118.535H134.492V130.161H124.868V118.535H117.115V130.161H100.254V144.183H106.318V185.345H100.254V199.367H117.115V210.993H124.868V199.367H134.492V210.993H142.254V199.367H143.238C146.447 199.218 149.645 198.903 152.821 198.423C156.442 197.959 159.15 197.204 160.944 196.159C163.787 194.542 166.149 192.197 167.787 189.366C169.459 186.417 170.309 183.073 170.248 179.684C170.275 175.281 169.116 171.622 166.769 168.706ZM127.896 144.183H137.339C140.583 144.183 142.855 144.749 144.157 145.881C144.816 146.473 145.334 147.204 145.673 148.022C146.013 148.84 146.165 149.723 146.118 150.607C146.178 151.53 146.033 152.455 145.694 153.316C145.355 154.177 144.83 154.952 144.157 155.587C142.855 156.736 140.534 157.31 137.192 157.31H127.896V144.183ZM146.586 182.58C145.076 183.888 142.481 184.541 138.8 184.541H127.896V170.479H138.75C142.503 170.479 145.123 171.099 146.61 172.341C147.337 172.934 147.918 173.687 148.308 174.54C148.698 175.394 148.886 176.326 148.859 177.264C148.911 178.265 148.733 179.264 148.339 180.186C147.945 181.107 147.345 181.927 146.586 182.58Z" fill="black"/>
<path d="M164.177 168.706C161.83 165.796 158.171 163.743 153.199 162.545C156.049 161.68 158.623 160.085 160.665 157.917C163.207 155.008 164.571 151.254 164.488 147.391C164.535 145.074 164.081 142.775 163.156 140.651C162.231 138.527 160.858 136.628 159.131 135.084C155.554 131.802 150.431 130.161 143.764 130.161H139.661V118.535H131.908V130.161H122.276V118.535H114.522V130.161H97.6619V144.183H103.725V185.345H97.6619V199.367H114.522V210.993H122.276V199.367H131.908V210.993H139.661V199.367H140.646C143.854 199.218 147.053 198.903 150.229 198.423C153.844 197.959 156.552 197.204 158.351 196.159C161.196 194.544 163.559 192.199 165.194 189.366C166.866 186.417 167.716 183.073 167.655 179.684C167.683 175.281 166.523 171.622 164.177 168.706ZM125.303 144.183H134.747C137.99 144.183 140.263 144.749 141.565 145.881C142.224 146.473 142.742 147.204 143.081 148.022C143.42 148.84 143.572 149.723 143.526 150.607C143.585 151.53 143.44 152.455 143.101 153.316C142.762 154.177 142.238 154.952 141.565 155.587C140.257 156.736 137.936 157.31 134.599 157.31H125.303V144.183ZM143.993 182.58C142.484 183.888 139.888 184.541 136.207 184.541H125.303V170.479H136.158C139.905 170.479 142.525 171.099 144.018 172.341C144.746 172.933 145.328 173.685 145.718 174.539C146.108 175.393 146.296 176.326 146.266 177.264C146.318 178.265 146.141 179.264 145.747 180.186C145.353 181.107 144.753 181.927 143.993 182.58Z" fill="white"/>
<path d="M218.565 29.9088C223.001 29.9088 226.597 26.3677 226.597 21.9996C226.597 17.6314 223.001 14.0903 218.565 14.0903C214.129 14.0903 210.533 17.6314 210.533 21.9996C210.533 26.3677 214.129 29.9088 218.565 29.9088Z" fill="#263238"/>
<path d="M225.687 28.6454C225.698 29.5321 225.445 30.4022 224.961 31.1451C224.477 31.888 223.782 32.47 222.966 32.8173C222.15 33.1645 221.25 33.2613 220.378 33.0953C219.507 32.9293 218.705 32.508 218.074 31.885C217.443 31.262 217.011 30.4654 216.834 29.5965C216.657 28.7276 216.742 27.8256 217.079 27.0052C217.415 26.1848 217.988 25.483 218.725 24.9891C219.461 24.4952 220.328 24.2314 221.215 24.2313C221.799 24.227 222.377 24.3378 222.918 24.5574C223.459 24.777 223.951 25.101 224.366 25.511C224.782 25.921 225.112 26.4089 225.338 26.9467C225.565 27.4846 225.683 28.0618 225.687 28.6454Z" fill="#263238"/>
<path d="M229.608 28.4401C234.045 28.4401 237.641 24.899 237.641 20.5308C237.641 16.1627 234.045 12.6216 229.608 12.6216C225.172 12.6216 221.576 16.1627 221.576 20.5308C221.576 24.899 225.172 28.4401 229.608 28.4401Z" fill="#263238"/>
<path d="M230.79 247.405L237.378 247.307L239.273 232.03L232.685 232.128L230.79 247.405Z" fill="#FF8B7B"/>
<path d="M270.894 247.052L276.851 243.573L272.076 229.486L266.127 232.965L270.894 247.052Z" fill="#FF8B7B"/>
<path d="M277.491 243.106L270.508 247.069C270.394 247.131 270.305 247.232 270.257 247.353C270.209 247.475 270.205 247.609 270.246 247.733L272.002 253.476C272.046 253.615 272.12 253.741 272.22 253.847C272.32 253.952 272.442 254.034 272.577 254.086C272.713 254.138 272.858 254.159 273.003 254.147C273.147 254.135 273.288 254.091 273.413 254.018C275.636 252.705 277.203 251.647 280.034 250.039C281.773 249.054 287.131 246.256 289.535 244.886C291.939 243.516 290.905 240.973 289.797 241.309C284.834 242.851 280.772 243.409 278.623 242.95C278.239 242.864 277.837 242.92 277.491 243.106Z" fill="#263238"/>
<path d="M237.509 246.576L230.314 246.691C230.185 246.692 230.059 246.737 229.959 246.82C229.859 246.902 229.79 247.016 229.764 247.142L228.558 253.017C228.527 253.158 228.528 253.305 228.562 253.446C228.596 253.587 228.662 253.719 228.755 253.83C228.848 253.942 228.964 254.031 229.097 254.09C229.229 254.15 229.373 254.178 229.518 254.174C232.111 254.092 235.86 253.878 239.117 253.829C242.933 253.772 246.231 253.928 250.702 253.829C253.402 253.788 254.107 251.048 252.975 250.818C247.806 249.768 243.597 249.71 239.101 247.036C238.623 246.739 238.072 246.58 237.509 246.576Z" fill="#263238"/>
<path d="M247.552 47.0811C248.471 49.0091 249.464 51.0931 250.473 53.0704C251.482 55.0477 252.516 57.0743 253.582 59.027C255.63 62.8888 257.927 66.6133 260.458 70.177L260.926 70.8252C260.999 70.9236 260.999 70.9319 260.991 70.9483C260.786 70.8523 260.568 70.7886 260.343 70.7596C259.982 70.7185 259.719 70.8416 259.752 70.8744C259.927 70.8447 260.093 70.7745 260.236 70.6693C260.918 70.199 261.541 69.6481 262.091 69.0284C262.78 68.2803 263.426 67.4942 264.027 66.6737C265.315 64.9835 266.488 63.1129 267.694 61.2094C268.9 59.3059 270.016 57.3204 271.107 55.3923L275.718 57.1891C274.474 61.8931 272.699 66.4403 270.426 70.7432C269.797 71.8737 269.107 72.9692 268.359 74.025C267.504 75.2445 266.495 76.3477 265.356 77.3068C264.6 77.9395 263.754 78.4566 262.845 78.8411C261.586 79.3754 260.205 79.5569 258.85 79.3662C257.478 79.137 256.194 78.5418 255.133 77.6432C254.727 77.2983 254.346 76.9255 253.993 76.5274L253.386 75.8054C251.764 73.9382 250.254 71.9766 248.865 69.9309C247.462 67.9372 246.198 65.886 244.968 63.8267C243.737 61.7673 242.596 59.6669 241.505 57.5419C240.414 55.4169 239.388 53.3166 238.412 50.9782L247.552 47.0811Z" fill="#FF8B7B"/>
<path d="M235.737 47.0401C233.965 53.0787 246.469 69.5453 246.469 69.5453L259.071 61.4392C256.695 56.2183 253.765 51.2672 250.333 46.6709C245.132 40.0498 237.649 40.4108 235.737 47.0401Z" fill="#F7931A"/>
<path opacity="0.2" d="M243.384 54.1288C245.977 55.2364 249.792 61.513 251.777 66.1075L246.403 69.5453C243.415 65.5494 240.727 61.3371 238.363 56.943C240.078 55.0887 242.014 53.5463 243.384 54.1288Z" fill="black"/>
<path d="M271.173 57.944L269.532 50.5189L277.023 50.4614C277.023 50.4614 279.025 56.0406 275.004 58.666L271.173 57.944Z" fill="#FF8B7B"/>
<path d="M270.41 43.5613L276.416 45.7191L277.047 50.4614L269.557 50.5188L270.41 43.5613Z" fill="#FF8B7B"/>
<path opacity="0.2" d="M239.274 232.03L238.297 239.906L231.701 240.013L232.685 232.136L239.274 232.03Z" fill="black"/>
<path opacity="0.2" d="M266.127 232.965L272.084 229.494L274.537 236.755L268.58 240.226L266.127 232.965Z" fill="black"/>
<path d="M206.34 44.3653C213.437 69.3812 212.009 95.9313 212.649 101.305C217.794 100.936 237.198 99.4839 247.773 98.6963C251.145 61.0617 243.162 41.9532 243.162 41.9532C243.162 41.9532 240.906 41.5183 237.829 41.1983C236.869 41.0999 235.827 41.0178 234.744 40.9604C234.146 40.9604 233.538 40.903 232.923 40.8948C227.929 40.98 222.943 41.3498 217.991 42.0024C217.055 42.1173 216.104 42.265 215.176 42.4126C214.249 42.5603 213.486 42.7162 212.715 42.8721C209.113 43.5859 206.34 44.3653 206.34 44.3653Z" fill="#F7931A"/>
<path opacity="0.1" d="M231.323 67.1087L225.785 69.8162L219.746 67.5764L218.754 57.8539L230.339 57.3862L231.323 67.1087Z" fill="white"/>
<path opacity="0.2" d="M213.839 55.0969C214.471 57.5173 213.749 68.5607 211.222 71.2846C210.877 67.7484 210.402 64.0564 209.811 60.2822L213.839 55.0969Z" fill="black"/>
<path d="M218.22 25.0518C219.525 29.7858 221.117 38.5237 217.991 41.9779C220.797 44.3818 224.431 47.1222 230.158 46.9006C235.885 46.6791 234.589 42.7983 232.923 40.8702C227.475 39.9842 227.311 35.9967 228 32.198L218.22 25.0518Z" fill="#FF8B7B"/>
<path d="M217.991 40.8867C217.991 40.8867 219.484 44.4229 231.422 46.8022C229.444 48.2545 228.542 51.8071 228.542 51.8071C228.542 51.8071 212.953 49.1898 213.429 42.2487C214.241 41.5923 217.991 40.8867 217.991 40.8867Z" fill="white"/>
<path d="M236.558 50.4862C235.107 48.9287 233.365 47.6715 231.43 46.7859C232.232 45.9715 232.777 44.9388 232.996 43.8166C233.215 42.6945 233.098 41.5328 232.661 40.4765C233.858 40.4375 235.056 40.4869 236.246 40.6242C236.246 40.6242 241.792 44.9398 236.558 50.4862Z" fill="white"/>
<path opacity="0.4" d="M232.004 51.7988C232.111 52.5208 232.513 53.0541 232.907 52.9967C233.301 52.9393 233.522 52.3075 233.415 51.5855C233.309 50.8635 232.907 50.322 232.521 50.3794C232.136 50.4369 231.898 51.0686 232.004 51.7988Z" fill="#263238"/>
<path opacity="0.2" d="M222.2 27.9971L227.943 32.2225C227.775 33.1071 227.687 34.005 227.68 34.9054C225.613 34.7577 222.635 32.7229 222.257 30.5979C222.079 29.7418 222.059 28.8602 222.2 27.9971Z" fill="black"/>
<path d="M224.874 19.1691C229.922 19.1691 234.014 15.1395 234.014 10.1687C234.014 5.19786 229.922 1.16821 224.874 1.16821C219.826 1.16821 215.734 5.19786 215.734 10.1687C215.734 15.1395 219.826 19.1691 224.874 19.1691Z" fill="#263238"/>
<path d="M233.407 11.3254C233.381 11.3161 233.36 11.2973 233.348 11.2728C233.336 11.2484 233.333 11.2202 233.341 11.1941C233.655 10.0653 233.741 8.88517 233.593 7.72286C233.445 6.56055 233.067 5.43947 232.48 4.42532C231.289 2.35329 229.328 0.834905 227.024 0.19994C226.998 0.193412 226.975 0.17678 226.961 0.1537C226.948 0.13062 226.944 0.102981 226.95 0.0768694C226.957 0.0507574 226.973 0.028309 226.996 0.014461C227.019 0.000613014 227.047 -0.00349707 227.073 0.00303091C228.241 0.31988 229.335 0.864194 230.293 1.60476C231.25 2.34533 232.052 3.26759 232.652 4.31866C233.253 5.3573 233.642 6.50542 233.794 7.69584C233.946 8.88627 233.859 10.0951 233.538 11.2516C233.529 11.2776 233.511 11.2994 233.487 11.313C233.462 11.3266 233.434 11.331 233.407 11.3254Z" fill="#263238"/>
<path d="M232.398 21.0232C236.213 21.0232 239.306 17.978 239.306 14.2215C239.306 10.4651 236.213 7.41992 232.398 7.41992C228.583 7.41992 225.49 10.4651 225.49 14.2215C225.49 17.978 228.583 21.0232 232.398 21.0232Z" fill="#263238"/>
<path d="M216.555 22.4098C220.991 22.4098 224.587 18.8687 224.587 14.5006C224.587 10.1324 220.991 6.59131 216.555 6.59131C212.119 6.59131 208.522 10.1324 208.522 14.5006C208.522 18.8687 212.119 22.4098 216.555 22.4098Z" fill="#263238"/>
<path d="M217.113 17.8891C217.999 24.3626 218.188 28.2023 221.716 31.2955C227.032 35.9475 234.843 32.3703 235.91 25.7656C236.878 19.8172 235.27 10.226 228.706 8.10923C227.262 7.63487 225.72 7.5379 224.228 7.82754C222.736 8.11718 221.342 8.78381 220.18 9.764C219.018 10.7442 218.127 12.0054 217.59 13.4275C217.053 14.8497 216.889 16.3856 217.113 17.8891Z" fill="#FF8B7B"/>
<path d="M213.437 14.6646C214.11 23.7718 234.228 11.03 229.945 6.17286C225.662 1.31573 219.09 4.74526 216.719 6.93589C213.757 9.66803 213.273 12.433 213.437 14.6646Z" fill="#263238"/>
<path d="M229.1 6.55041C232.808 5.41818 239.142 12.0311 233.465 11.3665C227.787 10.7019 224.751 7.88776 229.1 6.55041Z" fill="#263238"/>
<path d="M214.709 25.2814C215.191 25.9387 215.797 26.4944 216.494 26.9168C217.191 27.3391 217.965 27.6198 218.77 27.7428C220.928 28.0546 221.724 26.0527 220.887 24.1656C220.14 22.4672 218.106 20.2602 216.054 20.8181C214.003 21.376 213.527 23.6487 214.709 25.2814Z" fill="#FF8B7B"/>
<path d="M240.742 238.372L229.592 238.544C229.592 238.544 236.033 194.493 235.032 173.998C234.728 167.763 235.721 159.041 234.08 149.696C231.996 137.914 230.995 133.221 228.337 118.338C226.417 107.721 224.719 100.444 224.719 100.444L247.806 98.7209C247.806 98.7209 255.346 151.813 255.125 171.906C254.862 192.779 240.742 238.372 240.742 238.372Z" fill="#263238"/>
<path d="M216.161 15.5508C219.886 16.6256 221.593 25.6261 217.187 21.9669C212.781 18.3076 211.796 14.2955 216.161 15.5508Z" fill="#263238"/>
<path opacity="0.2" d="M234.096 149.672C234.881 154.553 235.205 159.498 235.065 164.44C236.984 169.863 238.658 174.999 239.823 179.569C241.866 187.569 245.099 199.695 248.249 211.354C251.671 197.701 255.002 181.924 255.108 171.865L234.096 149.672Z" fill="black"/>
<path d="M235.319 99.6235C235.319 99.6235 251.908 141.549 258.193 159.788C265.085 179.766 276.202 233.695 276.202 233.695L265.717 239.652C265.717 239.652 249.365 195.191 242.596 175.73C234.884 153.577 213.642 118.535 212.649 101.314L235.319 99.6235Z" fill="#263238"/>
<path d="M277.589 233.211L265.233 240.218L263.141 236.526L276.818 228.46L277.589 233.211Z" fill="#F7931A"/>
<path d="M242.145 238.585L228.862 238.79L228.796 234.499L243.638 234.04L242.145 238.585Z" fill="#F7931A"/>
<path d="M225.785 18.972C225.826 19.5053 226.138 19.9155 226.483 19.8827C226.827 19.8499 227.073 19.4068 227.04 18.8817C227.008 18.3566 226.688 17.9464 226.343 17.971C225.998 17.9956 225.744 18.4879 225.785 18.972Z" fill="#263238"/>
<path d="M233.104 18.529C233.104 19.0623 233.457 19.4643 233.801 19.4397C234.146 19.4151 234.4 18.9638 234.359 18.4388C234.318 17.9137 234.006 17.4952 233.662 17.5198C233.317 17.5444 233.063 17.9957 233.104 18.529Z" fill="#263238"/>
<path d="M231.217 18.9312C231.971 20.5049 232.937 21.9679 234.088 23.2796C233.75 23.5603 233.354 23.7643 232.929 23.8777C232.505 23.991 232.06 24.0109 231.627 23.936L231.217 18.9312Z" fill="#FF5652"/>
<path d="M229.461 25.5193C228.865 25.4957 228.281 25.3495 227.744 25.0897C227.208 24.8299 226.731 24.4623 226.343 24.0097C226.328 23.9938 226.317 23.975 226.309 23.9544C226.302 23.9338 226.299 23.912 226.301 23.8902C226.303 23.8685 226.309 23.8473 226.319 23.8282C226.33 23.809 226.344 23.7923 226.362 23.779C226.379 23.7657 226.399 23.7562 226.42 23.7511C226.441 23.746 226.463 23.7455 226.485 23.7494C226.506 23.7534 226.527 23.7618 226.545 23.7741C226.563 23.7864 226.578 23.8024 226.589 23.821C227.03 24.3137 227.58 24.696 228.196 24.9369C228.812 25.1777 229.475 25.2704 230.134 25.2076C230.154 25.2053 230.174 25.2072 230.193 25.213C230.213 25.2189 230.23 25.2287 230.246 25.2418C230.261 25.2548 230.274 25.2709 230.283 25.289C230.292 25.3071 230.297 25.3269 230.298 25.347C230.3 25.3675 230.298 25.3883 230.292 25.408C230.287 25.4278 230.277 25.4463 230.264 25.4623C230.251 25.4783 230.235 25.4916 230.217 25.5014C230.199 25.5112 230.179 25.5173 230.158 25.5193C229.926 25.5358 229.693 25.5358 229.461 25.5193Z" fill="#263238"/>
<path d="M224.669 17.1754C224.616 17.1743 224.565 17.1571 224.522 17.1261C224.487 17.1045 224.458 17.0761 224.434 17.0428C224.411 17.0094 224.395 16.9717 224.386 16.9319C224.378 16.8921 224.377 16.851 224.385 16.8111C224.393 16.7712 224.409 16.7332 224.431 16.6995C224.692 16.2727 225.052 15.9155 225.48 15.6583C225.909 15.4011 226.394 15.2516 226.893 15.2227C226.976 15.2227 227.055 15.2555 227.113 15.314C227.172 15.3724 227.205 15.4517 227.205 15.5344C227.205 15.6171 227.172 15.6964 227.113 15.7549C227.055 15.8134 226.976 15.8462 226.893 15.8462C226.503 15.8781 226.125 16.0027 225.793 16.2096C225.46 16.4165 225.182 16.6998 224.981 17.0359C224.948 17.0869 224.901 17.1273 224.846 17.1521C224.791 17.1769 224.729 17.185 224.669 17.1754Z" fill="#263238"/>
<path d="M235.532 15.2473C235.48 15.2471 235.428 15.2325 235.383 15.205C235.338 15.1775 235.302 15.1382 235.278 15.0914C235.091 14.7464 234.825 14.4509 234.501 14.2297C234.177 14.0085 233.805 13.8679 233.415 13.8197C233.375 13.8177 233.335 13.8074 233.298 13.7897C233.262 13.772 233.229 13.747 233.202 13.7164C233.176 13.6858 233.155 13.6501 233.142 13.6115C233.13 13.5729 233.125 13.5321 233.128 13.4915C233.132 13.4103 233.168 13.3339 233.228 13.2787C233.288 13.2235 233.367 13.1939 233.448 13.1962C233.941 13.2519 234.413 13.4247 234.826 13.7001C235.238 13.9756 235.579 14.3457 235.819 14.7797C235.859 14.8519 235.869 14.9365 235.847 15.016C235.826 15.0954 235.775 15.1636 235.704 15.2063C235.653 15.2389 235.593 15.2533 235.532 15.2473Z" fill="#263238"/>
<path d="M279.952 243.032C279.432 243.308 278.881 243.523 278.311 243.672C278.282 243.68 278.251 243.68 278.222 243.672C278.193 243.663 278.167 243.646 278.147 243.622C278.131 243.597 278.123 243.567 278.123 243.536C278.123 243.506 278.131 243.476 278.147 243.45C278.286 243.204 279.493 240.989 280.305 240.989C280.396 240.988 280.485 241.011 280.565 241.055C280.644 241.1 280.71 241.165 280.756 241.243C280.848 241.368 280.908 241.513 280.929 241.666C280.951 241.82 280.934 241.976 280.879 242.121C280.681 242.52 280.354 242.841 279.952 243.032ZM278.623 243.261C279.706 242.9 280.436 242.441 280.6 242.006C280.636 241.906 280.646 241.799 280.629 241.694C280.612 241.589 280.568 241.49 280.502 241.407C280.436 241.309 280.379 241.292 280.329 241.292C279.903 241.317 279.132 242.4 278.623 243.294V243.261Z" fill="#256BFD"/>
<path d="M278.401 243.664H278.319C278.291 243.662 278.264 243.652 278.241 243.637C278.218 243.621 278.2 243.599 278.188 243.573C278.188 243.5 277.367 241.768 277.712 240.849C277.75 240.736 277.812 240.633 277.895 240.547C277.977 240.46 278.077 240.393 278.188 240.349C278.289 240.292 278.408 240.271 278.523 240.29C278.638 240.31 278.742 240.368 278.82 240.456C279.304 241.03 278.869 242.917 278.459 243.59C278.449 243.621 278.429 243.647 278.401 243.664ZM278.245 240.685C278.187 240.716 278.135 240.758 278.093 240.808C278.05 240.859 278.019 240.918 277.999 240.981C277.89 241.724 278.01 242.482 278.344 243.155C278.68 242.375 278.869 241.014 278.582 240.694C278.582 240.694 278.5 240.587 278.311 240.694L278.245 240.685Z" fill="#256BFD"/>
<path d="M238.199 247.446C238.171 247.436 238.146 247.418 238.127 247.395C238.108 247.372 238.096 247.344 238.092 247.315C238.086 247.283 238.09 247.251 238.105 247.222C238.12 247.194 238.145 247.171 238.174 247.159C238.47 246.995 241.095 245.616 241.899 246.043C241.975 246.085 242.039 246.145 242.085 246.218C242.13 246.291 242.157 246.375 242.162 246.461C242.181 246.602 242.165 246.745 242.117 246.877C242.068 247.01 241.988 247.13 241.883 247.224C241.169 247.873 239.282 247.643 238.215 247.446H238.199ZM241.694 246.297C241.193 246.133 239.774 246.699 238.732 247.216C240.192 247.438 241.275 247.356 241.678 246.995C241.746 246.931 241.798 246.851 241.828 246.762C241.858 246.673 241.865 246.578 241.85 246.486C241.853 246.452 241.845 246.418 241.827 246.388C241.809 246.359 241.783 246.336 241.751 246.322L241.694 246.297Z" fill="#256BFD"/>
<path d="M238.199 247.446H238.158C238.134 247.432 238.116 247.411 238.104 247.386C238.092 247.361 238.088 247.334 238.092 247.307C238.092 247.233 238.248 245.452 239.068 244.755C239.185 244.651 239.322 244.573 239.47 244.525C239.618 244.477 239.775 244.46 239.93 244.476C240.365 244.476 240.488 244.722 240.521 244.903C240.652 245.641 239.101 247.093 238.314 247.462C238.275 247.469 238.234 247.463 238.199 247.446ZM240.069 244.788H239.905C239.791 244.777 239.676 244.791 239.567 244.827C239.458 244.864 239.358 244.923 239.274 245.001C238.796 245.581 238.51 246.295 238.453 247.044C239.274 246.544 240.307 245.403 240.233 244.96C240.228 244.914 240.205 244.871 240.171 244.839C240.136 244.808 240.092 244.789 240.045 244.788H240.069Z" fill="#256BFD"/>
<path d="M213.585 52.9474C211.731 56.7707 209.86 60.7007 208.047 64.5897C207.136 66.5424 206.233 68.4869 205.38 70.4396C204.527 72.3923 203.674 74.345 202.87 76.2977C202.492 77.274 202.049 78.2504 201.729 79.2103L201.204 80.6461C201.136 80.7704 201.084 80.9027 201.048 81.04C200.964 81.4532 201.007 81.8822 201.171 82.2707C201.434 82.9481 201.784 83.588 202.213 84.1741C204.215 86.9309 207.702 89.622 211.009 91.9275L209.031 96.4318C207.89 96.1015 206.767 95.7098 205.667 95.2586C204.57 94.8181 203.496 94.3196 202.451 93.7653C200.201 92.6273 198.131 91.1649 196.306 89.4251C195.245 88.4038 194.341 87.2316 193.623 85.9463C192.751 84.385 192.28 82.6314 192.253 80.843C192.24 79.8846 192.362 78.9291 192.614 78.0042L193.098 76.3141C193.41 75.1901 193.771 74.1235 194.115 73.0322C195.576 68.7248 197.217 64.5651 198.981 60.471C200.745 56.3769 202.64 52.3976 204.724 48.3938L213.585 52.9474Z" fill="#FF8B7B"/>
<path d="M206.348 44.3654C200.334 46.2525 194.427 66.6245 194.427 66.6245L208.326 72.7041C208.326 72.7041 212.83 62.8586 215.414 55.1463C218.229 46.7365 213.626 42.0845 206.348 44.3654Z" fill="#F7931A"/>
<path d="M208.662 91.3777L215.324 92.0341L212.617 99.4182C212.617 99.4182 206.627 98.0891 206.701 94.8236L208.662 91.3777Z" fill="#FF8B7B"/>
<path d="M221.067 95.3488L217.548 101.453L212.567 99.4511L215.283 92.0342L221.067 95.3488Z" fill="#FF8B7B"/>
<path d="M226.31 22.2048C225.411 22.2113 224.531 21.9507 223.781 21.4562C223.03 20.9616 222.444 20.2553 222.095 19.4268C221.747 18.5983 221.652 17.6851 221.823 16.8028C221.995 15.9205 222.424 15.109 223.058 14.4712C223.691 13.8334 224.499 13.398 225.38 13.2202C226.261 13.0425 227.175 13.1304 228.006 13.4728C228.837 13.8152 229.548 14.3967 230.048 15.1436C230.548 15.8904 230.815 16.7689 230.815 17.6676C230.812 18.8647 230.338 20.0125 229.495 20.862C228.652 21.7115 227.507 22.194 226.31 22.2048ZM226.31 13.5407C225.499 13.5407 224.706 13.7813 224.031 14.2321C223.356 14.6829 222.831 15.3235 222.52 16.0731C222.21 16.8227 222.128 17.6476 222.287 18.4434C222.445 19.2391 222.836 19.9701 223.409 20.5438C223.983 21.1175 224.714 21.5082 225.51 21.6665C226.306 21.8248 227.131 21.7436 227.88 21.4331C228.63 21.1226 229.27 20.5968 229.721 19.9222C230.172 19.2475 230.413 18.4544 230.413 17.643C230.406 16.5593 229.971 15.5222 229.202 14.7582C228.434 13.9941 227.394 13.5653 226.31 13.5653V13.5407Z" fill="white"/>
<path d="M236.172 22.2047C235.275 22.2047 234.398 21.9386 233.651 21.44C232.905 20.9415 232.324 20.2329 231.98 19.4038C231.637 18.5748 231.547 17.6625 231.722 16.7824C231.897 15.9022 232.329 15.0938 232.964 14.4593C233.598 13.8247 234.407 13.3926 235.287 13.2176C236.167 13.0425 237.079 13.1323 237.908 13.4757C238.738 13.8191 239.446 14.4007 239.945 15.1468C240.443 15.8929 240.709 16.7702 240.709 17.6675C240.707 18.8702 240.228 20.023 239.378 20.8734C238.528 21.7238 237.375 22.2025 236.172 22.2047ZM236.172 13.5406C235.361 13.5406 234.568 13.7812 233.893 14.232C233.218 14.6827 232.693 15.3234 232.382 16.073C232.072 16.8226 231.99 17.6475 232.149 18.4432C232.307 19.239 232.698 19.97 233.271 20.5437C233.845 21.1174 234.576 21.5081 235.372 21.6664C236.168 21.8247 236.992 21.7434 237.742 21.433C238.492 21.1225 239.132 20.5966 239.583 19.922C240.034 19.2474 240.274 18.4543 240.274 17.6429C240.268 16.5592 239.833 15.5221 239.064 14.758C238.296 13.994 237.256 13.5652 236.172 13.5652V13.5406Z" fill="white"/>
</svg>
