<svg width="26" height="26" viewBox="0 0 26 26" fill="none" xmlns="http://www.w3.org/2000/svg">
<path fill-rule="evenodd" clip-rule="evenodd" d="M16.3885 6.91534C17.3746 7.49053 18.1458 8.43466 18.1458 9.74991V13.7828L19.6674 15.5579C20.7214 16.7877 19.8476 18.6875 18.2279 18.6875H7.77206C6.15235 18.6875 5.27854 16.7877 6.33263 15.5579L7.85416 13.7828V9.74986C7.85416 8.43463 8.62537 7.49051 9.61144 6.91533C10.5798 6.3505 11.8144 6.09375 13 6.09375C14.1856 6.09375 15.4202 6.3505 16.3885 6.91534ZM10.4302 8.31898C9.79128 8.69167 9.47916 9.16936 9.47916 9.74986V13.8836C9.47916 14.2079 9.36283 14.5196 9.15315 14.7642L7.56642 16.6154C7.41584 16.7911 7.54067 17.0625 7.77206 17.0625H18.2279C18.4593 17.0625 18.5841 16.7911 18.4336 16.6154L16.8468 14.7642C16.6371 14.5196 16.5208 14.2079 16.5208 13.8836V9.74991C16.5208 9.16938 16.2087 8.69168 15.5698 8.31899C14.9131 7.93594 13.981 7.71875 13 7.71875C12.0189 7.71875 11.0869 7.93594 10.4302 8.31898Z" fill="white"/>
<path d="M14.625 5.95801C14.625 6.85547 13.8975 7.58301 13 7.58301C12.1025 7.58301 11.375 6.85547 11.375 5.95801C11.375 5.06054 12.1025 4.33301 13 4.33301C13.8975 4.33301 14.625 5.06054 14.625 5.95801Z" fill="white"/>
<path fill-rule="evenodd" clip-rule="evenodd" d="M11.2869 18.6875C11.3791 18.8817 11.5044 19.0607 11.6593 19.2156C12.0148 19.5711 12.497 19.7708 12.9998 19.7708C13.5026 19.7708 13.9849 19.5711 14.3404 19.2156C14.4953 19.0607 14.6206 18.8817 14.7127 18.6875L11.2869 18.6875ZM16.5207 17.0625V17.875C16.5207 18.8088 16.1497 19.7043 15.4894 20.3646C14.8292 21.0249 13.9336 21.3958 12.9998 21.3958C12.0661 21.3958 11.1705 21.0249 10.5102 20.3646C9.84995 19.7043 9.479 18.8088 9.479 17.875L9.479 17.0625L16.5207 17.0625Z" fill="white"/>
<circle cx="17" cy="5" r="3" fill="#F7931A"/>
</svg>
