<svg width="30" height="30" viewBox="0 0 30 30" fill="none" xmlns="http://www.w3.org/2000/svg">
<circle cx="15" cy="15" r="15" fill="white"/>
<path d="M12.4375 9.96484V10.9297H11.2187H10V11.5898V12.25H10.5383C10.8531 12.25 11.1578 12.3109 11.3 12.4125C11.5234 12.5648 11.5234 12.5852 11.5234 15.4391C11.5234 17.5312 11.493 18.3336 11.4016 18.425C11.3305 18.4961 11.0461 18.5469 10.7516 18.5469H10.2234L10.1117 19.1867C10.0508 19.5422 10 19.8672 10 19.8977C10 19.9383 10.5383 19.9789 11.1984 19.9891L12.3867 20.0195L12.4172 21.0148L12.4477 22H12.9961H13.5547V21.0352V20.0703H14.0625H14.5703V21.0352V22H15.1797H15.7891V20.9945V19.9992L16.4594 19.9281C17.7492 19.7961 18.643 19.3086 19.0695 18.5063C19.2523 18.1711 19.293 17.9172 19.293 17.1656C19.293 16.3125 19.2727 16.2211 19.0086 15.8656C18.8461 15.6625 18.5008 15.3883 18.2469 15.2664C17.9828 15.1445 17.7492 15.0328 17.7289 15.0227C17.7086 15.0125 17.8406 14.8703 18.0234 14.718C18.45 14.3625 18.6328 13.9156 18.6328 13.2352C18.6328 12.0672 17.8812 11.3156 16.5102 11.1023L15.7891 10.9906V9.99531V9H15.1797H14.5703V9.96484V10.9297H14.0625H13.5547V9.96484V9H12.9961H12.4375V9.96484ZM15.6469 12.5445C16.1648 12.7781 16.3984 13.1031 16.3984 13.5703C16.3984 14.2813 15.6672 14.6875 14.4078 14.6875H13.6562V13.5195V12.3516H14.4484C14.9867 12.3516 15.3625 12.4125 15.6469 12.5445ZM16.1039 16.1906C16.7133 16.4547 16.9367 16.7289 16.9367 17.2063C16.9367 18.1 16.3273 18.4656 14.7023 18.5266L13.6562 18.5672V17.2266V15.8758L14.6617 15.9367C15.332 15.9672 15.8094 16.0484 16.1039 16.1906Z" fill="black"/>
</svg>
