<svg width="18" height="17" viewBox="0 0 18 17" fill="none" xmlns="http://www.w3.org/2000/svg">
<path d="M4.31251 11C2.76923 10.9387 1.45884 9.65258 1.50099 7.9297C1.5108 7.52887 1.65054 7.03344 1.93002 6.0426C2.60264 3.65801 3.73305 1.58796 6.26538 1.0913C6.73087 0.999999 7.25468 1 8.30229 1L9.69771 1C10.7453 1 11.2691 1 11.7346 1.0913C14.267 1.58796 15.3974 3.65801 16.07 6.0426C16.3495 7.03345 16.4892 7.52887 16.499 7.9297C16.5412 9.65257 15.2308 10.9387 13.6875 11" stroke="white" stroke-width="1.5" stroke-linecap="round"/>
<path d="M8.99992 15.9997L8.99992 6.83301M8.99992 15.9997C9.58344 15.9997 10.6736 14.3378 11.0833 13.9163M8.99992 15.9997C8.4164 15.9997 7.32619 14.3378 6.91659 13.9163" stroke="white" stroke-width="1.5" stroke-linecap="round" stroke-linejoin="round"/>
</svg>
