<svg width="19" height="14" viewBox="0 0 19 14" fill="none" xmlns="http://www.w3.org/2000/svg">
<path fill-rule="evenodd" clip-rule="evenodd" d="M8.87513 7.91717C8.32419 7.91717 7.77489 7.73517 7.31536 7.37117L3.62184 4.39329C3.35584 4.17917 3.31466 3.78964 3.52795 3.52446C3.74289 3.26011 4.1316 3.21811 4.39678 3.4314L8.08701 6.40599C8.55066 6.77329 9.20372 6.77329 9.67066 6.4027L13.3238 3.43305C13.589 3.21646 13.9777 3.25764 14.1935 3.52282C14.4084 3.78717 14.3681 4.17587 14.1037 4.39164L10.444 7.36623C9.98113 7.73352 9.42772 7.91717 8.87513 7.91717Z" fill="#AAAAAA"/>
<mask id="mask0_37782_8355" style="mask-type:luminance" maskUnits="userSpaceOnUse" x="0" y="0" width="19" height="14">
<path fill-rule="evenodd" clip-rule="evenodd" d="M0 0H18.375V14H0V0Z" fill="white"/>
</mask>
<g mask="url(#mask0_37782_8355)">
<path fill-rule="evenodd" clip-rule="evenodd" d="M4.80849 12.923H12.8955C12.8972 12.9216 12.9038 12.923 12.9087 12.923C13.8484 12.923 14.6818 12.6301 15.3208 12.0737C16.0628 11.4297 16.4705 10.5043 16.4705 9.46827V4.5374C16.4705 2.53217 14.9667 1.07689 12.8955 1.07689H4.81014C2.73896 1.07689 1.2352 2.53217 1.2352 4.5374V9.46827C1.2352 10.5043 1.64367 11.4297 2.38484 12.0737C3.0239 12.6301 3.85814 12.923 4.79696 12.923H4.80849ZM4.79447 14C3.52376 14 2.38894 13.5979 1.5127 12.8369C0.536819 11.9883 -0.00012207 10.7922 -0.00012207 9.46831V4.53744C-0.00012207 1.95067 2.06776 0 4.81011 0H12.8955C15.6379 0 17.7058 1.95067 17.7058 4.53744V9.46831C17.7058 10.7922 17.1688 11.9883 16.1929 12.8369C15.3175 13.5972 14.1819 14 12.9087 14H12.8955H4.81011H4.79447Z" fill="#AAAAAA"/>
</g>
</svg>
