<svg width="22" height="24" viewBox="0 0 22 24" fill="none" xmlns="http://www.w3.org/2000/svg">
<path fill-rule="evenodd" clip-rule="evenodd" d="M10.7931 3.15604C10.5726 3.29376 10.2951 3.51536 9.8217 3.89774L4.18667 8.44911C3.00723 9.40173 2.71539 9.67054 2.55797 10C2.40056 10.3295 2.37481 10.7255 2.37481 12.2416V17.5C2.37481 18.4554 2.37589 19.0967 2.42046 19.5884C2.46363 20.0647 2.54038 20.2892 2.62601 20.4376C2.79058 20.7226 3.02727 20.9593 3.3123 21.1239C3.46062 21.2095 3.68515 21.2862 4.16145 21.3294C4.65322 21.374 5.29449 21.3751 6.24982 21.3751H6.49982C6.86467 21.3751 7.08197 21.3744 7.24398 21.3634C7.34421 21.3566 7.38681 21.3474 7.39785 21.3446C7.48611 21.3067 7.55645 21.2363 7.59437 21.1481C7.59717 21.1371 7.60632 21.0945 7.61316 20.9942C7.62421 20.8322 7.62482 20.6149 7.62482 20.2501L7.62482 20.2174C7.6248 19.896 7.62478 19.6007 7.64171 19.3527C7.65989 19.0863 7.7013 18.7933 7.82464 18.4955C8.09106 17.8523 8.60208 17.3413 9.24528 17.0749C9.54303 16.9515 9.83604 16.9101 10.1025 16.8919C10.3505 16.875 10.6458 16.875 10.9672 16.8751H11.0325C11.3539 16.875 11.6491 16.875 11.8971 16.8919C12.1636 16.9101 12.4566 16.9515 12.7544 17.0749C13.3976 17.3413 13.9086 17.8523 14.175 18.4955C14.2983 18.7933 14.3398 19.0863 14.3579 19.3527C14.3749 19.6007 14.3748 19.896 14.3748 20.2174V20.2501C14.3748 20.6149 14.3754 20.8322 14.3865 20.9942C14.3933 21.0945 14.4025 21.1371 14.4053 21.1481C14.4432 21.2363 14.5135 21.3067 14.6018 21.3446C14.6128 21.3474 14.6554 21.3566 14.7557 21.3634C14.9177 21.3744 15.135 21.3751 15.4998 21.3751H15.7498C16.7052 21.3751 17.3464 21.374 17.8382 21.3294C18.3145 21.2862 18.539 21.2095 18.6873 21.1239C18.9724 20.9593 19.2091 20.7226 19.3736 20.4376C19.4593 20.2893 19.536 20.0647 19.5792 19.5884C19.6238 19.0967 19.6248 18.4554 19.6249 17.5001L19.6249 12.2416C19.6249 10.7255 19.5992 10.3295 19.4417 10C19.2843 9.67054 18.9925 9.40172 17.813 8.44909L12.178 3.89774C11.7045 3.51536 11.4271 3.29376 11.2065 3.15604C11.1066 3.09362 11.0493 3.0689 11.0212 3.0591C11.0082 3.0546 11.0021 3.05349 11.0012 3.05333H10.9985C10.9976 3.05349 10.9914 3.0546 10.9785 3.0591C10.9503 3.0689 10.8931 3.09362 10.7931 3.15604ZM9.60138 1.24757C9.99109 1.00422 10.4455 0.803224 10.9998 0.803223C11.5542 0.803221 12.0086 1.00422 12.3983 1.24757C12.7492 1.46669 13.1339 1.77755 13.5467 2.11104C13.5617 2.12312 13.5767 2.13523 13.5917 2.14736L19.2268 6.69872C19.2817 6.74308 19.336 6.78685 19.3897 6.8301C20.3253 7.58411 21.0665 8.18144 21.472 9.03011C21.8774 9.87879 21.8764 10.8307 21.875 12.0324C21.875 12.1013 21.8749 12.171 21.8749 12.2416L21.8749 17.551C21.8749 18.4423 21.8749 19.1862 21.82 19.7915C21.7627 20.4239 21.6385 21.0148 21.3222 21.5626C20.9601 22.1897 20.4394 22.7104 19.8123 23.0724C19.2645 23.3887 18.6736 23.5129 18.0413 23.5702C17.4359 23.6251 16.692 23.6251 15.8007 23.6251H15.4672C15.1458 23.6251 14.8505 23.6251 14.6025 23.6082C14.336 23.59 14.043 23.5486 13.7453 23.4252C13.1021 23.1588 12.5911 22.6478 12.3246 22.0046C12.2013 21.7068 12.1599 21.4138 12.1417 21.1474C12.1248 20.8994 12.1248 20.6041 12.1248 20.2827L12.1248 20.2501C12.1248 19.8852 12.1242 19.6679 12.1132 19.5059C12.1063 19.4057 12.0972 19.3631 12.0944 19.352C12.0564 19.2638 11.9861 19.1934 11.8979 19.1555C11.8868 19.1527 11.8442 19.1436 11.744 19.1367C11.582 19.1257 11.3647 19.1251 10.9998 19.1251C10.635 19.1251 10.4177 19.1257 10.2557 19.1367C10.1554 19.1436 10.1128 19.1527 10.1018 19.1555C10.0135 19.1934 9.94319 19.2638 9.90528 19.352C9.90248 19.3631 9.89332 19.4057 9.88649 19.5059C9.87543 19.6679 9.87482 19.8852 9.87482 20.2501L9.87482 20.2827C9.87484 20.6041 9.87486 20.8994 9.85794 21.1474C9.83976 21.4138 9.79834 21.7068 9.67501 22.0046C9.40858 22.6478 8.89757 23.1588 8.25437 23.4252C7.95661 23.5486 7.6636 23.59 7.39714 23.6082C7.14915 23.6251 6.85388 23.6251 6.53247 23.6251H6.19895C5.30764 23.6251 4.56377 23.6251 3.95836 23.5702C3.326 23.5129 2.73514 23.3887 2.1873 23.0724C1.56023 22.7104 1.0395 22.1896 0.677459 21.5626C0.361161 21.0147 0.236954 20.4239 0.179641 19.7915C0.124771 19.1861 0.124788 18.4422 0.124807 17.5509L0.124808 12.2416C0.124808 12.171 0.124732 12.1012 0.124657 12.0323C0.123352 10.8307 0.122318 9.87877 0.527768 9.0301C0.933218 8.18144 1.6744 7.58413 2.61001 6.83012C2.66368 6.78687 2.71799 6.7431 2.77291 6.69874L8.40794 2.14737C8.42297 2.13524 8.43795 2.12313 8.4529 2.11105C8.8657 1.77756 9.25048 1.4667 9.60138 1.24757Z" fill="#23262F"/>
</svg>
