<svg width="13" height="16" viewBox="0 0 13 16" fill="none" xmlns="http://www.w3.org/2000/svg">
<path d="M1.18741 12.7912C1.34477 13.9604 2.31288 14.8764 3.49098 14.9305C4.48229 14.9761 5.4893 14.9999 6.59824 14.9999C7.70718 14.9999 8.71418 14.9761 9.7055 14.9305C10.8836 14.8764 11.8517 13.9604 12.0091 12.7912C12.1118 12.0282 12.1965 11.2462 12.1965 10.4499C12.1965 9.65357 12.1118 8.87162 12.0091 8.10858C11.8517 6.93942 10.8836 6.02344 9.7055 5.96927C8.71418 5.92368 7.70718 5.8999 6.59824 5.8999C5.4893 5.8999 4.48229 5.92368 3.49098 5.96927C2.31288 6.02344 1.34477 6.93942 1.18741 8.10858C1.0847 8.87162 0.999999 9.65357 0.999999 10.4499C0.999999 11.2462 1.0847 12.0282 1.18741 12.7912Z" stroke="#AAAAAA" stroke-width="1.5"/>
<path d="M3.44922 5.9V4.15C3.44922 2.4103 4.85908 1 6.59823 1C8.33738 1 9.74724 2.4103 9.74724 4.15V5.9" stroke="#AAAAAA" stroke-width="1.5" stroke-linecap="round" stroke-linejoin="round"/>
<path d="M6.59552 10.45H6.60181" stroke="#AAAAAA" stroke-width="2" stroke-linecap="round" stroke-linejoin="round"/>
</svg>
