<svg width="32" height="32" viewBox="0 0 32 32" fill="none" xmlns="http://www.w3.org/2000/svg">
<circle cx="16" cy="16" r="15" fill="#F7931A" stroke="white" stroke-width="2"/>
<g clip-path="url(#clip0_37759_1855)">
<path d="M11.3333 12.6665H12C12.3536 12.6665 12.6928 12.526 12.9428 12.276C13.1929 12.0259 13.3333 11.6868 13.3333 11.3332C13.3333 11.1564 13.4036 10.9868 13.5286 10.8618C13.6536 10.7367 13.8232 10.6665 14 10.6665H18C18.1768 10.6665 18.3464 10.7367 18.4714 10.8618C18.5964 10.9868 18.6667 11.1564 18.6667 11.3332C18.6667 11.6868 18.8071 12.0259 19.0572 12.276C19.3072 12.526 19.6464 12.6665 20 12.6665H20.6667C21.0203 12.6665 21.3594 12.807 21.6095 13.057C21.8595 13.3071 22 13.6462 22 13.9998V19.9998C22 20.3535 21.8595 20.6926 21.6095 20.9426C21.3594 21.1927 21.0203 21.3332 20.6667 21.3332H11.3333C10.9797 21.3332 10.6406 21.1927 10.3905 20.9426C10.1405 20.6926 10 20.3535 10 19.9998V13.9998C10 13.6462 10.1405 13.3071 10.3905 13.057C10.6406 12.807 10.9797 12.6665 11.3333 12.6665" stroke="white" stroke-width="1.5" stroke-linecap="round" stroke-linejoin="round"/>
<path d="M16 18.6665C17.1046 18.6665 18 17.7711 18 16.6665C18 15.5619 17.1046 14.6665 16 14.6665C14.8954 14.6665 14 15.5619 14 16.6665C14 17.7711 14.8954 18.6665 16 18.6665Z" stroke="white" stroke-width="1.5" stroke-linecap="round" stroke-linejoin="round"/>
</g>
<defs>
<clipPath id="clip0_37759_1855">
<rect width="16" height="16" fill="white" transform="translate(8 8)"/>
</clipPath>
</defs>
</svg>
