<svg width="15" height="13" viewBox="0 0 15 13" fill="none" xmlns="http://www.w3.org/2000/svg">
<path d="M1.75489 0.298321C0.886967 0.895018 0.737793 1.23405 0.737793 2.60374C0.737793 3.62084 0.778477 3.86494 0.968335 3.98699C1.14463 4.09548 1.28024 4.09548 1.44298 3.98699C1.63284 3.86494 1.70064 3.58015 1.75489 2.72579C1.84982 1.2883 1.97187 1.1798 3.40937 1.08488C4.26373 1.03063 4.53495 0.962824 4.65701 0.772966C4.7655 0.61023 4.7655 0.474617 4.65701 0.298321C4.53495 0.122024 4.27729 0.0542178 3.35512 0.0270948C2.35159 -2.76566e-05 2.16173 0.0270948 1.75489 0.298321Z" fill="black"/>
<path d="M9.78318 0.162856C9.57976 0.366275 9.57976 0.718868 9.78318 0.922288C9.87811 1.01722 10.3392 1.08502 10.9223 1.08502C12.3463 1.08502 12.5226 1.26132 12.5904 2.76662C12.6311 3.86509 12.6446 3.93289 12.9565 4.01426C13.5803 4.177 13.716 3.87865 13.6617 2.5632C13.621 1.24776 13.4312 0.868043 12.6039 0.298469C12.2242 0.0543652 11.9801 0.000120163 11.0579 0.000120163C10.3663 0.000120163 9.87811 0.0679266 9.78318 0.162856Z" fill="black"/>
<path d="M0.154606 6.12956C-0.0623744 6.34655 -0.0488131 6.7127 0.181729 6.90256C0.30378 7.01105 2.27017 7.03817 7.24716 7.02461C13.6345 6.98393 14.1499 6.97036 14.2855 6.73982C14.394 6.57709 14.394 6.44147 14.2855 6.26518C14.1499 6.0482 13.6345 6.03464 7.2336 5.99395C1.97182 5.96683 0.276658 6.00751 0.154606 6.12956Z" fill="black"/>
<path d="M0.805481 9.15387C0.696991 9.28948 0.656307 9.72345 0.68343 10.4964C0.737675 11.7712 0.927533 12.1509 1.75477 12.7205C2.16161 12.9917 2.35147 13.0188 3.355 12.9917C4.27717 12.9646 4.53484 12.8968 4.65689 12.7205C4.76538 12.5442 4.76538 12.4086 4.65689 12.2458C4.53484 12.056 4.26361 11.9882 3.40925 11.9339C1.94463 11.839 1.83614 11.7305 1.76833 10.2659C1.74121 9.64208 1.65984 9.11319 1.56491 9.05894C1.32081 8.89621 0.981778 8.93689 0.805481 9.15387Z" fill="black"/>
<path d="M12.7937 9.05894C12.6988 9.11319 12.6174 9.64208 12.5903 10.2659C12.5225 11.7305 12.414 11.839 10.9494 11.9339C10.095 11.9882 9.82378 12.056 9.70173 12.2458C9.59324 12.4086 9.59324 12.5442 9.70173 12.7205C9.82378 12.8968 10.0814 12.9646 11.0036 12.9917C12.0071 13.0188 12.197 12.9917 12.6038 12.7205C13.4311 12.1509 13.6209 11.7712 13.6752 10.4964C13.7023 9.72345 13.6616 9.28948 13.5531 9.15387C13.3768 8.93689 13.0378 8.89621 12.7937 9.05894Z" fill="black"/>
</svg>
