<svg width="25" height="25" viewBox="0 0 25 25" fill="none" xmlns="http://www.w3.org/2000/svg">
<path fill-rule="evenodd" clip-rule="evenodd" d="M15.07 1.56696C13.9936 -0.52232 11.0064 -0.522319 9.93001 1.56696L9.00438 3.36361C8.91198 3.54296 8.70353 3.6293 8.51138 3.56782L6.58643 2.95192C4.34796 2.2357 2.2357 4.34796 2.95192 6.58643L3.56782 8.51138C3.6293 8.70353 3.54296 8.91198 3.36361 9.00438L1.56696 9.93001C-0.522319 11.0064 -0.52232 13.9936 1.56696 15.07L3.36361 15.9956C3.54296 16.088 3.6293 16.2965 3.56782 16.4886L2.95192 18.4136C2.2357 20.652 4.34796 22.7643 6.58643 22.0481L8.51138 21.4322C8.70353 21.3707 8.91198 21.457 9.00438 21.6364L9.93001 23.433C11.0064 25.5223 13.9936 25.5223 15.07 23.433L15.9956 21.6364C16.088 21.457 16.2965 21.3707 16.4886 21.4322L18.4136 22.0481C20.652 22.7643 22.7643 20.652 22.0481 18.4136L21.4322 16.4886C21.3707 16.2965 21.457 16.088 21.6364 15.9956L23.433 15.07C25.5223 13.9936 25.5223 11.0064 23.433 9.93001L21.6364 9.00438C21.457 8.91198 21.3707 8.70353 21.4322 8.51138L22.0481 6.58643C22.7643 4.34796 20.652 2.2357 18.4136 2.95192L16.4886 3.56782C16.2965 3.6293 16.088 3.54296 15.9956 3.36361L15.07 1.56696Z" fill="#CCCCCC"/>
<path d="M15.8041 12.4998C15.8041 14.3246 14.3248 15.8038 12.5001 15.8038C10.6753 15.8038 9.19604 14.3246 9.19604 12.4998C9.19604 10.6751 10.6753 9.1958 12.5001 9.1958C14.3248 9.1958 15.8041 10.6751 15.8041 12.4998Z" fill="#CCCCCC"/>
<path fill-rule="evenodd" clip-rule="evenodd" d="M12.5001 10.4346C11.3596 10.4346 10.435 11.3591 10.435 12.4996C10.435 13.64 11.3596 14.5646 12.5001 14.5646C13.6405 14.5646 14.5651 13.64 14.5651 12.4996C14.5651 11.3591 13.6405 10.4346 12.5001 10.4346ZM7.95703 12.4996C7.95703 9.99052 9.99101 7.95654 12.5001 7.95654C15.0091 7.95654 17.0431 9.99052 17.0431 12.4996C17.0431 15.0086 15.0091 17.0426 12.5001 17.0426C9.99101 17.0426 7.95703 15.0086 7.95703 12.4996Z" fill="white"/>
</svg>
