<svg width="26" height="26" viewBox="0 0 26 26" fill="none" xmlns="http://www.w3.org/2000/svg">
<path fill-rule="evenodd" clip-rule="evenodd" d="M14.6854 5.83078C13.9795 4.4607 12.0206 4.4607 11.3148 5.83078L10.7078 7.00897C10.6472 7.12658 10.5105 7.1832 10.3845 7.14288L9.12214 6.73899C7.65423 6.26932 6.26908 7.65447 6.73875 9.12239L7.14264 10.3847C7.18295 10.5107 7.12633 10.6474 7.00873 10.708L5.83054 11.315C4.46046 12.0209 4.46046 13.9798 5.83054 14.6856L7.00873 15.2926C7.12633 15.3532 7.18296 15.4899 7.14264 15.6159L6.73875 16.8782C6.26908 18.3462 7.65423 19.7313 9.12214 19.2616L10.3845 18.8577C10.5105 18.8174 10.6472 18.874 10.7078 18.9917L11.3148 20.1698C12.0206 21.5399 13.9795 21.5399 14.6854 20.1698L15.2924 18.9917C15.353 18.874 15.4897 18.8174 15.6157 18.8577L16.878 19.2616C18.3459 19.7313 19.7311 18.3462 19.2614 16.8782L18.8575 15.6159C18.8172 15.4899 18.8738 15.3532 18.9914 15.2926L20.1696 14.6856C21.5397 13.9798 21.5397 12.0209 20.1696 11.315L18.9914 10.708C18.8738 10.6474 18.8172 10.5107 18.8575 10.3847L19.2614 9.12239C19.7311 7.65447 18.3459 6.26932 16.878 6.73899L15.6157 7.14288C15.4897 7.1832 15.353 7.12658 15.2924 7.00897L14.6854 5.83078Z" fill="#F7931A"/>
<path d="M15.1666 13.0002C15.1666 14.1968 14.1965 15.1668 12.9999 15.1668C11.8033 15.1668 10.8333 14.1968 10.8333 13.0002C10.8333 11.8035 11.8033 10.8335 12.9999 10.8335C14.1965 10.8335 15.1666 11.8035 15.1666 13.0002Z" fill="#F7931A"/>
<path fill-rule="evenodd" clip-rule="evenodd" d="M12.9999 11.646C12.252 11.646 11.6458 12.2523 11.6458 13.0002C11.6458 13.748 12.252 14.3543 12.9999 14.3543C13.7478 14.3543 14.3541 13.748 14.3541 13.0002C14.3541 12.2523 13.7478 11.646 12.9999 11.646ZM10.0208 13.0002C10.0208 11.3548 11.3546 10.021 12.9999 10.021C14.6453 10.021 15.9791 11.3548 15.9791 13.0002C15.9791 14.6455 14.6453 15.9793 12.9999 15.9793C11.3546 15.9793 10.0208 14.6455 10.0208 13.0002Z" fill="#FFE8CC"/>
</svg>
