<svg width="16" height="18" viewBox="0 0 16 18" fill="none" xmlns="http://www.w3.org/2000/svg">
<path fill-rule="evenodd" clip-rule="evenodd" d="M12.0625 9C12.0625 9.44873 11.6987 9.8125 11.25 9.8125L2.58333 9.8125C2.1346 9.8125 1.77083 9.44873 1.77083 9C1.77083 8.55127 2.1346 8.1875 2.58333 8.1875L11.25 8.1875C11.6987 8.1875 12.0625 8.55127 12.0625 9Z" fill="white"/>
<path fill-rule="evenodd" clip-rule="evenodd" d="M5.32452 12.8245C5.00722 13.1418 4.49278 13.1418 4.17548 12.8245L1.30849 9.95754C0.779658 9.4287 0.779658 8.57129 1.30849 8.04246L4.17548 5.17547C4.49278 4.85817 5.00723 4.85817 5.32453 5.17548C5.64183 5.49278 5.64183 6.00722 5.32453 6.32452L2.64905 9L5.32452 11.6755C5.64183 11.9928 5.64183 12.5072 5.32452 12.8245Z" fill="white"/>
<path fill-rule="evenodd" clip-rule="evenodd" d="M10.0765 1.4165C10.0765 0.967773 10.4402 0.604004 10.889 0.604004L13.9584 0.604005C14.7063 0.604005 15.3126 1.21029 15.3126 1.95817L15.3126 16.0415C15.3126 16.7894 14.7063 17.3957 13.9584 17.3957L10.1667 17.3957C9.71801 17.3957 9.35425 17.0319 9.35425 16.5832C9.35425 16.1344 9.71801 15.7707 10.1667 15.7707L13.6876 15.7707L13.6876 2.229L10.889 2.229C10.4402 2.229 10.0765 1.86524 10.0765 1.4165Z" fill="white"/>
</svg>
