<svg width="26" height="26" viewBox="0 0 26 26" fill="none" xmlns="http://www.w3.org/2000/svg">
<path fill-rule="evenodd" clip-rule="evenodd" d="M3.38189 9.69972C2.8727 11.8704 2.8727 14.1296 3.38189 16.3003C4.11722 19.4351 6.5649 21.8828 9.69972 22.6181C11.8704 23.1273 14.1296 23.1273 16.3003 22.6181C19.4351 21.8828 21.8828 19.4351 22.6181 16.3003C23.1273 14.1296 23.1273 11.8704 22.6181 9.69972C21.8828 6.5649 19.4351 4.11721 16.3003 3.38189C14.1296 2.8727 11.8704 2.87271 9.69972 3.38189C6.56491 4.11721 4.11722 6.5649 3.38189 9.69972ZM13.8509 16.5633C13.8509 17.0039 13.4937 17.361 13.0531 17.361C12.6126 17.361 12.2554 17.0039 12.2554 16.5633C12.2554 16.1227 12.6126 15.7656 13.0531 15.7656C13.4937 15.7656 13.8509 16.1227 13.8509 16.5633ZM11.5109 10.7664C11.5109 9.94398 12.1776 9.27728 13 9.27728C13.8224 9.27728 14.4891 9.94398 14.4891 10.7664V10.8954C14.4891 11.3246 14.3186 11.7362 14.0151 12.0396L12.5487 13.5061C12.2995 13.7553 12.2995 14.1594 12.5487 14.4086C12.7979 14.6578 13.202 14.6578 13.4512 14.4086L14.9177 12.9422C15.4605 12.3994 15.7655 11.6631 15.7655 10.8954V10.7664C15.7655 9.23905 14.5273 8.0009 13 8.0009C11.4726 8.0009 10.2345 9.23905 10.2345 10.7664V11.2982C10.2345 11.6507 10.5202 11.9364 10.8727 11.9364C11.2251 11.9364 11.5109 11.6507 11.5109 11.2982V10.7664Z" fill="#F7931A"/>
</svg>
