<svg width="12" height="14" viewBox="0 0 12 14" fill="none" xmlns="http://www.w3.org/2000/svg">
<mask id="mask0_37782_8303" style="mask-type:luminance" maskUnits="userSpaceOnUse" x="0" y="8" width="12" height="6">
<path fill-rule="evenodd" clip-rule="evenodd" d="M0 8.80444H11.157V14H0V8.80444Z" fill="white"/>
</mask>
<g mask="url(#mask0_37782_8303)">
<path fill-rule="evenodd" clip-rule="evenodd" d="M5.57917 9.86125C2.5779 9.86125 1.05648 10.377 1.05648 11.3951C1.05648 12.4224 2.5779 12.9431 5.57917 12.9431C8.57974 12.9431 10.1004 12.4273 10.1004 11.4092C10.1004 10.3819 8.57974 9.86125 5.57917 9.86125ZM5.57911 14C4.19927 14 -0.00012207 14 -0.00012207 11.3952C-0.00012207 9.07289 3.18428 8.80444 5.57911 8.80444C6.95894 8.80444 11.1569 8.80444 11.1569 11.4093C11.1569 13.7316 7.97322 14 5.57911 14Z" fill="#AAAAAA"/>
</g>
<mask id="mask1_37782_8303" style="mask-type:luminance" maskUnits="userSpaceOnUse" x="1" y="0" width="9" height="8">
<path fill-rule="evenodd" clip-rule="evenodd" d="M1.83826 0H9.31857V7.48166H1.83826V0Z" fill="white"/>
</mask>
<g mask="url(#mask1_37782_8303)">
<path fill-rule="evenodd" clip-rule="evenodd" d="M5.57916 1.00579C4.07113 1.00579 2.84414 2.23247 2.84414 3.74097C2.83921 5.24455 4.05704 6.47052 5.55874 6.47616L5.57916 6.97923V6.47616C7.08649 6.47616 8.31278 5.24878 8.31278 3.74097C8.31278 2.23247 7.08649 1.00579 5.57916 1.00579ZM5.57913 7.48146H5.55659C3.49845 7.47511 1.83124 5.7961 1.83828 3.73872C1.83828 1.67782 3.51606 -0.000488281 5.57913 -0.000488281C7.64149 -0.000488281 9.31857 1.67782 9.31857 3.74084C9.31857 5.80385 7.64149 7.48146 5.57913 7.48146Z" fill="#AAAAAA"/>
</g>
</svg>
